<svg xmlns="http://www.w3.org/2000/svg" xmlns:xlink="http://www.w3.org/1999/xlink" width="226.309" height="46.002" viewBox="0 0 226.309 46.002">
  <defs>
    <linearGradient id="linear-gradient" x1="0.501" y1="1" x2="0.501" gradientUnits="objectBoundingBox">
      <stop offset="0" stop-color="#1ca7ec"/>
      <stop offset="0.26" stop-color="#179fe4"/>
      <stop offset="0.65" stop-color="#0c89d1"/>
      <stop offset="1" stop-color="#0071bc"/>
    </linearGradient>
    <linearGradient id="linear-gradient-2" x1="0.5" y1="0.977" x2="0.5" y2="0.214" gradientUnits="objectBoundingBox">
      <stop offset="0" stop-color="#0071bc"/>
      <stop offset="0.13" stop-color="#0479c3"/>
      <stop offset="0.69" stop-color="#159ae0"/>
      <stop offset="1" stop-color="#1ca7ec"/>
    </linearGradient>
  </defs>
  <g id="Group_224" data-name="Group 224" transform="translate(-3632 3345)">
    <path id="Path_100" data-name="Path 100" d="M2.976.12a1.044,1.044,0,0,1-.768-.312A1.044,1.044,0,0,1,1.9-.96v-10.3a1.084,1.084,0,0,1,.312-.78,1.024,1.024,0,0,1,.768-.324,1.063,1.063,0,0,1,.78.324,1.063,1.063,0,0,1,.324.78v.984a7.033,7.033,0,0,1,.852-.984A4.536,4.536,0,0,1,6.24-12.12a4.621,4.621,0,0,1,1.92-.36,3.574,3.574,0,0,1,2.364.768,4.406,4.406,0,0,1,1.308,1.7,7.552,7.552,0,0,1,.816-1.032,4.693,4.693,0,0,1,1.4-1.008,4.949,4.949,0,0,1,2.2-.432,3.584,3.584,0,0,1,2.3.708,4.115,4.115,0,0,1,1.3,1.764,5.884,5.884,0,0,1,.408,2.136V-.96a1.024,1.024,0,0,1-.324.768,1.084,1.084,0,0,1-.78.312,1.044,1.044,0,0,1-.768-.312,1.044,1.044,0,0,1-.312-.768V-7.44a3.9,3.9,0,0,0-.54-2.268,2.189,2.189,0,0,0-1.908-.756,3.256,3.256,0,0,0-1.56.348,3.846,3.846,0,0,0-1.1.876,8.093,8.093,0,0,0-.792,1.08v7.2a1.024,1.024,0,0,1-.324.768,1.084,1.084,0,0,1-.78.312A1.044,1.044,0,0,1,10.3-.192,1.044,1.044,0,0,1,9.984-.96V-7.44a3.9,3.9,0,0,0-.54-2.268,2.189,2.189,0,0,0-1.908-.756,3.256,3.256,0,0,0-1.56.348,3.846,3.846,0,0,0-1.1.876A8.093,8.093,0,0,0,4.08-8.16v7.2a1.024,1.024,0,0,1-.324.768A1.084,1.084,0,0,1,2.976.12ZM29.4.24a6.128,6.128,0,0,1-4.572-1.668A6.4,6.4,0,0,1,23.184-6.12a8,8,0,0,1,.6-3.084,5.382,5.382,0,0,1,1.872-2.364,5.468,5.468,0,0,1,3.264-.912,5.48,5.48,0,0,1,3.12.852,5.51,5.51,0,0,1,1.932,2.22,6.758,6.758,0,0,1,.66,2.976,1.066,1.066,0,0,1-.3.768,1.063,1.063,0,0,1-.8.312H25.392a4.076,4.076,0,0,0,1.224,2.58,4.18,4.18,0,0,0,2.976.972A7,7,0,0,0,31.416-2a7.726,7.726,0,0,0,1.416-.54.953.953,0,0,1,.432-.1.963.963,0,0,1,.672.264.872.872,0,0,1,.288.672.811.811,0,0,1-.18.516,1.432,1.432,0,0,1-.444.372,8.993,8.993,0,0,1-1.716.756A8.3,8.3,0,0,1,29.4.24ZM25.392-7.128h7.08a3.7,3.7,0,0,0-.636-2.016,3.441,3.441,0,0,0-1.356-1.128,3.75,3.75,0,0,0-1.56-.36,3.75,3.75,0,0,0-1.56.36,3.354,3.354,0,0,0-1.344,1.128A3.764,3.764,0,0,0,25.392-7.128ZM42.576.24A5.609,5.609,0,0,1,39.8-.5a5.886,5.886,0,0,1-2.184-2.16,6.589,6.589,0,0,1-.852-3.456,6.589,6.589,0,0,1,.852-3.456,5.886,5.886,0,0,1,2.184-2.16,5.609,5.609,0,0,1,2.772-.744,5.239,5.239,0,0,1,2.28.48,6.119,6.119,0,0,1,1.824,1.344v-5.88A1.052,1.052,0,0,1,47-17.328a1.084,1.084,0,0,1,.78-.312,1.044,1.044,0,0,1,.768.312,1.073,1.073,0,0,1,.312.792V-.96a1.044,1.044,0,0,1-.312.768,1.044,1.044,0,0,1-.768.312A1.084,1.084,0,0,1,47-.192,1.024,1.024,0,0,1,46.68-.96v-.624A6.119,6.119,0,0,1,44.856-.24,5.239,5.239,0,0,1,42.576.24Zm.312-2.04a4.439,4.439,0,0,0,2.136-.516A6.127,6.127,0,0,0,46.68-3.6V-8.64a6.127,6.127,0,0,0-1.656-1.284,4.439,4.439,0,0,0-2.136-.516,3.867,3.867,0,0,0-2.82,1.092A4.321,4.321,0,0,0,38.952-6.12,4.329,4.329,0,0,0,40.068-2.9,3.844,3.844,0,0,0,42.888-1.8Zm10.8-12.936a1.178,1.178,0,0,1-.864-.36,1.178,1.178,0,0,1-.36-.864v-.1a1.178,1.178,0,0,1,.36-.864,1.178,1.178,0,0,1,.864-.36h.144a1.178,1.178,0,0,1,.864.36,1.178,1.178,0,0,1,.36.864v.1a1.178,1.178,0,0,1-.36.864,1.178,1.178,0,0,1-.864.36ZM53.736.12a1.044,1.044,0,0,1-.768-.312,1.044,1.044,0,0,1-.312-.768v-10.3a1.073,1.073,0,0,1,.312-.792,1.044,1.044,0,0,1,.768-.312,1.073,1.073,0,0,1,.792.312,1.073,1.073,0,0,1,.312.792V-.96a1.044,1.044,0,0,1-.312.768A1.073,1.073,0,0,1,53.736.12ZM59.9.12a1.044,1.044,0,0,1-.768-.312,1.044,1.044,0,0,1-.312-.768V-15.648a1.084,1.084,0,0,1,.312-.78,1.024,1.024,0,0,1,.768-.324h5.472a8.7,8.7,0,0,1,3.06.468A5.142,5.142,0,0,1,70.4-15.036,4.781,4.781,0,0,1,71.46-13.32a5.76,5.76,0,0,1,.324,1.9,5.76,5.76,0,0,1-.324,1.9A4.781,4.781,0,0,1,70.4-7.812a5.142,5.142,0,0,1-1.968,1.248,8.7,8.7,0,0,1-3.06.468H61.008V-.96a1.024,1.024,0,0,1-.324.768A1.084,1.084,0,0,1,59.9.12Zm1.1-8.28H65.16a6.193,6.193,0,0,0,2.76-.492A2.794,2.794,0,0,0,69.24-9.9a3.515,3.515,0,0,0,.36-1.524,3.488,3.488,0,0,0-.36-1.536A2.813,2.813,0,0,0,67.92-14.2a6.193,6.193,0,0,0-2.76-.492H61.008ZM75.456.12a1.044,1.044,0,0,1-.768-.312,1.044,1.044,0,0,1-.312-.768V-16.536a1.073,1.073,0,0,1,.312-.792,1.044,1.044,0,0,1,.768-.312,1.084,1.084,0,0,1,.78.312,1.052,1.052,0,0,1,.324.792v6.264A9.468,9.468,0,0,1,78.372-11.8a4.749,4.749,0,0,1,2.652-.684,4.12,4.12,0,0,1,2.328.636,4.1,4.1,0,0,1,1.464,1.7,5.47,5.47,0,0,1,.5,2.364V-.96A1.024,1.024,0,0,1,85-.192a1.084,1.084,0,0,1-.78.312,1.044,1.044,0,0,1-.768-.312,1.044,1.044,0,0,1-.312-.768V-7.536a3.4,3.4,0,0,0-.612-2.148,2.425,2.425,0,0,0-2.028-.78,3.741,3.741,0,0,0-2.256.7A8.438,8.438,0,0,0,76.56-8.16v7.2a1.024,1.024,0,0,1-.324.768A1.084,1.084,0,0,1,75.456.12ZM92.112.24A4.407,4.407,0,0,1,90.18-.192a3.549,3.549,0,0,1-1.44-1.236A3.384,3.384,0,0,1,88.2-3.36a3.432,3.432,0,0,1,1.356-2.8A6.577,6.577,0,0,1,93.72-7.248h2.9V-7.44a2.89,2.89,0,0,0-.792-2.292,3.638,3.638,0,0,0-2.424-.684,7.675,7.675,0,0,0-1.764.18q-.756.18-1.428.4a1.349,1.349,0,0,1-.312.048.853.853,0,0,1-.624-.264.881.881,0,0,1-.264-.648.926.926,0,0,1,.624-.912,12.074,12.074,0,0,1,1.86-.612,9.574,9.574,0,0,1,2.292-.252,5.28,5.28,0,0,1,2.856.7,4.336,4.336,0,0,1,1.632,1.776,5.075,5.075,0,0,1,.528,2.256V-.96a1.024,1.024,0,0,1-.324.768A1.084,1.084,0,0,1,97.7.12a1.044,1.044,0,0,1-.768-.312,1.044,1.044,0,0,1-.312-.768v-.624A6.877,6.877,0,0,1,94.9-.336,5.9,5.9,0,0,1,92.112.24Zm.816-1.92a4.248,4.248,0,0,0,2.112-.552A5.825,5.825,0,0,0,96.624-3.48V-5.5H94.008a6.66,6.66,0,0,0-2.652.432A1.5,1.5,0,0,0,90.384-3.6a1.9,1.9,0,0,0,.54,1.344A2.713,2.713,0,0,0,92.928-1.68ZM103.56.12a1.044,1.044,0,0,1-.768-.312,1.044,1.044,0,0,1-.312-.768v-10.3a1.084,1.084,0,0,1,.312-.78,1.024,1.024,0,0,1,.768-.324,1.063,1.063,0,0,1,.78.324,1.063,1.063,0,0,1,.324.78v1.032a7.717,7.717,0,0,1,1.584-1.56,3.56,3.56,0,0,1,2.184-.7h.12a1,1,0,0,1,.756.312,1.066,1.066,0,0,1,.3.768.966.966,0,0,1-.312.744,1.122,1.122,0,0,1-.792.288h-.12a4.009,4.009,0,0,0-2.136.588,5.055,5.055,0,0,0-1.584,1.524v7.3a1.024,1.024,0,0,1-.324.768A1.084,1.084,0,0,1,103.56.12Zm9.192,0a1.044,1.044,0,0,1-.768-.312,1.044,1.044,0,0,1-.312-.768v-10.3a1.084,1.084,0,0,1,.312-.78,1.024,1.024,0,0,1,.768-.324,1.063,1.063,0,0,1,.78.324,1.063,1.063,0,0,1,.324.78v.984a7.033,7.033,0,0,1,.852-.984,4.536,4.536,0,0,1,1.308-.864,4.621,4.621,0,0,1,1.92-.36,3.574,3.574,0,0,1,2.364.768,4.406,4.406,0,0,1,1.308,1.7,7.553,7.553,0,0,1,.816-1.032,4.693,4.693,0,0,1,1.4-1.008,4.949,4.949,0,0,1,2.2-.432,3.584,3.584,0,0,1,2.3.708,4.115,4.115,0,0,1,1.3,1.764,5.884,5.884,0,0,1,.408,2.136V-.96a1.024,1.024,0,0,1-.324.768,1.084,1.084,0,0,1-.78.312,1.044,1.044,0,0,1-.768-.312,1.044,1.044,0,0,1-.312-.768V-7.44a3.9,3.9,0,0,0-.54-2.268,2.189,2.189,0,0,0-1.908-.756,3.256,3.256,0,0,0-1.56.348,3.846,3.846,0,0,0-1.1.876,8.093,8.093,0,0,0-.792,1.08v7.2a1.024,1.024,0,0,1-.324.768,1.084,1.084,0,0,1-.78.312,1.044,1.044,0,0,1-.768-.312,1.044,1.044,0,0,1-.312-.768V-7.44a3.9,3.9,0,0,0-.54-2.268,2.189,2.189,0,0,0-1.908-.756,3.256,3.256,0,0,0-1.56.348,3.846,3.846,0,0,0-1.1.876,8.093,8.093,0,0,0-.792,1.08v7.2a1.024,1.024,0,0,1-.324.768A1.084,1.084,0,0,1,112.752.12Zm24.072.12a4.407,4.407,0,0,1-1.932-.432,3.549,3.549,0,0,1-1.44-1.236,3.384,3.384,0,0,1-.54-1.932,3.432,3.432,0,0,1,1.356-2.8,6.577,6.577,0,0,1,4.164-1.092h2.9V-7.44a2.89,2.89,0,0,0-.792-2.292,3.638,3.638,0,0,0-2.424-.684,7.674,7.674,0,0,0-1.764.18q-.756.18-1.428.4a1.349,1.349,0,0,1-.312.048.853.853,0,0,1-.624-.264.881.881,0,0,1-.264-.648.926.926,0,0,1,.624-.912,12.073,12.073,0,0,1,1.86-.612,9.574,9.574,0,0,1,2.292-.252,5.28,5.28,0,0,1,2.856.7,4.336,4.336,0,0,1,1.632,1.776,5.075,5.075,0,0,1,.528,2.256V-.96a1.024,1.024,0,0,1-.324.768,1.084,1.084,0,0,1-.78.312,1.044,1.044,0,0,1-.768-.312,1.044,1.044,0,0,1-.312-.768v-.624a6.877,6.877,0,0,1-1.728,1.248A5.9,5.9,0,0,1,136.824.24Zm.816-1.92a4.248,4.248,0,0,0,2.112-.552,5.825,5.825,0,0,0,1.584-1.248V-5.5H138.72a6.66,6.66,0,0,0-2.652.432A1.5,1.5,0,0,0,135.1-3.6a1.9,1.9,0,0,0,.54,1.344A2.713,2.713,0,0,0,137.64-1.68ZM152.856.24a6.8,6.8,0,0,1-3.168-.756A5.935,5.935,0,0,1,147.336-2.7a6.347,6.347,0,0,1-.888-3.42,6.332,6.332,0,0,1,.888-3.432,5.962,5.962,0,0,1,2.352-2.172,6.8,6.8,0,0,1,3.168-.756,6.514,6.514,0,0,1,2.364.372,7.927,7.927,0,0,1,1.548.78.958.958,0,0,1,.48.84.994.994,0,0,1-.264.648.818.818,0,0,1-.648.312,1.094,1.094,0,0,1-.528-.144,9.064,9.064,0,0,0-1.224-.552,4.6,4.6,0,0,0-1.536-.216,4.32,4.32,0,0,0-3.252,1.2,4.292,4.292,0,0,0-1.164,3.12A4.292,4.292,0,0,0,149.8-3a4.32,4.32,0,0,0,3.252,1.2,4.381,4.381,0,0,0,1.536-.228,13.325,13.325,0,0,0,1.224-.54,1.094,1.094,0,0,1,.528-.144.818.818,0,0,1,.648.312.994.994,0,0,1,.264.648.958.958,0,0,1-.48.84,9.6,9.6,0,0,1-1.548.768A6.33,6.33,0,0,1,152.856.24Zm9.864,5.4a.977.977,0,0,1-.732-.312,1.036,1.036,0,0,1-.3-.744.967.967,0,0,1,.072-.384L163.32.192,158.808-10.8q-.024-.1-.06-.216a.831.831,0,0,1-.036-.24,1.084,1.084,0,0,1,.312-.78,1.024,1.024,0,0,1,.768-.324,1.048,1.048,0,0,1,.612.192,1.089,1.089,0,0,1,.4.48l3.7,9.168,3.768-9.12a1.28,1.28,0,0,1,.4-.528.98.98,0,0,1,.612-.192,1.024,1.024,0,0,1,.768.324,1.084,1.084,0,0,1,.312.78,1.152,1.152,0,0,1-.072.408L163.728,4.9a1.605,1.605,0,0,1-.384.528A.9.9,0,0,1,162.72,5.64Z" transform="translate(3687.957 -3313.45)" fill="#0071bc"/>
    <rect id="Rectangle_21" data-name="Rectangle 21" width="33.895" height="33.895" rx="16.947" transform="translate(3644.107 -3332.893)" fill="#1ca7ec"/>
    <path id="Path_16" data-name="Path 16" d="M23.176,0h0a5.566,5.566,0,0,1,5.562,5.569V35.345H23.169A5.572,5.572,0,0,1,17.6,29.777V5.569A5.582,5.582,0,0,1,23.176,0Z" transform="translate(3626.5 -3345)" fill="url(#linear-gradient)"/>
    <path id="Path_17" data-name="Path 17" d="M5.569,0h5.569V29.777a5.572,5.572,0,0,1-5.569,5.569h0A5.572,5.572,0,0,1,0,29.777V5.569A5.572,5.572,0,0,1,5.569,0Z" transform="translate(3667.345 -3332.893) rotate(90)" fill="url(#linear-gradient-2)"/>
  </g>
</svg>
