<svg xmlns="http://www.w3.org/2000/svg" xmlns:xlink="http://www.w3.org/1999/xlink" width="163.768" height="46.002" viewBox="0 0 163.768 46.002">
  <defs>
    <linearGradient id="linear-gradient" x1="0.501" y1="1" x2="0.501" gradientUnits="objectBoundingBox">
      <stop offset="0" stop-color="#ff9dda"/>
      <stop offset="1" stop-color="#ee4392"/>
    </linearGradient>
  </defs>
  <g id="Group_226" data-name="Group 226" transform="translate(-3285.021 3450.502)">
    <path id="Path_97" data-name="Path 97" d="M2.976.12a1.044,1.044,0,0,1-.768-.312A1.044,1.044,0,0,1,1.9-.96v-10.3a1.084,1.084,0,0,1,.312-.78,1.024,1.024,0,0,1,.768-.324,1.063,1.063,0,0,1,.78.324,1.063,1.063,0,0,1,.324.78v.984a7.033,7.033,0,0,1,.852-.984A4.536,4.536,0,0,1,6.24-12.12a4.621,4.621,0,0,1,1.92-.36,3.574,3.574,0,0,1,2.364.768,4.406,4.406,0,0,1,1.308,1.7,7.552,7.552,0,0,1,.816-1.032,4.693,4.693,0,0,1,1.4-1.008,4.949,4.949,0,0,1,2.2-.432,3.584,3.584,0,0,1,2.3.708,4.115,4.115,0,0,1,1.3,1.764,5.884,5.884,0,0,1,.408,2.136V-.96a1.024,1.024,0,0,1-.324.768,1.084,1.084,0,0,1-.78.312,1.044,1.044,0,0,1-.768-.312,1.044,1.044,0,0,1-.312-.768V-7.44a3.9,3.9,0,0,0-.54-2.268,2.189,2.189,0,0,0-1.908-.756,3.256,3.256,0,0,0-1.56.348,3.846,3.846,0,0,0-1.1.876,8.093,8.093,0,0,0-.792,1.08v7.2a1.024,1.024,0,0,1-.324.768,1.084,1.084,0,0,1-.78.312A1.044,1.044,0,0,1,10.3-.192,1.044,1.044,0,0,1,9.984-.96V-7.44a3.9,3.9,0,0,0-.54-2.268,2.189,2.189,0,0,0-1.908-.756,3.256,3.256,0,0,0-1.56.348,3.846,3.846,0,0,0-1.1.876A8.093,8.093,0,0,0,4.08-8.16v7.2a1.024,1.024,0,0,1-.324.768A1.084,1.084,0,0,1,2.976.12ZM29.4.24a6.128,6.128,0,0,1-4.572-1.668A6.4,6.4,0,0,1,23.184-6.12a8,8,0,0,1,.6-3.084,5.382,5.382,0,0,1,1.872-2.364,5.468,5.468,0,0,1,3.264-.912,5.48,5.48,0,0,1,3.12.852,5.51,5.51,0,0,1,1.932,2.22,6.758,6.758,0,0,1,.66,2.976,1.066,1.066,0,0,1-.3.768,1.063,1.063,0,0,1-.8.312H25.392a4.076,4.076,0,0,0,1.224,2.58,4.18,4.18,0,0,0,2.976.972A7,7,0,0,0,31.416-2a7.726,7.726,0,0,0,1.416-.54.953.953,0,0,1,.432-.1.963.963,0,0,1,.672.264.872.872,0,0,1,.288.672.811.811,0,0,1-.18.516,1.432,1.432,0,0,1-.444.372,8.993,8.993,0,0,1-1.716.756A8.3,8.3,0,0,1,29.4.24ZM25.392-7.128h7.08a3.7,3.7,0,0,0-.636-2.016,3.441,3.441,0,0,0-1.356-1.128,3.75,3.75,0,0,0-1.56-.36,3.75,3.75,0,0,0-1.56.36,3.354,3.354,0,0,0-1.344,1.128A3.764,3.764,0,0,0,25.392-7.128ZM42.576.24A5.609,5.609,0,0,1,39.8-.5a5.886,5.886,0,0,1-2.184-2.16,6.589,6.589,0,0,1-.852-3.456,6.589,6.589,0,0,1,.852-3.456,5.886,5.886,0,0,1,2.184-2.16,5.609,5.609,0,0,1,2.772-.744,5.239,5.239,0,0,1,2.28.48,6.119,6.119,0,0,1,1.824,1.344v-5.88A1.052,1.052,0,0,1,47-17.328a1.084,1.084,0,0,1,.78-.312,1.044,1.044,0,0,1,.768.312,1.073,1.073,0,0,1,.312.792V-.96a1.044,1.044,0,0,1-.312.768,1.044,1.044,0,0,1-.768.312A1.084,1.084,0,0,1,47-.192,1.024,1.024,0,0,1,46.68-.96v-.624A6.119,6.119,0,0,1,44.856-.24,5.239,5.239,0,0,1,42.576.24Zm.312-2.04a4.439,4.439,0,0,0,2.136-.516A6.127,6.127,0,0,0,46.68-3.6V-8.64a6.127,6.127,0,0,0-1.656-1.284,4.439,4.439,0,0,0-2.136-.516,3.867,3.867,0,0,0-2.82,1.092A4.321,4.321,0,0,0,38.952-6.12,4.329,4.329,0,0,0,40.068-2.9,3.844,3.844,0,0,0,42.888-1.8Zm10.8-12.936a1.178,1.178,0,0,1-.864-.36,1.178,1.178,0,0,1-.36-.864v-.1a1.178,1.178,0,0,1,.36-.864,1.178,1.178,0,0,1,.864-.36h.144a1.178,1.178,0,0,1,.864.36,1.178,1.178,0,0,1,.36.864v.1a1.178,1.178,0,0,1-.36.864,1.178,1.178,0,0,1-.864.36ZM53.736.12a1.044,1.044,0,0,1-.768-.312,1.044,1.044,0,0,1-.312-.768v-10.3a1.073,1.073,0,0,1,.312-.792,1.044,1.044,0,0,1,.768-.312,1.073,1.073,0,0,1,.792.312,1.073,1.073,0,0,1,.312.792V-.96a1.044,1.044,0,0,1-.312.768A1.073,1.073,0,0,1,53.736.12Zm12.48.12A8.776,8.776,0,0,1,61.932-.8,7.64,7.64,0,0,1,58.92-3.78a9.112,9.112,0,0,1-1.1-4.6,9.1,9.1,0,0,1,1.1-4.608,7.662,7.662,0,0,1,3.012-2.964,8.776,8.776,0,0,1,4.284-1.044,9.747,9.747,0,0,1,3.072.432,13.611,13.611,0,0,1,2.4,1.056.922.922,0,0,1,.372.324,1.135,1.135,0,0,1,.156.54.877.877,0,0,1-.24.672.928.928,0,0,1-.72.288.953.953,0,0,1-.432-.1,11.618,11.618,0,0,0-1.968-.816,8.261,8.261,0,0,0-2.424-.312,6.793,6.793,0,0,0-3.552.864,5.488,5.488,0,0,0-2.16,2.34A7.483,7.483,0,0,0,60-8.376a7.483,7.483,0,0,0,.72,3.324,5.488,5.488,0,0,0,2.16,2.34,6.793,6.793,0,0,0,3.552.864,8.261,8.261,0,0,0,2.424-.312,11.618,11.618,0,0,0,1.968-.816.953.953,0,0,1,.432-.1.928.928,0,0,1,.72.288.877.877,0,0,1,.24.672,1.135,1.135,0,0,1-.156.54.922.922,0,0,1-.372.324,13.611,13.611,0,0,1-2.4,1.056A9.747,9.747,0,0,1,66.216.24Zm11.976,0A4.407,4.407,0,0,1,76.26-.192a3.549,3.549,0,0,1-1.44-1.236,3.384,3.384,0,0,1-.54-1.932,3.432,3.432,0,0,1,1.356-2.8A6.577,6.577,0,0,1,79.8-7.248h2.9V-7.44a2.89,2.89,0,0,0-.792-2.292,3.638,3.638,0,0,0-2.424-.684,7.675,7.675,0,0,0-1.764.18q-.756.18-1.428.4a1.349,1.349,0,0,1-.312.048.853.853,0,0,1-.624-.264A.881.881,0,0,1,75.1-10.7a.926.926,0,0,1,.624-.912,12.074,12.074,0,0,1,1.86-.612,9.574,9.574,0,0,1,2.292-.252,5.28,5.28,0,0,1,2.856.7,4.336,4.336,0,0,1,1.632,1.776,5.075,5.075,0,0,1,.528,2.256V-.96a1.024,1.024,0,0,1-.324.768,1.084,1.084,0,0,1-.78.312,1.044,1.044,0,0,1-.768-.312A1.044,1.044,0,0,1,82.7-.96v-.624A6.877,6.877,0,0,1,80.976-.336,5.9,5.9,0,0,1,78.192.24Zm.816-1.92a4.248,4.248,0,0,0,2.112-.552A5.825,5.825,0,0,0,82.7-3.48V-5.5H80.088a6.66,6.66,0,0,0-2.652.432A1.5,1.5,0,0,0,76.464-3.6,1.9,1.9,0,0,0,77-2.256,2.713,2.713,0,0,0,79.008-1.68ZM89.64.12a1.044,1.044,0,0,1-.768-.312A1.044,1.044,0,0,1,88.56-.96v-10.3a1.084,1.084,0,0,1,.312-.78,1.024,1.024,0,0,1,.768-.324,1.063,1.063,0,0,1,.78.324,1.063,1.063,0,0,1,.324.78v1.032a7.717,7.717,0,0,1,1.584-1.56,3.56,3.56,0,0,1,2.184-.7h.12a1,1,0,0,1,.756.312,1.066,1.066,0,0,1,.3.768.966.966,0,0,1-.312.744,1.122,1.122,0,0,1-.792.288h-.12a4.009,4.009,0,0,0-2.136.588,5.055,5.055,0,0,0-1.584,1.524v7.3a1.024,1.024,0,0,1-.324.768A1.084,1.084,0,0,1,89.64.12Zm12.987.12a6.128,6.128,0,0,1-4.572-1.668A6.4,6.4,0,0,1,96.411-6.12a8,8,0,0,1,.6-3.084,5.382,5.382,0,0,1,1.872-2.364,5.468,5.468,0,0,1,3.264-.912,5.48,5.48,0,0,1,3.12.852,5.51,5.51,0,0,1,1.932,2.22,6.758,6.758,0,0,1,.66,2.976,1.066,1.066,0,0,1-.3.768,1.063,1.063,0,0,1-.8.312H98.619a4.076,4.076,0,0,0,1.224,2.58,4.18,4.18,0,0,0,2.976.972,7,7,0,0,0,1.824-.2,7.726,7.726,0,0,0,1.416-.54.953.953,0,0,1,.432-.1.963.963,0,0,1,.672.264.872.872,0,0,1,.288.672.811.811,0,0,1-.18.516,1.432,1.432,0,0,1-.444.372,8.993,8.993,0,0,1-1.716.756A8.3,8.3,0,0,1,102.627.24ZM98.619-7.128h7.08a3.7,3.7,0,0,0-.636-2.016,3.441,3.441,0,0,0-1.356-1.128,3.75,3.75,0,0,0-1.56-.36,3.75,3.75,0,0,0-1.56.36,3.354,3.354,0,0,0-1.344,1.128A3.763,3.763,0,0,0,98.619-7.128Z" transform="translate(3340.931 -3418.952)" fill="#ee4392"/>
    <rect id="Rectangle_24" data-name="Rectangle 24" width="33.895" height="33.895" rx="16.947" transform="translate(3297.129 -3438.395)" fill="#ff9dda"/>
    <path id="Path_22" data-name="Path 22" d="M23.176,0h0a5.566,5.566,0,0,1,5.562,5.569V35.345H23.169A5.572,5.572,0,0,1,17.6,29.777V5.569A5.582,5.582,0,0,1,23.176,0Z" transform="translate(3279.522 -3450.502)" fill="url(#linear-gradient)"/>
    <path id="Path_23" data-name="Path 23" d="M5.569,0h5.569V29.777a5.572,5.572,0,0,1-5.569,5.569h0A5.572,5.572,0,0,1,0,29.777V5.569A5.572,5.572,0,0,1,5.569,0Z" transform="translate(3320.367 -3438.395) rotate(90)" fill="#ff9dda"/>
  </g>
</svg>
