<svg xmlns="http://www.w3.org/2000/svg" xmlns:xlink="http://www.w3.org/1999/xlink" width="203.969" height="46.002" viewBox="0 0 203.969 46.002">
  <defs>
    <linearGradient id="linear-gradient" x1="0.501" y1="1" x2="0.501" gradientUnits="objectBoundingBox">
      <stop offset="0" stop-color="#0071bc"/>
      <stop offset="0.16" stop-color="#0578be"/>
      <stop offset="0.4" stop-color="#148ec5"/>
      <stop offset="0.7" stop-color="#2cb2d0"/>
      <stop offset="1" stop-color="#4adede"/>
    </linearGradient>
    <linearGradient id="linear-gradient-2" x1="0.5" y1="0.973" x2="0.5" y2="0.114" gradientUnits="objectBoundingBox">
      <stop offset="0" stop-color="#4adede"/>
      <stop offset="0.03" stop-color="#45d7dc"/>
      <stop offset="0.23" stop-color="#2cb3d0"/>
      <stop offset="0.42" stop-color="#1996c7"/>
      <stop offset="0.62" stop-color="#0b81c1"/>
      <stop offset="0.81" stop-color="#0275bd"/>
      <stop offset="1" stop-color="#0071bc"/>
    </linearGradient>
  </defs>
  <g id="Group_225" data-name="Group 225" transform="translate(-3285 3345)">
    <path id="Path_98" data-name="Path 98" d="M2.976.12a1.044,1.044,0,0,1-.768-.312A1.044,1.044,0,0,1,1.9-.96v-10.3a1.084,1.084,0,0,1,.312-.78,1.024,1.024,0,0,1,.768-.324,1.063,1.063,0,0,1,.78.324,1.063,1.063,0,0,1,.324.78v.984a7.033,7.033,0,0,1,.852-.984A4.536,4.536,0,0,1,6.24-12.12a4.621,4.621,0,0,1,1.92-.36,3.574,3.574,0,0,1,2.364.768,4.406,4.406,0,0,1,1.308,1.7,7.552,7.552,0,0,1,.816-1.032,4.693,4.693,0,0,1,1.4-1.008,4.949,4.949,0,0,1,2.2-.432,3.584,3.584,0,0,1,2.3.708,4.115,4.115,0,0,1,1.3,1.764,5.884,5.884,0,0,1,.408,2.136V-.96a1.024,1.024,0,0,1-.324.768,1.084,1.084,0,0,1-.78.312,1.044,1.044,0,0,1-.768-.312,1.044,1.044,0,0,1-.312-.768V-7.44a3.9,3.9,0,0,0-.54-2.268,2.189,2.189,0,0,0-1.908-.756,3.256,3.256,0,0,0-1.56.348,3.846,3.846,0,0,0-1.1.876,8.093,8.093,0,0,0-.792,1.08v7.2a1.024,1.024,0,0,1-.324.768,1.084,1.084,0,0,1-.78.312A1.044,1.044,0,0,1,10.3-.192,1.044,1.044,0,0,1,9.984-.96V-7.44a3.9,3.9,0,0,0-.54-2.268,2.189,2.189,0,0,0-1.908-.756,3.256,3.256,0,0,0-1.56.348,3.846,3.846,0,0,0-1.1.876A8.093,8.093,0,0,0,4.08-8.16v7.2a1.024,1.024,0,0,1-.324.768A1.084,1.084,0,0,1,2.976.12ZM29.4.24a6.128,6.128,0,0,1-4.572-1.668A6.4,6.4,0,0,1,23.184-6.12a8,8,0,0,1,.6-3.084,5.382,5.382,0,0,1,1.872-2.364,5.468,5.468,0,0,1,3.264-.912,5.48,5.48,0,0,1,3.12.852,5.51,5.51,0,0,1,1.932,2.22,6.758,6.758,0,0,1,.66,2.976,1.066,1.066,0,0,1-.3.768,1.063,1.063,0,0,1-.8.312H25.392a4.076,4.076,0,0,0,1.224,2.58,4.18,4.18,0,0,0,2.976.972A7,7,0,0,0,31.416-2a7.726,7.726,0,0,0,1.416-.54.953.953,0,0,1,.432-.1.963.963,0,0,1,.672.264.872.872,0,0,1,.288.672.811.811,0,0,1-.18.516,1.432,1.432,0,0,1-.444.372,8.993,8.993,0,0,1-1.716.756A8.3,8.3,0,0,1,29.4.24ZM25.392-7.128h7.08a3.7,3.7,0,0,0-.636-2.016,3.441,3.441,0,0,0-1.356-1.128,3.75,3.75,0,0,0-1.56-.36,3.75,3.75,0,0,0-1.56.36,3.354,3.354,0,0,0-1.344,1.128A3.764,3.764,0,0,0,25.392-7.128ZM42.576.24A5.609,5.609,0,0,1,39.8-.5a5.886,5.886,0,0,1-2.184-2.16,6.589,6.589,0,0,1-.852-3.456,6.589,6.589,0,0,1,.852-3.456,5.886,5.886,0,0,1,2.184-2.16,5.609,5.609,0,0,1,2.772-.744,5.239,5.239,0,0,1,2.28.48,6.119,6.119,0,0,1,1.824,1.344v-5.88A1.052,1.052,0,0,1,47-17.328a1.084,1.084,0,0,1,.78-.312,1.044,1.044,0,0,1,.768.312,1.073,1.073,0,0,1,.312.792V-.96a1.044,1.044,0,0,1-.312.768,1.044,1.044,0,0,1-.768.312A1.084,1.084,0,0,1,47-.192,1.024,1.024,0,0,1,46.68-.96v-.624A6.119,6.119,0,0,1,44.856-.24,5.239,5.239,0,0,1,42.576.24Zm.312-2.04a4.439,4.439,0,0,0,2.136-.516A6.127,6.127,0,0,0,46.68-3.6V-8.64a6.127,6.127,0,0,0-1.656-1.284,4.439,4.439,0,0,0-2.136-.516,3.867,3.867,0,0,0-2.82,1.092A4.321,4.321,0,0,0,38.952-6.12,4.329,4.329,0,0,0,40.068-2.9,3.844,3.844,0,0,0,42.888-1.8Zm10.8-12.936a1.178,1.178,0,0,1-.864-.36,1.178,1.178,0,0,1-.36-.864v-.1a1.178,1.178,0,0,1,.36-.864,1.178,1.178,0,0,1,.864-.36h.144a1.178,1.178,0,0,1,.864.36,1.178,1.178,0,0,1,.36.864v.1a1.178,1.178,0,0,1-.36.864,1.178,1.178,0,0,1-.864.36ZM53.736.12a1.044,1.044,0,0,1-.768-.312,1.044,1.044,0,0,1-.312-.768v-10.3a1.073,1.073,0,0,1,.312-.792,1.044,1.044,0,0,1,.768-.312,1.073,1.073,0,0,1,.792.312,1.073,1.073,0,0,1,.312.792V-.96a1.044,1.044,0,0,1-.312.768A1.073,1.073,0,0,1,53.736.12ZM59.9.12a1.044,1.044,0,0,1-.768-.312,1.044,1.044,0,0,1-.312-.768V-15.768a1.084,1.084,0,0,1,.312-.78,1.024,1.024,0,0,1,.768-.324,1.063,1.063,0,0,1,.78.324,1.063,1.063,0,0,1,.324.78v6.384h9.1v-6.384a1.084,1.084,0,0,1,.312-.78,1.024,1.024,0,0,1,.768-.324,1.063,1.063,0,0,1,.78.324,1.063,1.063,0,0,1,.324.78V-.96a1.024,1.024,0,0,1-.324.768,1.084,1.084,0,0,1-.78.312,1.044,1.044,0,0,1-.768-.312A1.044,1.044,0,0,1,70.1-.96V-7.344h-9.1V-.96a1.024,1.024,0,0,1-.324.768A1.084,1.084,0,0,1,59.9.12ZM81.339.24a6.362,6.362,0,0,1-3.24-.8A5.5,5.5,0,0,1,75.951-2.8,7,7,0,0,1,75.2-6.12a7,7,0,0,1,.756-3.324A5.5,5.5,0,0,1,78.1-11.676a6.362,6.362,0,0,1,3.24-.8,6.3,6.3,0,0,1,3.228.8,5.6,5.6,0,0,1,2.148,2.232,6.912,6.912,0,0,1,.768,3.324A6.912,6.912,0,0,1,86.715-2.8,5.6,5.6,0,0,1,84.567-.564,6.3,6.3,0,0,1,81.339.24Zm0-1.992a4.229,4.229,0,0,0,1.824-.432,3.646,3.646,0,0,0,1.524-1.4A4.741,4.741,0,0,0,85.3-6.144a4.678,4.678,0,0,0-.612-2.544,3.584,3.584,0,0,0-1.524-1.38,4.328,4.328,0,0,0-1.824-.42,4.408,4.408,0,0,0-1.836.42,3.5,3.5,0,0,0-1.524,1.38,4.752,4.752,0,0,0-.6,2.544,4.816,4.816,0,0,0,.6,2.556,3.555,3.555,0,0,0,1.524,1.4A4.306,4.306,0,0,0,81.339-1.752ZM94.491.24A9.173,9.173,0,0,1,92.1-.048a8.827,8.827,0,0,1-1.98-.792.917.917,0,0,1-.408-.792.977.977,0,0,1,.264-.66.856.856,0,0,1,.672-.3,1.056,1.056,0,0,1,.432.1,10.256,10.256,0,0,0,1.428.5,6.924,6.924,0,0,0,1.836.216,3.61,3.61,0,0,0,2.028-.444,1.446,1.446,0,0,0,.636-1.26A.9.9,0,0,0,96.5-4.3a5.479,5.479,0,0,0-1.344-.492q-.828-.2-1.74-.432a9.184,9.184,0,0,1-1.74-.624,3.591,3.591,0,0,1-1.344-1.08,2.85,2.85,0,0,1-.516-1.764A3.527,3.527,0,0,1,90.987-11.4a5.021,5.021,0,0,1,3.5-1.08,9.867,9.867,0,0,1,1.86.168,11.093,11.093,0,0,1,1.62.432.882.882,0,0,1,.516.372.988.988,0,0,1,.18.54.941.941,0,0,1-.276.672.909.909,0,0,1-.684.288,1.034,1.034,0,0,1-.168-.012.947.947,0,0,1-.144-.036,8.792,8.792,0,0,0-1.26-.312,8.549,8.549,0,0,0-1.476-.12,3.663,3.663,0,0,0-2.04.48,1.41,1.41,0,0,0-.72,1.2,1.079,1.079,0,0,0,.516.96,4.393,4.393,0,0,0,1.344.54q.828.2,1.752.42a8.567,8.567,0,0,1,1.752.612,3.543,3.543,0,0,1,1.344,1.092,3.075,3.075,0,0,1,.516,1.872A3.254,3.254,0,0,1,97.959-.8,5.049,5.049,0,0,1,94.491.24Zm8.64,5.4a1.024,1.024,0,0,1-.768-.324,1.084,1.084,0,0,1-.312-.78V-11.28a1.044,1.044,0,0,1,.312-.768,1.044,1.044,0,0,1,.768-.312,1.073,1.073,0,0,1,.792.312,1.044,1.044,0,0,1,.312.768v.624A6.426,6.426,0,0,1,106.083-12a5.182,5.182,0,0,1,2.256-.48,5.587,5.587,0,0,1,2.784.744,5.915,5.915,0,0,1,2.172,2.16,6.589,6.589,0,0,1,.852,3.456,6.589,6.589,0,0,1-.852,3.456A5.915,5.915,0,0,1,111.123-.5a5.587,5.587,0,0,1-2.784.744,5.182,5.182,0,0,1-2.256-.48,6.426,6.426,0,0,1-1.848-1.344v6.12a1.084,1.084,0,0,1-.312.78A1.052,1.052,0,0,1,103.131,5.64Zm4.9-7.44a3.844,3.844,0,0,0,2.82-1.1,4.329,4.329,0,0,0,1.116-3.216,4.321,4.321,0,0,0-1.116-3.228,3.867,3.867,0,0,0-2.82-1.092,4.439,4.439,0,0,0-2.136.516,6.127,6.127,0,0,0-1.656,1.284V-3.6a6.127,6.127,0,0,0,1.656,1.284A4.439,4.439,0,0,0,108.027-1.8Zm10.2-12.936a1.178,1.178,0,0,1-.864-.36,1.178,1.178,0,0,1-.36-.864v-.1a1.178,1.178,0,0,1,.36-.864,1.178,1.178,0,0,1,.864-.36h.144a1.178,1.178,0,0,1,.864.36,1.178,1.178,0,0,1,.36.864v.1a1.178,1.178,0,0,1-.36.864,1.178,1.178,0,0,1-.864.36ZM118.275.12a1.044,1.044,0,0,1-.768-.312A1.044,1.044,0,0,1,117.2-.96v-10.3a1.073,1.073,0,0,1,.312-.792,1.044,1.044,0,0,1,.768-.312,1.073,1.073,0,0,1,.792.312,1.073,1.073,0,0,1,.312.792V-.96a1.044,1.044,0,0,1-.312.768A1.073,1.073,0,0,1,118.275.12Zm9.12.12a7.348,7.348,0,0,1-1.02-.084,3.5,3.5,0,0,1-1.152-.384,2.449,2.449,0,0,1-.948-.948,3.428,3.428,0,0,1-.384-1.752v-7.44h-1.7a.4.4,0,0,1-.456-.456.5.5,0,0,1,.216-.408l3.264-3.192a1.8,1.8,0,0,1,.156-.132.4.4,0,0,1,.252-.084.423.423,0,0,1,.324.144.482.482,0,0,1,.132.336v1.92h2.712a.91.91,0,0,1,.672.264.91.91,0,0,1,.264.672.921.921,0,0,1-.264.66.89.89,0,0,1-.672.276h-2.712V-3.12a1.552,1.552,0,0,0,.264,1.008,1.031,1.031,0,0,0,.636.372,4.2,4.2,0,0,0,.66.06,2.5,2.5,0,0,0,.852-.108,1.6,1.6,0,0,1,.588-.108.868.868,0,0,1,.6.24.8.8,0,0,1,.264.624.908.908,0,0,1-.552.84,5.449,5.449,0,0,1-.924.312A4.5,4.5,0,0,1,127.4.24Zm8.064,0a4.407,4.407,0,0,1-1.932-.432,3.549,3.549,0,0,1-1.44-1.236,3.384,3.384,0,0,1-.54-1.932,3.432,3.432,0,0,1,1.356-2.8,6.577,6.577,0,0,1,4.164-1.092h2.9V-7.44a2.89,2.89,0,0,0-.792-2.292,3.638,3.638,0,0,0-2.424-.684,7.674,7.674,0,0,0-1.764.18q-.756.18-1.428.4a1.349,1.349,0,0,1-.312.048.853.853,0,0,1-.624-.264.881.881,0,0,1-.264-.648.926.926,0,0,1,.624-.912,12.073,12.073,0,0,1,1.86-.612,9.574,9.574,0,0,1,2.292-.252,5.28,5.28,0,0,1,2.856.7,4.336,4.336,0,0,1,1.632,1.776,5.075,5.075,0,0,1,.528,2.256V-.96a1.024,1.024,0,0,1-.324.768,1.084,1.084,0,0,1-.78.312,1.044,1.044,0,0,1-.768-.312,1.044,1.044,0,0,1-.312-.768v-.624a6.877,6.877,0,0,1-1.728,1.248A5.9,5.9,0,0,1,135.459.24Zm.816-1.92a4.248,4.248,0,0,0,2.112-.552,5.825,5.825,0,0,0,1.584-1.248V-5.5h-2.616a6.66,6.66,0,0,0-2.652.432,1.5,1.5,0,0,0-.972,1.464,1.9,1.9,0,0,0,.54,1.344A2.713,2.713,0,0,0,136.275-1.68ZM146.907.12a1.044,1.044,0,0,1-.768-.312,1.044,1.044,0,0,1-.312-.768V-16.536a1.073,1.073,0,0,1,.312-.792,1.044,1.044,0,0,1,.768-.312,1.073,1.073,0,0,1,.792.312,1.073,1.073,0,0,1,.312.792V-.96a1.044,1.044,0,0,1-.312.768A1.073,1.073,0,0,1,146.907.12Z" transform="translate(3340.957 -3313.45)" fill="#00d1c1"/>
    <rect id="Rectangle_25" data-name="Rectangle 25" width="33.895" height="33.895" rx="16.947" transform="translate(3297.107 -3332.893)" fill="#0071bc"/>
    <path id="Path_24" data-name="Path 24" d="M23.176,0h0a5.566,5.566,0,0,1,5.562,5.569V35.345H23.169A5.572,5.572,0,0,1,17.6,29.777V5.569A5.582,5.582,0,0,1,23.176,0Z" transform="translate(3279.5 -3345)" fill="url(#linear-gradient)"/>
    <path id="Path_25" data-name="Path 25" d="M5.569,0h5.569V29.777a5.572,5.572,0,0,1-5.569,5.569h0A5.572,5.572,0,0,1,0,29.777V5.569A5.572,5.572,0,0,1,5.569,0Z" transform="translate(3320.345 -3332.893) rotate(90)" fill="url(#linear-gradient-2)"/>
  </g>
</svg>
