<svg xmlns="http://www.w3.org/2000/svg" xmlns:xlink="http://www.w3.org/1999/xlink" width="165.887" height="46.002" viewBox="0 0 165.887 46.002">
  <defs>
    <linearGradient id="linear-gradient" x1="0.501" y1="1" x2="0.501" gradientUnits="objectBoundingBox">
      <stop offset="0" stop-color="#787ff6"/>
      <stop offset="1" stop-color="#1f2f98"/>
    </linearGradient>
  </defs>
  <g id="Group_223" data-name="Group 223" transform="translate(-3632 3450.502)">
    <rect id="Rectangle_23" data-name="Rectangle 23" width="33.895" height="33.895" rx="16.947" transform="translate(3644.107 -3438.395)" fill="#787ff6"/>
    <path id="Path_99" data-name="Path 99" d="M2.976.12a1.044,1.044,0,0,1-.768-.312A1.044,1.044,0,0,1,1.9-.96v-10.3a1.084,1.084,0,0,1,.312-.78,1.024,1.024,0,0,1,.768-.324,1.063,1.063,0,0,1,.78.324,1.063,1.063,0,0,1,.324.78v.984a7.033,7.033,0,0,1,.852-.984A4.536,4.536,0,0,1,6.24-12.12a4.621,4.621,0,0,1,1.92-.36,3.574,3.574,0,0,1,2.364.768,4.406,4.406,0,0,1,1.308,1.7,7.552,7.552,0,0,1,.816-1.032,4.693,4.693,0,0,1,1.4-1.008,4.949,4.949,0,0,1,2.2-.432,3.584,3.584,0,0,1,2.3.708,4.115,4.115,0,0,1,1.3,1.764,5.884,5.884,0,0,1,.408,2.136V-.96a1.024,1.024,0,0,1-.324.768,1.084,1.084,0,0,1-.78.312,1.044,1.044,0,0,1-.768-.312,1.044,1.044,0,0,1-.312-.768V-7.44a3.9,3.9,0,0,0-.54-2.268,2.189,2.189,0,0,0-1.908-.756,3.256,3.256,0,0,0-1.56.348,3.846,3.846,0,0,0-1.1.876,8.093,8.093,0,0,0-.792,1.08v7.2a1.024,1.024,0,0,1-.324.768,1.084,1.084,0,0,1-.78.312A1.044,1.044,0,0,1,10.3-.192,1.044,1.044,0,0,1,9.984-.96V-7.44a3.9,3.9,0,0,0-.54-2.268,2.189,2.189,0,0,0-1.908-.756,3.256,3.256,0,0,0-1.56.348,3.846,3.846,0,0,0-1.1.876A8.093,8.093,0,0,0,4.08-8.16v7.2a1.024,1.024,0,0,1-.324.768A1.084,1.084,0,0,1,2.976.12ZM29.4.24a6.128,6.128,0,0,1-4.572-1.668A6.4,6.4,0,0,1,23.184-6.12a8,8,0,0,1,.6-3.084,5.382,5.382,0,0,1,1.872-2.364,5.468,5.468,0,0,1,3.264-.912,5.48,5.48,0,0,1,3.12.852,5.51,5.51,0,0,1,1.932,2.22,6.758,6.758,0,0,1,.66,2.976,1.066,1.066,0,0,1-.3.768,1.063,1.063,0,0,1-.8.312H25.392a4.076,4.076,0,0,0,1.224,2.58,4.18,4.18,0,0,0,2.976.972A7,7,0,0,0,31.416-2a7.726,7.726,0,0,0,1.416-.54.953.953,0,0,1,.432-.1.963.963,0,0,1,.672.264.872.872,0,0,1,.288.672.811.811,0,0,1-.18.516,1.432,1.432,0,0,1-.444.372,8.993,8.993,0,0,1-1.716.756A8.3,8.3,0,0,1,29.4.24ZM25.392-7.128h7.08a3.7,3.7,0,0,0-.636-2.016,3.441,3.441,0,0,0-1.356-1.128,3.75,3.75,0,0,0-1.56-.36,3.75,3.75,0,0,0-1.56.36,3.354,3.354,0,0,0-1.344,1.128A3.764,3.764,0,0,0,25.392-7.128ZM42.576.24A5.609,5.609,0,0,1,39.8-.5a5.886,5.886,0,0,1-2.184-2.16,6.589,6.589,0,0,1-.852-3.456,6.589,6.589,0,0,1,.852-3.456,5.886,5.886,0,0,1,2.184-2.16,5.609,5.609,0,0,1,2.772-.744,5.239,5.239,0,0,1,2.28.48,6.119,6.119,0,0,1,1.824,1.344v-5.88A1.052,1.052,0,0,1,47-17.328a1.084,1.084,0,0,1,.78-.312,1.044,1.044,0,0,1,.768.312,1.073,1.073,0,0,1,.312.792V-.96a1.044,1.044,0,0,1-.312.768,1.044,1.044,0,0,1-.768.312A1.084,1.084,0,0,1,47-.192,1.024,1.024,0,0,1,46.68-.96v-.624A6.119,6.119,0,0,1,44.856-.24,5.239,5.239,0,0,1,42.576.24Zm.312-2.04a4.439,4.439,0,0,0,2.136-.516A6.127,6.127,0,0,0,46.68-3.6V-8.64a6.127,6.127,0,0,0-1.656-1.284,4.439,4.439,0,0,0-2.136-.516,3.867,3.867,0,0,0-2.82,1.092A4.321,4.321,0,0,0,38.952-6.12,4.329,4.329,0,0,0,40.068-2.9,3.844,3.844,0,0,0,42.888-1.8Zm10.8-12.936a1.178,1.178,0,0,1-.864-.36,1.178,1.178,0,0,1-.36-.864v-.1a1.178,1.178,0,0,1,.36-.864,1.178,1.178,0,0,1,.864-.36h.144a1.178,1.178,0,0,1,.864.36,1.178,1.178,0,0,1,.36.864v.1a1.178,1.178,0,0,1-.36.864,1.178,1.178,0,0,1-.864.36ZM53.736.12a1.044,1.044,0,0,1-.768-.312,1.044,1.044,0,0,1-.312-.768v-10.3a1.073,1.073,0,0,1,.312-.792,1.044,1.044,0,0,1,.768-.312,1.073,1.073,0,0,1,.792.312,1.073,1.073,0,0,1,.312.792V-.96a1.044,1.044,0,0,1-.312.768A1.073,1.073,0,0,1,53.736.12ZM59.9,0a1.044,1.044,0,0,1-.768-.312,1.044,1.044,0,0,1-.312-.768V-15.648a1.084,1.084,0,0,1,.312-.78,1.024,1.024,0,0,1,.768-.324h4.824a8.856,8.856,0,0,1,3.744.732,7.766,7.766,0,0,1,2.64,1.944,8.135,8.135,0,0,1,1.572,2.7,9.1,9.1,0,0,1,.516,3,9.1,9.1,0,0,1-.516,3,8.135,8.135,0,0,1-1.572,2.7,7.766,7.766,0,0,1-2.64,1.944A8.856,8.856,0,0,1,64.728,0Zm1.1-2.04h3.456a7.194,7.194,0,0,0,3.492-.8,5.671,5.671,0,0,0,2.28-2.232,6.611,6.611,0,0,0,.8-3.3,6.611,6.611,0,0,0-.8-3.3,5.671,5.671,0,0,0-2.28-2.232,7.194,7.194,0,0,0-3.492-.8H61.008ZM80.958.24a6.128,6.128,0,0,1-4.572-1.668A6.4,6.4,0,0,1,74.742-6.12a8,8,0,0,1,.6-3.084,5.382,5.382,0,0,1,1.872-2.364,5.468,5.468,0,0,1,3.264-.912,5.48,5.48,0,0,1,3.12.852,5.51,5.51,0,0,1,1.932,2.22,6.758,6.758,0,0,1,.66,2.976,1.066,1.066,0,0,1-.3.768,1.063,1.063,0,0,1-.8.312H76.95a4.076,4.076,0,0,0,1.224,2.58A4.18,4.18,0,0,0,81.15-1.8,7,7,0,0,0,82.974-2a7.726,7.726,0,0,0,1.416-.54.953.953,0,0,1,.432-.1.963.963,0,0,1,.672.264.872.872,0,0,1,.288.672.811.811,0,0,1-.18.516,1.432,1.432,0,0,1-.444.372,8.993,8.993,0,0,1-1.716.756A8.3,8.3,0,0,1,80.958.24ZM76.95-7.128h7.08a3.7,3.7,0,0,0-.636-2.016,3.441,3.441,0,0,0-1.356-1.128,3.75,3.75,0,0,0-1.56-.36,3.75,3.75,0,0,0-1.56.36,3.354,3.354,0,0,0-1.344,1.128A3.763,3.763,0,0,0,76.95-7.128ZM90.15.12a1.044,1.044,0,0,1-.768-.312A1.044,1.044,0,0,1,89.07-.96v-10.3a1.073,1.073,0,0,1,.312-.792,1.044,1.044,0,0,1,.768-.312,1.084,1.084,0,0,1,.78.312,1.052,1.052,0,0,1,.324.792v.984A9.468,9.468,0,0,1,93.066-11.8a4.749,4.749,0,0,1,2.652-.684,4.12,4.12,0,0,1,2.328.636,4.1,4.1,0,0,1,1.464,1.7,5.47,5.47,0,0,1,.5,2.364V-.96a1.024,1.024,0,0,1-.324.768,1.084,1.084,0,0,1-.78.312,1.044,1.044,0,0,1-.768-.312A1.044,1.044,0,0,1,97.83-.96V-7.536a3.4,3.4,0,0,0-.612-2.148,2.425,2.425,0,0,0-2.028-.78,3.741,3.741,0,0,0-2.256.7,8.438,8.438,0,0,0-1.68,1.608v7.2a1.024,1.024,0,0,1-.324.768A1.084,1.084,0,0,1,90.15.12Zm17.235.12a7.348,7.348,0,0,1-1.02-.084,3.5,3.5,0,0,1-1.152-.384,2.449,2.449,0,0,1-.948-.948,3.428,3.428,0,0,1-.384-1.752v-7.44h-1.7a.4.4,0,0,1-.456-.456.5.5,0,0,1,.216-.408l3.264-3.192a1.8,1.8,0,0,1,.156-.132.4.4,0,0,1,.252-.084.423.423,0,0,1,.324.144.482.482,0,0,1,.132.336v1.92h2.712a.91.91,0,0,1,.672.264.91.91,0,0,1,.264.672.921.921,0,0,1-.264.66.89.89,0,0,1-.672.276h-2.712V-3.12a1.552,1.552,0,0,0,.264,1.008,1.031,1.031,0,0,0,.636.372,4.2,4.2,0,0,0,.66.06,2.5,2.5,0,0,0,.852-.108,1.6,1.6,0,0,1,.588-.108.868.868,0,0,1,.6.24.8.8,0,0,1,.264.624.908.908,0,0,1-.552.84,5.45,5.45,0,0,1-.924.312A4.5,4.5,0,0,1,107.386.24Z" transform="translate(3687.957 -3418.952)" fill="#1f2f98"/>
    <path id="Path_20" data-name="Path 20" d="M23.176,0h0a5.566,5.566,0,0,1,5.562,5.569V35.345H23.169A5.572,5.572,0,0,1,17.6,29.777V5.569A5.582,5.582,0,0,1,23.176,0Z" transform="translate(3626.5 -3450.502)" fill="url(#linear-gradient)"/>
    <path id="Path_21" data-name="Path 21" d="M5.569,0h5.569V29.777a5.572,5.572,0,0,1-5.569,5.569h0A5.572,5.572,0,0,1,0,29.777V5.569A5.572,5.572,0,0,1,5.569,0Z" transform="translate(3667.345 -3438.395) rotate(90)" fill="#787ff6"/>
  </g>
</svg>
