<svg id="Layer_1" data-name="Layer 1" xmlns="http://www.w3.org/2000/svg" xmlns:xlink="http://www.w3.org/1999/xlink" width="207.22" height="37.68" viewBox="0 0 207.22 37.68">
  <defs>
    <linearGradient id="linear-gradient" x1="83.115" y1="96.906" x2="84.633" y2="95.077" gradientUnits="objectBoundingBox">
      <stop offset="0" stop-color="#ffcf8b"/>
      <stop offset="1" stop-color="#ff8b79"/>
    </linearGradient>
  </defs>
  <g id="Group_26" data-name="Group 26">
    <g id="Group_24" data-name="Group 24">
      <path id="Path_30" data-name="Path 30" d="M37.69,0a18.785,18.785,0,0,0-9.42,2.52,18.843,18.843,0,0,1,9.42,16.32H18.85A18.845,18.845,0,1,0,37.69,0Z" fill="#ccc"/>
      <path id="Path_31" data-name="Path 31" d="M28.27,2.52a18.843,18.843,0,0,0-9.42,16.32H37.69A18.819,18.819,0,0,0,28.27,2.52Z" fill="url(#linear-gradient)"/>
      <path id="Path_32" data-name="Path 32" d="M28.27,2.52a18.843,18.843,0,0,1,9.42,16.32H18.85a18.843,18.843,0,0,0,9.42,16.32,18.84,18.84,0,1,1,0-32.64Z" fill="#e6e6e6"/>
    </g>
    <g id="Group_25" data-name="Group 25">
      <path id="Path_33" data-name="Path 33" d="M84.53,8.53l7.42,20.38v.25H87.14l-1.66-4.94H77.84l-1.62,4.94H71.47v-.25L78.89,8.53h5.64ZM79.05,20.6h5.22l-2.64-7.87Z" fill="#ccc"/>
      <path id="Path_34" data-name="Path 34" d="M95.72,29.11a10.545,10.545,0,0,1-3.01-1.48l1.82-2.77a8.031,8.031,0,0,0,4.73,1.6,2.964,2.964,0,0,0,1.55-.32.982.982,0,0,0,.5-.86,1.035,1.035,0,0,0-.19-.62,2,2,0,0,0-.78-.54,11.765,11.765,0,0,0-1.74-.59l-.93-.25a7.332,7.332,0,0,1-3.31-1.66,3.772,3.772,0,0,1-1.01-2.77,3.935,3.935,0,0,1,.73-2.36,4.781,4.781,0,0,1,2.07-1.58,7.914,7.914,0,0,1,3.06-.56,11.351,11.351,0,0,1,5.89,1.56l-1.68,2.77a12.322,12.322,0,0,0-2.23-.92,7.088,7.088,0,0,0-1.93-.25,2.1,2.1,0,0,0-1.21.29.863.863,0,0,0-.4.73.836.836,0,0,0,.16.53,1.377,1.377,0,0,0,.6.38,13.056,13.056,0,0,0,1.37.43l1.06.29a7.888,7.888,0,0,1,3.63,1.78,3.9,3.9,0,0,1,1.14,2.9,4.3,4.3,0,0,1-2.78,4.15,8.7,8.7,0,0,1-3.46.62,12.794,12.794,0,0,1-3.65-.49Z" fill="#ccc"/>
      <path id="Path_35" data-name="Path 35" d="M117.49,28.56a8.409,8.409,0,0,1-4.19,1.05,5.058,5.058,0,0,1-2.17-.46,3.792,3.792,0,0,1-1.63-1.48,4.835,4.835,0,0,1-.63-2.58V18.24h-2.61V14.83h2.61V11.61l4.3-.61v3.82h3.98l-.45,3.41h-3.54v6.18a2.084,2.084,0,0,0,.33,1.34,1.166,1.166,0,0,0,.94.38,3.5,3.5,0,0,0,.86-.11,7.326,7.326,0,0,0,1.02-.37l1.18,2.9Z" fill="#ccc"/>
      <path id="Path_36" data-name="Path 36" d="M129.65,14.64,129.01,19a8.006,8.006,0,0,0-.93-.29,4.567,4.567,0,0,0-.96-.1,3.5,3.5,0,0,0-1.62.4,4.781,4.781,0,0,0-1.55,1.42v8.73h-4.3V14.93l4.3-.41v2.01a4.8,4.8,0,0,1,3.97-2.17,5.106,5.106,0,0,1,1.73.29Z" fill="#ccc"/>
      <path id="Path_37" data-name="Path 37" d="M142.12,15.45a4.305,4.305,0,0,1,1.42,3.61V29.15h-3.66l-.35-1.11a7.862,7.862,0,0,1-2.35,1.21,8.567,8.567,0,0,1-2.44.35,5.221,5.221,0,0,1-2.36-.51,3.762,3.762,0,0,1-1.58-1.42,3.936,3.936,0,0,1-.56-2.09,4.157,4.157,0,0,1,2.49-3.84,15.129,15.129,0,0,1,6.52-1.48v-.35a4.363,4.363,0,0,0-.18-1.4,1.33,1.33,0,0,0-.62-.75,2.668,2.668,0,0,0-1.25-.24,8.8,8.8,0,0,0-4.57,1.62l-1.66-2.61a15.371,15.371,0,0,1,3.36-1.66,11.388,11.388,0,0,1,3.58-.54,6.837,6.837,0,0,1,4.22,1.1Zm-7.01,10.67a1.843,1.843,0,0,0,1.23.37,6.245,6.245,0,0,0,2.91-.86V22.86a8.484,8.484,0,0,0-3.46.73,1.732,1.732,0,0,0-1.1,1.46,1.35,1.35,0,0,0,.42,1.07Z" fill="#ccc"/>
      <path id="Path_38" data-name="Path 38" d="M148.87,26.72a11.67,11.67,0,0,1-2.4-7.72,13.155,13.155,0,0,1,1.34-6.35,8.04,8.04,0,0,1,3.55-3.5,11.338,11.338,0,0,1,4.98-1.07,13.017,13.017,0,0,1,3.57.46,13.912,13.912,0,0,1,3.25,1.42l-1.7,3.34a8.909,8.909,0,0,0-4.93-1.46q-5.415,0-5.41,6.91a7.926,7.926,0,0,0,1.5,5.22,5.252,5.252,0,0,0,4.26,1.78,7.318,7.318,0,0,0,2.46-.37,13.157,13.157,0,0,0,2.21-1.04l1.76,3.18a16.586,16.586,0,0,1-3.36,1.54,11.381,11.381,0,0,1-3.49.53q-5.19,0-7.59-2.88Z" fill="#ccc"/>
      <path id="Path_39" data-name="Path 39" d="M168.04,28.59a6.439,6.439,0,0,1-2.5-2.75,8.922,8.922,0,0,1-.83-3.87,8.207,8.207,0,0,1,1.07-4.43,6.165,6.165,0,0,1,2.82-2.44,9.856,9.856,0,0,1,3.92-.75,7.988,7.988,0,0,1,4.09.97,6.13,6.13,0,0,1,2.5,2.69,9.1,9.1,0,0,1,.83,3.98,8.289,8.289,0,0,1-1.04,4.35,6.058,6.058,0,0,1-2.8,2.48,9.811,9.811,0,0,1-4,.78,7.648,7.648,0,0,1-4.06-1.02Zm6.73-3.39a6.345,6.345,0,0,0,.7-3.23,5.894,5.894,0,0,0-.75-3.28,2.612,2.612,0,0,0-2.32-1.11,2.792,2.792,0,0,0-2.46,1.1,5.783,5.783,0,0,0-.77,3.3,5.851,5.851,0,0,0,.78,3.25,2.657,2.657,0,0,0,2.38,1.18,2.6,2.6,0,0,0,2.43-1.19Z" fill="#ccc"/>
      <path id="Path_40" data-name="Path 40" d="M192.86,14.64,192.22,19a8.006,8.006,0,0,0-.93-.29,4.567,4.567,0,0,0-.96-.1,3.5,3.5,0,0,0-1.62.4,4.781,4.781,0,0,0-1.55,1.42v8.73h-4.3V14.93l4.3-.41v2.01a4.8,4.8,0,0,1,3.97-2.17,5.106,5.106,0,0,1,1.73.29Z" fill="#ccc"/>
      <path id="Path_41" data-name="Path 41" d="M207.09,22.92h-9.17a3.866,3.866,0,0,0,1.18,2.63,3.517,3.517,0,0,0,2.36.84,6.805,6.805,0,0,0,1.97-.29,9.446,9.446,0,0,0,2.04-.92l1.46,2.61a8.991,8.991,0,0,1-2.64,1.34,10.594,10.594,0,0,1-3.25.48,8.941,8.941,0,0,1-3.77-.76,5.875,5.875,0,0,1-2.67-2.44,8.259,8.259,0,0,1-1-4.31,9.575,9.575,0,0,1,.84-4.17,5.918,5.918,0,0,1,2.45-2.66,7.566,7.566,0,0,1,3.81-.91,7.05,7.05,0,0,1,3.58.83,5.346,5.346,0,0,1,2.21,2.26,7.034,7.034,0,0,1,.73,3.25c0,.42-.04,1.17-.13,2.23Zm-8.14-4.95a3.977,3.977,0,0,0-.9,2.15h4.87v-.09a2.993,2.993,0,0,0-.61-2.1,2.169,2.169,0,0,0-1.62-.64,2.32,2.32,0,0,0-1.73.68Z" fill="#ccc"/>
    </g>
  </g>
</svg>
