<svg id="Layer_1" data-name="Layer 1" xmlns="http://www.w3.org/2000/svg" width="176.02" height="39.08" viewBox="0 0 176.02 39.08">
  <g id="Group_29" data-name="Group 29">
    <g id="Group_27" data-name="Group 27">
      <path id="Path_42" data-name="Path 42" d="M16.92,19.54,0,39.08H33.85Z" fill="#ccc"/>
      <path id="Path_43" data-name="Path 43" d="M33.85,0H0L16.92,19.54,33.85,39.08,50.77,19.54Z" fill="#e6e6e6"/>
    </g>
    <g id="Group_28" data-name="Group 28">
      <path id="Path_44" data-name="Path 44" d="M83.79,11.72a5.687,5.687,0,0,1-.04.77,2.4,2.4,0,0,1-.12.51.73.73,0,0,1-.19.29.411.411,0,0,1-.26.09H78.14V29.6a.419.419,0,0,1-.1.28.745.745,0,0,1-.33.2,3.538,3.538,0,0,1-.63.12,8.757,8.757,0,0,1-.99.05,8.891,8.891,0,0,1-.99-.05,3.538,3.538,0,0,1-.63-.12.644.644,0,0,1-.33-.2.419.419,0,0,1-.1-.28V13.38H69a.392.392,0,0,1-.26-.09.855.855,0,0,1-.19-.29,2.4,2.4,0,0,1-.12-.51,5.687,5.687,0,0,1-.04-.77,6.008,6.008,0,0,1,.04-.79,1.9,1.9,0,0,1,.12-.52.6.6,0,0,1,.19-.28.392.392,0,0,1,.26-.09H83.18a.432.432,0,0,1,.26.09.6.6,0,0,1,.19.28,2.365,2.365,0,0,1,.12.52,6.008,6.008,0,0,1,.04.79Z" fill="#ccc"/>
      <path id="Path_45" data-name="Path 45" d="M90.15,11.07a2.188,2.188,0,0,1-.48,1.63,3.841,3.841,0,0,1-3.57.02,2.1,2.1,0,0,1-.46-1.57,2.328,2.328,0,0,1,.47-1.64,2.6,2.6,0,0,1,1.8-.46,2.627,2.627,0,0,1,1.77.44,2.129,2.129,0,0,1,.47,1.58Zm-.3,18.57a.439.439,0,0,1-.09.27.647.647,0,0,1-.32.19,3.147,3.147,0,0,1-.6.12,11.3,11.3,0,0,1-1.9,0,2.522,2.522,0,0,1-.6-.12.73.73,0,0,1-.32-.19.439.439,0,0,1-.09-.27V15.8a.439.439,0,0,1,.09-.27.654.654,0,0,1,.32-.2,2.467,2.467,0,0,1,.6-.13,9.05,9.05,0,0,1,1.9,0,3.053,3.053,0,0,1,.6.13.734.734,0,0,1,.32.2.439.439,0,0,1,.09.27Z" fill="#ccc"/>
      <path id="Path_46" data-name="Path 46" d="M101.96,28.26a4.618,4.618,0,0,1-.09,1.05,1.055,1.055,0,0,1-.23.51,1.073,1.073,0,0,1-.41.26,3.024,3.024,0,0,1-.64.2,5.92,5.92,0,0,1-.79.13,8.108,8.108,0,0,1-.86.05,6.383,6.383,0,0,1-2.02-.29,3.445,3.445,0,0,1-1.42-.91,3.711,3.711,0,0,1-.82-1.55,8.026,8.026,0,0,1-.26-2.21V18.39H92.76c-.2,0-.35-.12-.45-.37a3.49,3.49,0,0,1-.16-1.22,5.53,5.53,0,0,1,.04-.76,1.664,1.664,0,0,1,.12-.49.8.8,0,0,1,.19-.26.5.5,0,0,1,.27-.08h1.65V12.12a.538.538,0,0,1,.08-.28.7.7,0,0,1,.31-.21,2.111,2.111,0,0,1,.61-.12,8.344,8.344,0,0,1,.94-.04,8.849,8.849,0,0,1,.96.04,3.147,3.147,0,0,1,.6.12.7.7,0,0,1,.31.21.468.468,0,0,1,.09.28v3.09h3.02a.5.5,0,0,1,.27.08.536.536,0,0,1,.19.26,2.054,2.054,0,0,1,.12.49,5.53,5.53,0,0,1,.04.76,3.23,3.23,0,0,1-.16,1.22c-.1.24-.25.37-.45.37H98.32V24.9a3.21,3.21,0,0,0,.36,1.7,1.386,1.386,0,0,0,1.28.57,3.15,3.15,0,0,0,.56-.05c.17-.04.31-.08.44-.12s.24-.09.33-.12a.574.574,0,0,1,.24-.05.407.407,0,0,1,.18.05.36.36,0,0,1,.13.22,2.949,2.949,0,0,1,.08.44,4.754,4.754,0,0,1,.04.72Z" fill="#ccc"/>
      <path id="Path_47" data-name="Path 47" d="M116.3,29.68a.388.388,0,0,1-.16.34,1.143,1.143,0,0,1-.49.18,6.252,6.252,0,0,1-.99.05,7.858,7.858,0,0,1-1.02-.05.953.953,0,0,1-.45-.18.438.438,0,0,1-.13-.34v-1.1a6.3,6.3,0,0,1-1.95,1.43,5.685,5.685,0,0,1-2.43.51,6.866,6.866,0,0,1-2.03-.29,4.482,4.482,0,0,1-1.6-.86A3.9,3.9,0,0,1,104,27.96a4.761,4.761,0,0,1-.37-1.96,4.528,4.528,0,0,1,.47-2.11,3.867,3.867,0,0,1,1.42-1.48,6.922,6.922,0,0,1,2.34-.86,16.465,16.465,0,0,1,3.25-.28h1.35v-.84a4.258,4.258,0,0,0-.13-1.14,1.858,1.858,0,0,0-.44-.82,1.772,1.772,0,0,0-.81-.48,4.419,4.419,0,0,0-1.25-.16,6.251,6.251,0,0,0-1.75.22,11.766,11.766,0,0,0-1.36.48q-.585.27-.99.48a1.544,1.544,0,0,1-.65.22.482.482,0,0,1-.3-.11.822.822,0,0,1-.22-.31,1.9,1.9,0,0,1-.13-.5,4.294,4.294,0,0,1-.05-.65,2.984,2.984,0,0,1,.08-.76,1.169,1.169,0,0,1,.3-.51,2.819,2.819,0,0,1,.76-.5,9.465,9.465,0,0,1,1.28-.51,11.581,11.581,0,0,1,1.59-.38,10.429,10.429,0,0,1,1.78-.15,10.706,10.706,0,0,1,2.79.32,4.629,4.629,0,0,1,1.9.98,3.819,3.819,0,0,1,1.09,1.7,7.883,7.883,0,0,1,.34,2.47v9.33Zm-3.84-5.94h-1.49a8.348,8.348,0,0,0-1.62.14,2.956,2.956,0,0,0-1.09.42,1.714,1.714,0,0,0-.61.68,2.059,2.059,0,0,0-.19.91,1.743,1.743,0,0,0,.55,1.37,2.219,2.219,0,0,0,1.53.5,2.9,2.9,0,0,0,1.52-.42,6.384,6.384,0,0,0,1.41-1.23V23.75Z" fill="#ccc"/>
      <path id="Path_48" data-name="Path 48" d="M133.45,29.63a.439.439,0,0,1-.09.27.659.659,0,0,1-.31.19,2.989,2.989,0,0,1-.6.12,8.344,8.344,0,0,1-.94.04,8.849,8.849,0,0,1-.96-.04,2.522,2.522,0,0,1-.6-.12.687.687,0,0,1-.31-.19.439.439,0,0,1-.09-.27V21.71a6.672,6.672,0,0,0-.15-1.59,3.192,3.192,0,0,0-.43-.99,2.011,2.011,0,0,0-.72-.64,2.264,2.264,0,0,0-1.03-.23,2.608,2.608,0,0,0-1.51.54,7.921,7.921,0,0,0-1.59,1.59v9.22a.439.439,0,0,1-.09.27.647.647,0,0,1-.32.19,3.147,3.147,0,0,1-.6.12,11.3,11.3,0,0,1-1.9,0,2.522,2.522,0,0,1-.6-.12.73.73,0,0,1-.32-.19.439.439,0,0,1-.09-.27V15.74a.5.5,0,0,1,.08-.27.513.513,0,0,1,.28-.19,2.68,2.68,0,0,1,.52-.12,5.977,5.977,0,0,1,.8-.04,6.3,6.3,0,0,1,.82.04,1.919,1.919,0,0,1,.5.12.676.676,0,0,1,.26.19.5.5,0,0,1,.08.27v1.6a9.018,9.018,0,0,1,2.34-1.87,5.211,5.211,0,0,1,2.48-.62,5.533,5.533,0,0,1,2.39.47,4.107,4.107,0,0,1,1.57,1.27,5.02,5.02,0,0,1,.86,1.87,10.741,10.741,0,0,1,.26,2.58v8.57Z" fill="#ccc"/>
      <path id="Path_49" data-name="Path 49" d="M141.63,29.6a.419.419,0,0,1-.1.28.745.745,0,0,1-.33.2,3.4,3.4,0,0,1-.62.12,9.925,9.925,0,0,1-1.99,0,3.538,3.538,0,0,1-.63-.12.644.644,0,0,1-.33-.2.419.419,0,0,1-.1-.28v-19a.419.419,0,0,1,.1-.28.729.729,0,0,1,.34-.2,3.538,3.538,0,0,1,.63-.12,8.563,8.563,0,0,1,.98-.05,8.953,8.953,0,0,1,1,.05,3.237,3.237,0,0,1,.62.12.644.644,0,0,1,.33.2.478.478,0,0,1,.1.28v19Z" fill="#ccc"/>
      <path id="Path_50" data-name="Path 50" d="M159.03,29.63a.439.439,0,0,1-.09.27.659.659,0,0,1-.31.19,2.989,2.989,0,0,1-.6.12,8.344,8.344,0,0,1-.94.04,8.849,8.849,0,0,1-.96-.04,2.522,2.522,0,0,1-.6-.12.687.687,0,0,1-.31-.19.439.439,0,0,1-.09-.27V21.71a6.672,6.672,0,0,0-.15-1.59,3.192,3.192,0,0,0-.43-.99,2.011,2.011,0,0,0-.72-.64,2.264,2.264,0,0,0-1.03-.23,2.608,2.608,0,0,0-1.51.54,7.922,7.922,0,0,0-1.59,1.59v9.22a.439.439,0,0,1-.09.27.647.647,0,0,1-.32.19,3.147,3.147,0,0,1-.6.12,11.3,11.3,0,0,1-1.9,0,2.522,2.522,0,0,1-.6-.12.73.73,0,0,1-.32-.19.439.439,0,0,1-.09-.27V15.74a.5.5,0,0,1,.08-.27.513.513,0,0,1,.28-.19,2.68,2.68,0,0,1,.52-.12,5.977,5.977,0,0,1,.8-.04,6.3,6.3,0,0,1,.82.04,1.919,1.919,0,0,1,.5.12.675.675,0,0,1,.26.19.5.5,0,0,1,.08.27v1.6a9.018,9.018,0,0,1,2.34-1.87,5.211,5.211,0,0,1,2.48-.62,5.533,5.533,0,0,1,2.39.47,4.107,4.107,0,0,1,1.57,1.27,5.02,5.02,0,0,1,.86,1.87,10.741,10.741,0,0,1,.26,2.58v8.57Z" fill="#ccc"/>
      <path id="Path_51" data-name="Path 51" d="M176.02,29.63a.547.547,0,0,1-.08.29.536.536,0,0,1-.26.19,1.779,1.779,0,0,1-.51.11c-.21.02-.47.03-.79.03s-.6-.01-.81-.03a1.78,1.78,0,0,1-.5-.11.687.687,0,0,1-.28-.19.452.452,0,0,1-.08-.29V28.09a8.942,8.942,0,0,1-2.25,1.79,5.3,5.3,0,0,1-2.6.64,5.5,5.5,0,0,1-2.68-.61,5.088,5.088,0,0,1-1.79-1.66,7.072,7.072,0,0,1-1-2.43,13.292,13.292,0,0,1-.31-2.93,12.667,12.667,0,0,1,.4-3.33,7.506,7.506,0,0,1,1.16-2.52,5.052,5.052,0,0,1,1.9-1.6,5.891,5.891,0,0,1,2.61-.56,4.706,4.706,0,0,1,2.11.47,7.644,7.644,0,0,1,1.88,1.39V9.23a.538.538,0,0,1,.08-.28.644.644,0,0,1,.31-.21,2.467,2.467,0,0,1,.6-.13,8,8,0,0,1,.95-.05,6.311,6.311,0,0,1,.95.05,3.583,3.583,0,0,1,.59.13.7.7,0,0,1,.31.21.468.468,0,0,1,.09.28v20.4Zm-3.89-9.27a9.115,9.115,0,0,0-1.61-1.62,2.713,2.713,0,0,0-1.61-.56,2.249,2.249,0,0,0-1.31.38,2.862,2.862,0,0,0-.89,1.02,5.674,5.674,0,0,0-.5,1.42,7.782,7.782,0,0,0-.16,1.61,10.323,10.323,0,0,0,.14,1.69,5.28,5.28,0,0,0,.46,1.47,2.711,2.711,0,0,0,.85,1.03,2.262,2.262,0,0,0,1.34.39,2.656,2.656,0,0,0,.79-.12,3.1,3.1,0,0,0,.78-.38,6.01,6.01,0,0,0,.82-.69,13.459,13.459,0,0,0,.92-1.05v-4.6Z" fill="#ccc"/>
    </g>
  </g>
</svg>
