<svg id="Layer_1" data-name="Layer 1" xmlns="http://www.w3.org/2000/svg" width="214.91" height="57.58" viewBox="0 0 214.91 57.58">
  <g id="Group_32" data-name="Group 32">
    <g id="Group_30" data-name="Group 30">
      <path id="Path_52" data-name="Path 52" d="M21.6,0V24.24L47.85,39.4V15.15Z" fill="#e6e6e6"/>
      <path id="Path_53" data-name="Path 53" d="M47.85,39.4,32.1,48.49V30.3Z" fill="#ccc"/>
      <path id="Path_54" data-name="Path 54" d="M26.24,57.58V33.34L0,18.18V42.43Z" fill="#e6e6e6"/>
      <path id="Path_55" data-name="Path 55" d="M0,18.18,15.75,9.09V27.27Z" fill="#ccc"/>
    </g>
    <g id="Group_31" data-name="Group 31">
      <path id="Path_56" data-name="Path 56" d="M85.42,37.91a5.582,5.582,0,0,1,.23.89.548.548,0,0,1-.12.49.971.971,0,0,1-.61.2c-.29.03-.69.04-1.2.04s-.94,0-1.24-.02a4.022,4.022,0,0,1-.68-.09.615.615,0,0,1-.33-.19,1.015,1.015,0,0,1-.16-.33l-1.35-4.04H72.4l-1.27,3.93a1.418,1.418,0,0,1-.16.37.635.635,0,0,1-.33.23,2.6,2.6,0,0,1-.64.12q-.42.03-1.08.03a10.452,10.452,0,0,1-1.12-.05.836.836,0,0,1-.56-.23.634.634,0,0,1-.11-.51,5.187,5.187,0,0,1,.23-.87l6.2-17.85a1.331,1.331,0,0,1,.22-.43.748.748,0,0,1,.4-.25,3.154,3.154,0,0,1,.75-.11c.32-.01.75-.02,1.27-.02.61,0,1.1,0,1.46.02a4.005,4.005,0,0,1,.85.11.822.822,0,0,1,.44.26,1.373,1.373,0,0,1,.22.47l6.22,17.83ZM76.18,23.15h-.02L73.31,31.7h5.71l-2.84-8.55Z" fill="#ccc"/>
      <path id="Path_57" data-name="Path 57" d="M100.81,31.57a1.526,1.526,0,0,1-.32,1.06,1.124,1.124,0,0,1-.88.34H91.17a5.76,5.76,0,0,0,.21,1.61,3.063,3.063,0,0,0,.67,1.23,2.957,2.957,0,0,0,1.18.77,4.962,4.962,0,0,0,1.73.26,9.612,9.612,0,0,0,1.8-.15,11.95,11.95,0,0,0,1.34-.33c.38-.12.69-.23.94-.33a1.723,1.723,0,0,1,.61-.15.375.375,0,0,1,.39.24,1.161,1.161,0,0,1,.08.4,6.03,6.03,0,0,1,.02.64,4.977,4.977,0,0,1-.02.58,3.534,3.534,0,0,1-.05.41,1.1,1.1,0,0,1-.09.29,1.6,1.6,0,0,1-.16.23,1.9,1.9,0,0,1-.55.29,9.259,9.259,0,0,1-1.15.37c-.47.12-1,.22-1.6.31a13.018,13.018,0,0,1-1.93.13,10.244,10.244,0,0,1-3.24-.47,5.643,5.643,0,0,1-2.32-1.42,5.835,5.835,0,0,1-1.39-2.39,11.391,11.391,0,0,1-.46-3.39,10.551,10.551,0,0,1,.48-3.34,7.007,7.007,0,0,1,1.4-2.52,6.046,6.046,0,0,1,2.23-1.58,7.729,7.729,0,0,1,2.96-.54,7.836,7.836,0,0,1,2.98.51,5.461,5.461,0,0,1,2.03,1.42,5.752,5.752,0,0,1,1.17,2.15,9.346,9.346,0,0,1,.37,2.71v.62Zm-3.79-1.12a4.045,4.045,0,0,0-.66-2.59,2.543,2.543,0,0,0-2.18-.94,2.692,2.692,0,0,0-2.22,1.03,3.566,3.566,0,0,0-.56,1.12,5.532,5.532,0,0,0-.23,1.38h5.85Z" fill="#ccc"/>
      <path id="Path_58" data-name="Path 58" d="M112.02,37.54a4.618,4.618,0,0,1-.09,1.05,1.055,1.055,0,0,1-.23.51,1.073,1.073,0,0,1-.41.26,3.023,3.023,0,0,1-.64.2,5.92,5.92,0,0,1-.79.13,8.107,8.107,0,0,1-.86.05,6.383,6.383,0,0,1-2.02-.29,3.445,3.445,0,0,1-1.42-.91,3.711,3.711,0,0,1-.82-1.55,8.026,8.026,0,0,1-.26-2.21V27.67h-1.66c-.2,0-.35-.12-.45-.37a3.49,3.49,0,0,1-.16-1.22,5.53,5.53,0,0,1,.04-.76,1.664,1.664,0,0,1,.12-.49.8.8,0,0,1,.19-.26.5.5,0,0,1,.27-.08h1.65V21.4a.538.538,0,0,1,.08-.28.7.7,0,0,1,.31-.21,2.111,2.111,0,0,1,.61-.12,8.344,8.344,0,0,1,.94-.04,8.848,8.848,0,0,1,.96.04,3.147,3.147,0,0,1,.6.12.7.7,0,0,1,.31.21.468.468,0,0,1,.09.28v3.09h3.02a.5.5,0,0,1,.27.08.536.536,0,0,1,.19.26,2.054,2.054,0,0,1,.12.49,5.53,5.53,0,0,1,.04.76,3.23,3.23,0,0,1-.16,1.22c-.1.24-.25.37-.45.37h-3.03v6.51a3.21,3.21,0,0,0,.36,1.7,1.386,1.386,0,0,0,1.28.57,3.15,3.15,0,0,0,.56-.05c.17-.04.31-.08.44-.12s.24-.09.33-.12a.574.574,0,0,1,.24-.05.407.407,0,0,1,.18.05.36.36,0,0,1,.13.22,2.949,2.949,0,0,1,.08.44,4.754,4.754,0,0,1,.04.72Z" fill="#ccc"/>
      <path id="Path_59" data-name="Path 59" d="M128.1,38.9a.439.439,0,0,1-.09.27.659.659,0,0,1-.31.19,2.989,2.989,0,0,1-.6.12,8.344,8.344,0,0,1-.94.04,8.848,8.848,0,0,1-.96-.04,2.522,2.522,0,0,1-.6-.12.687.687,0,0,1-.31-.19.439.439,0,0,1-.09-.27V30.98a6.672,6.672,0,0,0-.15-1.59,3.191,3.191,0,0,0-.43-.99,2.011,2.011,0,0,0-.72-.64,2.264,2.264,0,0,0-1.03-.23,2.608,2.608,0,0,0-1.51.54,7.921,7.921,0,0,0-1.59,1.59v9.22a.439.439,0,0,1-.09.27.647.647,0,0,1-.32.19,3.147,3.147,0,0,1-.6.12,11.3,11.3,0,0,1-1.9,0,2.522,2.522,0,0,1-.6-.12.73.73,0,0,1-.32-.19.439.439,0,0,1-.09-.27V18.43a.468.468,0,0,1,.09-.28.74.74,0,0,1,.32-.21,2.467,2.467,0,0,1,.6-.13,9.05,9.05,0,0,1,1.9,0,3.053,3.053,0,0,1,.6.13.74.74,0,0,1,.32.21.468.468,0,0,1,.09.28V26.1a7.6,7.6,0,0,1,2.06-1.49,5.061,5.061,0,0,1,2.18-.49,5.533,5.533,0,0,1,2.39.47,4.13,4.13,0,0,1,1.57,1.28,5.113,5.113,0,0,1,.86,1.89,10.982,10.982,0,0,1,.26,2.62v8.51Z" fill="#ccc"/>
      <path id="Path_60" data-name="Path 60" d="M144.75,31.57a1.526,1.526,0,0,1-.32,1.06,1.124,1.124,0,0,1-.88.34h-8.44a5.76,5.76,0,0,0,.21,1.61,3.063,3.063,0,0,0,.67,1.23,2.957,2.957,0,0,0,1.18.77,4.962,4.962,0,0,0,1.73.26,9.612,9.612,0,0,0,1.8-.15,11.949,11.949,0,0,0,1.34-.33c.38-.12.69-.23.94-.33a1.723,1.723,0,0,1,.61-.15.375.375,0,0,1,.39.24,1.161,1.161,0,0,1,.08.4,6.028,6.028,0,0,1,.02.64,4.975,4.975,0,0,1-.02.58,3.532,3.532,0,0,1-.05.41,1.1,1.1,0,0,1-.09.29,1.6,1.6,0,0,1-.16.23,1.9,1.9,0,0,1-.55.29,9.259,9.259,0,0,1-1.15.37c-.47.12-1,.22-1.6.31a13.018,13.018,0,0,1-1.93.13,10.244,10.244,0,0,1-3.24-.47,5.643,5.643,0,0,1-2.32-1.42,5.835,5.835,0,0,1-1.39-2.39,11.391,11.391,0,0,1-.46-3.39,10.551,10.551,0,0,1,.48-3.34,7.007,7.007,0,0,1,1.4-2.52,6.046,6.046,0,0,1,2.23-1.58,7.729,7.729,0,0,1,2.96-.54,7.836,7.836,0,0,1,2.98.51,5.461,5.461,0,0,1,2.03,1.42,5.752,5.752,0,0,1,1.17,2.15,9.346,9.346,0,0,1,.37,2.71v.62Zm-3.79-1.12a4.045,4.045,0,0,0-.66-2.59,2.543,2.543,0,0,0-2.18-.94,2.692,2.692,0,0,0-2.22,1.03,3.566,3.566,0,0,0-.56,1.12,5.531,5.531,0,0,0-.23,1.38h5.85Z" fill="#ccc"/>
      <path id="Path_61" data-name="Path 61" d="M156.88,26.33a8.169,8.169,0,0,1-.03.92,2.835,2.835,0,0,1-.09.56.557.557,0,0,1-.16.28.4.4,0,0,1-.26.08,1.037,1.037,0,0,1-.28-.05c-.1-.04-.22-.08-.35-.12s-.27-.08-.43-.12a2.1,2.1,0,0,0-.51-.05,1.64,1.64,0,0,0-.65.13,3.408,3.408,0,0,0-.68.41,4.029,4.029,0,0,0-.73.75,12.137,12.137,0,0,0-.82,1.15v8.65a.439.439,0,0,1-.09.27.647.647,0,0,1-.32.19,3.147,3.147,0,0,1-.6.12,11.3,11.3,0,0,1-1.9,0,2.523,2.523,0,0,1-.6-.12.73.73,0,0,1-.32-.19.439.439,0,0,1-.09-.27V25.05a.5.5,0,0,1,.08-.27.513.513,0,0,1,.28-.19,2.68,2.68,0,0,1,.52-.12,5.977,5.977,0,0,1,.8-.04,6.3,6.3,0,0,1,.82.04,1.919,1.919,0,0,1,.5.12.675.675,0,0,1,.26.19.5.5,0,0,1,.08.27v1.73a10.184,10.184,0,0,1,1.03-1.28,6.305,6.305,0,0,1,.92-.8,2.856,2.856,0,0,1,.87-.41,3.259,3.259,0,0,1,.87-.12,3.467,3.467,0,0,1,.44.02,4,4,0,0,1,.48.08c.17.04.31.08.44.12a1.079,1.079,0,0,1,.27.15.382.382,0,0,1,.12.17,1.054,1.054,0,0,1,.07.26,3.731,3.731,0,0,1,.05.49c.01.22.02.51.02.89Z" fill="#ccc"/>
      <path id="Path_62" data-name="Path 62" d="M172.91,20.99a5.687,5.687,0,0,1-.04.77,2.4,2.4,0,0,1-.12.51.73.73,0,0,1-.19.29.411.411,0,0,1-.26.09h-5.04V38.87a.419.419,0,0,1-.1.28.744.744,0,0,1-.33.2,3.538,3.538,0,0,1-.63.12,8.757,8.757,0,0,1-.99.05,8.892,8.892,0,0,1-.99-.05,3.538,3.538,0,0,1-.63-.12.644.644,0,0,1-.33-.2.419.419,0,0,1-.1-.28V22.65h-5.04a.392.392,0,0,1-.26-.09.855.855,0,0,1-.19-.29,2.4,2.4,0,0,1-.12-.51,5.687,5.687,0,0,1-.04-.77,6.008,6.008,0,0,1,.04-.79,1.9,1.9,0,0,1,.12-.52.6.6,0,0,1,.19-.28.392.392,0,0,1,.26-.09H172.3a.432.432,0,0,1,.26.09.6.6,0,0,1,.19.28,2.364,2.364,0,0,1,.12.52,6.008,6.008,0,0,1,.04.79Z" fill="#ccc"/>
      <path id="Path_63" data-name="Path 63" d="M185.12,31.57a1.526,1.526,0,0,1-.32,1.06,1.124,1.124,0,0,1-.88.34h-8.44a5.76,5.76,0,0,0,.21,1.61,3.063,3.063,0,0,0,.67,1.23,2.957,2.957,0,0,0,1.18.77,4.962,4.962,0,0,0,1.73.26,9.612,9.612,0,0,0,1.8-.15,11.949,11.949,0,0,0,1.34-.33c.38-.12.69-.23.94-.33a1.723,1.723,0,0,1,.61-.15.375.375,0,0,1,.39.24,1.161,1.161,0,0,1,.08.4,6.028,6.028,0,0,1,.02.64,4.975,4.975,0,0,1-.02.58,3.532,3.532,0,0,1-.05.41,1.1,1.1,0,0,1-.09.29,1.6,1.6,0,0,1-.16.23,1.9,1.9,0,0,1-.55.29,9.259,9.259,0,0,1-1.15.37c-.47.12-1,.22-1.6.31a13.018,13.018,0,0,1-1.93.13,10.244,10.244,0,0,1-3.24-.47,5.643,5.643,0,0,1-2.32-1.42,5.835,5.835,0,0,1-1.39-2.39,11.391,11.391,0,0,1-.46-3.39,10.551,10.551,0,0,1,.48-3.34,7.007,7.007,0,0,1,1.4-2.52,6.046,6.046,0,0,1,2.23-1.58,7.729,7.729,0,0,1,2.96-.54,7.836,7.836,0,0,1,2.98.51,5.461,5.461,0,0,1,2.03,1.42,5.752,5.752,0,0,1,1.17,2.15,9.346,9.346,0,0,1,.37,2.71v.62Zm-3.79-1.12a4.045,4.045,0,0,0-.66-2.59,2.543,2.543,0,0,0-2.18-.94,2.692,2.692,0,0,0-2.22,1.03,3.566,3.566,0,0,0-.56,1.12,5.531,5.531,0,0,0-.23,1.38h5.85Z" fill="#ccc"/>
      <path id="Path_64" data-name="Path 64" d="M198.83,36.7a6.751,6.751,0,0,1-.02.68c-.02.18-.04.33-.06.46a2.249,2.249,0,0,1-.09.3,1.1,1.1,0,0,1-.24.29,3.719,3.719,0,0,1-.64.44,6.616,6.616,0,0,1-1.03.46,9.853,9.853,0,0,1-1.25.33,7.117,7.117,0,0,1-1.39.12,7.613,7.613,0,0,1-2.84-.5,5.333,5.333,0,0,1-2.08-1.47,6.572,6.572,0,0,1-1.27-2.37,10.776,10.776,0,0,1-.43-3.2,11.031,11.031,0,0,1,.52-3.6,6.914,6.914,0,0,1,1.45-2.51,5.822,5.822,0,0,1,2.21-1.48,7.875,7.875,0,0,1,2.8-.48,7.007,7.007,0,0,1,1.22.11,6.332,6.332,0,0,1,1.12.3,5.007,5.007,0,0,1,.93.42,3.244,3.244,0,0,1,.58.4,1.722,1.722,0,0,1,.24.29,1.046,1.046,0,0,1,.11.3,2.583,2.583,0,0,1,.06.46,6.434,6.434,0,0,1,.02.66,3.467,3.467,0,0,1-.16,1.27c-.1.24-.24.37-.4.37a.93.93,0,0,1-.56-.22c-.2-.15-.43-.31-.7-.48a4.773,4.773,0,0,0-.96-.48,3.583,3.583,0,0,0-1.34-.22,2.653,2.653,0,0,0-2.33,1.17,6.049,6.049,0,0,0-.81,3.44,8.853,8.853,0,0,0,.2,1.97,3.981,3.981,0,0,0,.6,1.43,2.508,2.508,0,0,0,1,.86,3.2,3.2,0,0,0,1.39.29,3.676,3.676,0,0,0,1.39-.24,5.41,5.41,0,0,0,1.02-.54c.29-.2.53-.38.73-.54a.866.866,0,0,1,.5-.24.357.357,0,0,1,.23.08.6.6,0,0,1,.15.29,4.3,4.3,0,0,1,.09.54q.03.33.03.84Z" fill="#ccc"/>
      <path id="Path_65" data-name="Path 65" d="M214.91,38.9a.439.439,0,0,1-.09.27.659.659,0,0,1-.31.19,2.989,2.989,0,0,1-.6.12,8.344,8.344,0,0,1-.94.04,8.848,8.848,0,0,1-.96-.04,2.523,2.523,0,0,1-.6-.12.687.687,0,0,1-.31-.19.439.439,0,0,1-.09-.27V30.98a6.672,6.672,0,0,0-.15-1.59,3.192,3.192,0,0,0-.43-.99,2.011,2.011,0,0,0-.72-.64,2.264,2.264,0,0,0-1.03-.23,2.608,2.608,0,0,0-1.51.54,7.922,7.922,0,0,0-1.59,1.59v9.22a.439.439,0,0,1-.09.27.647.647,0,0,1-.32.19,3.147,3.147,0,0,1-.6.12,11.3,11.3,0,0,1-1.9,0,2.523,2.523,0,0,1-.6-.12.73.73,0,0,1-.32-.19.439.439,0,0,1-.09-.27V18.43a.468.468,0,0,1,.09-.28.74.74,0,0,1,.32-.21,2.467,2.467,0,0,1,.6-.13,9.05,9.05,0,0,1,1.9,0,3.053,3.053,0,0,1,.6.13.74.74,0,0,1,.32.21.468.468,0,0,1,.09.28V26.1a7.6,7.6,0,0,1,2.06-1.49,5.061,5.061,0,0,1,2.18-.49,5.533,5.533,0,0,1,2.39.47,4.13,4.13,0,0,1,1.57,1.28,5.113,5.113,0,0,1,.86,1.89,10.982,10.982,0,0,1,.26,2.62v8.51Z" fill="#ccc"/>
    </g>
  </g>
</svg>
