<svg id="Layer_1" data-name="Layer 1" xmlns="http://www.w3.org/2000/svg" width="234.18" height="50.43" viewBox="0 0 234.18 50.43">
  <g id="Group_35" data-name="Group 35">
    <g id="Group_33" data-name="Group 33">
      <path id="Path_66" data-name="Path 66" d="M31.2,50.43H18.72L0,32.42V18.01Z" fill="#ccc"/>
      <path id="Path_67" data-name="Path 67" d="M18.72,0H31.2L49.91,18.01V32.42Z" fill="#ccc"/>
      <path id="Path_68" data-name="Path 68" d="M31.2,0H18.72L0,18.01V32.42Z" fill="#e6e6e6"/>
      <path id="Path_69" data-name="Path 69" d="M18.72,50.43H31.2L49.91,32.42V18.01Z" fill="#e6e6e6"/>
    </g>
    <g id="Group_34" data-name="Group 34">
      <path id="Path_70" data-name="Path 70" d="M85.99,18.6H79.63V36.81H74.59V18.6H68.26V14.51H85.98V18.6Z" fill="#ccc"/>
      <path id="Path_71" data-name="Path 71" d="M102.81,30.25H92.42c.17,2.31,1.62,3.47,4.37,3.47a8.628,8.628,0,0,0,4.62-1.24v3.54a12.092,12.092,0,0,1-5.74,1.18,8.069,8.069,0,0,1-5.99-2.14,8.078,8.078,0,0,1-2.13-5.96,8.674,8.674,0,0,1,2.3-6.28,7.679,7.679,0,0,1,5.66-2.32,7.081,7.081,0,0,1,5.39,2.07,7.965,7.965,0,0,1,1.91,5.61v2.07Zm-4.56-3.02q0-3.42-2.77-3.42a2.632,2.632,0,0,0-2.04.98,4.383,4.383,0,0,0-1.05,2.44Z" fill="#ccc"/>
      <path id="Path_72" data-name="Path 72" d="M117.8,36.23a9.742,9.742,0,0,1-4.8.96,8.122,8.122,0,0,1-5.94-2.22,7.683,7.683,0,0,1-2.27-5.74,8.463,8.463,0,0,1,2.43-6.4,8.99,8.99,0,0,1,6.51-2.34,8.289,8.289,0,0,1,4.07.75v4.17a5.59,5.59,0,0,0-3.44-1.15,4.5,4.5,0,0,0-3.35,1.24,4.635,4.635,0,0,0-1.24,3.41,4.46,4.46,0,0,0,1.18,3.32,4.361,4.361,0,0,0,3.25,1.21,6.46,6.46,0,0,0,3.59-1.15v3.95Z" fill="#ccc"/>
      <path id="Path_73" data-name="Path 73" d="M136.3,36.81h-4.9V27.76q0-3.495-2.55-3.5a2.6,2.6,0,0,0-2.11.98,3.82,3.82,0,0,0-.81,2.49v9.08h-4.91V13.24h4.91V23.25h.06a5.583,5.583,0,0,1,4.9-2.75q5.415,0,5.41,6.53Z" fill="#ccc"/>
      <path id="Path_74" data-name="Path 74" d="M155.57,36.81h-4.9V27.96q0-3.7-2.64-3.7a2.635,2.635,0,0,0-2.1.98,3.719,3.719,0,0,0-.82,2.49v9.08H140.2V20.89h4.91v2.52h.06a5.634,5.634,0,0,1,5.12-2.91c3.52,0,5.29,2.19,5.29,6.56v9.75Z" fill="#ccc"/>
      <path id="Path_75" data-name="Path 75" d="M167.04,37.2a8.56,8.56,0,0,1-6.26-2.23,8.1,8.1,0,0,1-2.28-6.06,8.236,8.236,0,0,1,2.36-6.18,8.932,8.932,0,0,1,6.39-2.23,8.384,8.384,0,0,1,6.22,2.23,7.937,7.937,0,0,1,2.25,5.9,8.444,8.444,0,0,1-2.33,6.27,8.67,8.67,0,0,1-6.37,2.3Zm.12-12.94a3.294,3.294,0,0,0-2.71,1.2,5.3,5.3,0,0,0-.96,3.39q0,4.59,3.7,4.59c2.47,0,3.53-1.57,3.53-4.71,0-2.98-1.19-4.46-3.56-4.46Z" fill="#ccc"/>
      <path id="Path_76" data-name="Path 76" d="M197.71,35.32a16.1,16.1,0,0,1-8.12,1.88c-3.59,0-6.41-.99-8.48-2.98a10.831,10.831,0,0,1-3.1-8.2,11.5,11.5,0,0,1,3.39-8.57,12.348,12.348,0,0,1,9.02-3.31,18.388,18.388,0,0,1,6.25.98v4.71a12.356,12.356,0,0,0-6.31-1.49,6.787,6.787,0,0,0-5.09,2.03,7.459,7.459,0,0,0-1.97,5.42,7.571,7.571,0,0,0,1.76,5.32,6.236,6.236,0,0,0,4.77,1.88,6.657,6.657,0,0,0,2.86-.51V28.13h-4.46V24.12h9.48V35.33Z" fill="#ccc"/>
      <path id="Path_77" data-name="Path 77" d="M215.87,30.25H205.48c.17,2.31,1.62,3.47,4.37,3.47a8.628,8.628,0,0,0,4.62-1.24v3.54a12.093,12.093,0,0,1-5.74,1.18,8.069,8.069,0,0,1-5.99-2.14,8.078,8.078,0,0,1-2.13-5.96,8.674,8.674,0,0,1,2.3-6.28,7.679,7.679,0,0,1,5.66-2.32,7.081,7.081,0,0,1,5.39,2.07,7.965,7.965,0,0,1,1.91,5.61v2.07Zm-4.56-3.02q0-3.42-2.77-3.42a2.632,2.632,0,0,0-2.04.98,4.383,4.383,0,0,0-1.05,2.44Z" fill="#ccc"/>
      <path id="Path_78" data-name="Path 78" d="M234.17,36.81h-4.9V27.96q0-3.7-2.64-3.7a2.635,2.635,0,0,0-2.1.98,3.719,3.719,0,0,0-.82,2.49v9.08H218.8V20.89h4.91v2.52h.06a5.634,5.634,0,0,1,5.12-2.91c3.52,0,5.29,2.19,5.29,6.56v9.75Z" fill="#ccc"/>
    </g>
  </g>
</svg>
