<svg id="Layer_1" data-name="Layer 1" xmlns="http://www.w3.org/2000/svg" width="153.39" height="53.18" viewBox="0 0 153.39 53.18">
  <g id="Group_38" data-name="Group 38">
    <g id="Group_36" data-name="Group 36">
      <path id="Path_79" data-name="Path 79" d="M34.86,36.6a8.23,8.23,0,0,0-.37-2.11,23.676,23.676,0,0,0-6.04-9.22,23.606,23.606,0,0,0-9.22-6.04,7.927,7.927,0,0,0-2.42-.37,6.683,6.683,0,0,1-4.99-1.89L8.13,13.28,3.66,17.75a12.481,12.481,0,0,0,0,17.66L17.77,49.52a12.481,12.481,0,0,0,17.66,0l4.47-4.47-2.3-2.3a9.142,9.142,0,0,1-2.75-6.16Z" fill="#e6e6e6"/>
      <path id="Path_80" data-name="Path 80" d="M21.82,13.71c2.96-.19,7.63,2.24,11.79,6.4,3.88,3.88,6.25,8.2,6.41,11.17a9.438,9.438,0,0,0,2.67,6.24l2.38,2.38,4.47-4.47a12.481,12.481,0,0,0,0-17.66L35.43,3.66a12.481,12.481,0,0,0-17.66,0L13.3,8.13l3.67,3.67a6.339,6.339,0,0,0,4.86,1.91Z" fill="#e6e6e6"/>
      <path id="Path_81" data-name="Path 81" d="M42.69,37.53a9.438,9.438,0,0,1-2.67-6.24c-.15-2.97-2.53-7.29-6.41-11.17-4.16-4.16-8.83-6.59-11.79-6.4a6.4,6.4,0,0,1-4.86-1.91L13.29,8.14,8.13,13.3l3.69,3.69a6.746,6.746,0,0,0,4.99,1.89,7.631,7.631,0,0,1,2.42.37,23.791,23.791,0,0,1,9.22,6.04,23.606,23.606,0,0,1,6.04,9.22,8.686,8.686,0,0,1,.37,2.11,9.077,9.077,0,0,0,2.75,6.16l2.3,2.3,5.16-5.16-2.38-2.38Z" fill="#ccc"/>
    </g>
    <g id="Group_37" data-name="Group 37">
      <path id="Path_82" data-name="Path 82" d="M83.54,31.21a6.221,6.221,0,0,1-.59,2.78,5.809,5.809,0,0,1-1.6,2,7.031,7.031,0,0,1-2.36,1.21,10.043,10.043,0,0,1-2.89.4,10.777,10.777,0,0,1-1.94-.17,10.61,10.61,0,0,1-1.58-.41,7,7,0,0,1-1.14-.5,2.986,2.986,0,0,1-.66-.47,1.267,1.267,0,0,1-.29-.58,5.064,5.064,0,0,1-.09-1.1q0-.48.03-.81a2.174,2.174,0,0,1,.1-.53.638.638,0,0,1,.19-.29.439.439,0,0,1,.27-.09,1.27,1.27,0,0,1,.61.26,10.45,10.45,0,0,0,1.02.57,8.823,8.823,0,0,0,1.48.57,7.082,7.082,0,0,0,2,.26,4.623,4.623,0,0,0,1.34-.18,2.947,2.947,0,0,0,1-.51,2.278,2.278,0,0,0,.63-.81,2.5,2.5,0,0,0,.22-1.07,1.839,1.839,0,0,0-.37-1.17,3.57,3.57,0,0,0-.97-.87,10.121,10.121,0,0,0-1.36-.71c-.51-.22-1.03-.46-1.57-.71a14.024,14.024,0,0,1-1.57-.85,6.44,6.44,0,0,1-1.36-1.13,5.346,5.346,0,0,1-.97-1.56,5.609,5.609,0,0,1-.37-2.16,5.685,5.685,0,0,1,.54-2.54,5.2,5.2,0,0,1,1.45-1.82,6.215,6.215,0,0,1,2.15-1.08,9.318,9.318,0,0,1,2.62-.36,9.837,9.837,0,0,1,1.43.11,8.779,8.779,0,0,1,1.34.3,6.652,6.652,0,0,1,1.1.42,3.1,3.1,0,0,1,.64.39,1.029,1.029,0,0,1,.21.26.9.9,0,0,1,.09.29,2.56,2.56,0,0,1,.05.45c0,.18.02.41.02.68,0,.3,0,.55-.02.76a2.735,2.735,0,0,1-.08.51.613.613,0,0,1-.16.29.4.4,0,0,1-.27.09,1.214,1.214,0,0,1-.54-.22c-.25-.14-.55-.3-.92-.47a8.591,8.591,0,0,0-1.26-.47,5.572,5.572,0,0,0-1.57-.21,3.762,3.762,0,0,0-1.17.16,2.438,2.438,0,0,0-.83.45,1.8,1.8,0,0,0-.5.69,2.23,2.23,0,0,0-.16.86,1.85,1.85,0,0,0,.37,1.16,3.341,3.341,0,0,0,.98.87,10.578,10.578,0,0,0,1.39.71c.52.22,1.05.46,1.59.71a15.239,15.239,0,0,1,1.59.85,6.353,6.353,0,0,1,1.38,1.14,5.128,5.128,0,0,1,1.35,3.66Z" fill="#ccc"/>
      <path id="Path_83" data-name="Path 83" d="M94.64,35.34a4.618,4.618,0,0,1-.09,1.05,1.055,1.055,0,0,1-.23.51,1.073,1.073,0,0,1-.41.26,3.023,3.023,0,0,1-.64.2,5.92,5.92,0,0,1-.79.13,8.107,8.107,0,0,1-.86.05,6.383,6.383,0,0,1-2.02-.29,3.445,3.445,0,0,1-1.42-.91,3.711,3.711,0,0,1-.82-1.55,8.026,8.026,0,0,1-.26-2.21V25.47H85.44c-.2,0-.35-.12-.45-.37a3.49,3.49,0,0,1-.16-1.22,5.53,5.53,0,0,1,.04-.76,1.664,1.664,0,0,1,.12-.49.8.8,0,0,1,.19-.26.5.5,0,0,1,.27-.08H87.1V19.2a.538.538,0,0,1,.08-.28.7.7,0,0,1,.31-.21,2.111,2.111,0,0,1,.61-.12,8.344,8.344,0,0,1,.94-.04,8.848,8.848,0,0,1,.96.04,3.147,3.147,0,0,1,.6.12.7.7,0,0,1,.31.21.468.468,0,0,1,.09.28v3.09h3.02a.5.5,0,0,1,.27.08.536.536,0,0,1,.19.26,2.054,2.054,0,0,1,.12.49,5.53,5.53,0,0,1,.04.76,3.23,3.23,0,0,1-.16,1.22c-.1.24-.25.37-.45.37H91v6.51a3.209,3.209,0,0,0,.36,1.7,1.386,1.386,0,0,0,1.28.57,3.15,3.15,0,0,0,.56-.05c.17-.04.31-.08.44-.12s.24-.09.33-.12a.574.574,0,0,1,.24-.05.407.407,0,0,1,.18.05.36.36,0,0,1,.13.22,2.949,2.949,0,0,1,.08.44,4.754,4.754,0,0,1,.04.72Z" fill="#ccc"/>
      <path id="Path_84" data-name="Path 84" d="M109.9,29.37a1.526,1.526,0,0,1-.32,1.06,1.124,1.124,0,0,1-.88.34h-8.44a5.76,5.76,0,0,0,.21,1.61,3.063,3.063,0,0,0,.67,1.23,2.957,2.957,0,0,0,1.18.77,4.962,4.962,0,0,0,1.73.26,9.612,9.612,0,0,0,1.8-.15,11.95,11.95,0,0,0,1.34-.33c.38-.12.69-.23.94-.33a1.723,1.723,0,0,1,.61-.15.375.375,0,0,1,.39.24,1.161,1.161,0,0,1,.08.4,6.03,6.03,0,0,1,.02.64,4.977,4.977,0,0,1-.02.58,3.534,3.534,0,0,1-.05.41,1.1,1.1,0,0,1-.09.29,1.6,1.6,0,0,1-.16.23,1.9,1.9,0,0,1-.55.29,9.259,9.259,0,0,1-1.15.37c-.47.12-1,.22-1.6.31a13.018,13.018,0,0,1-1.93.13,10.244,10.244,0,0,1-3.24-.47,5.643,5.643,0,0,1-2.32-1.42,5.835,5.835,0,0,1-1.39-2.39,11.391,11.391,0,0,1-.46-3.39,10.551,10.551,0,0,1,.48-3.34,7.007,7.007,0,0,1,1.4-2.52,6.046,6.046,0,0,1,2.23-1.58,7.729,7.729,0,0,1,2.96-.54,7.836,7.836,0,0,1,2.98.51,5.461,5.461,0,0,1,2.03,1.42A5.752,5.752,0,0,1,109.52,26a9.346,9.346,0,0,1,.37,2.71v.62Zm-3.79-1.12a4.045,4.045,0,0,0-.66-2.59,2.543,2.543,0,0,0-2.18-.94,2.692,2.692,0,0,0-2.22,1.03,3.566,3.566,0,0,0-.56,1.12,5.532,5.532,0,0,0-.23,1.38h5.85Z" fill="#ccc"/>
      <path id="Path_85" data-name="Path 85" d="M117.03,36.71a.439.439,0,0,1-.09.27.647.647,0,0,1-.32.19,3.147,3.147,0,0,1-.6.12,11.3,11.3,0,0,1-1.9,0,2.522,2.522,0,0,1-.6-.12.73.73,0,0,1-.32-.19.439.439,0,0,1-.09-.27V16.26a.468.468,0,0,1,.09-.28.74.74,0,0,1,.32-.21,2.467,2.467,0,0,1,.6-.13,9.05,9.05,0,0,1,1.9,0,3.053,3.053,0,0,1,.6.13.74.74,0,0,1,.32.21.468.468,0,0,1,.09.28Z" fill="#ccc"/>
      <path id="Path_86" data-name="Path 86" d="M124.85,36.71a.439.439,0,0,1-.09.27.647.647,0,0,1-.32.19,3.147,3.147,0,0,1-.6.12,11.3,11.3,0,0,1-1.9,0,2.522,2.522,0,0,1-.6-.12.73.73,0,0,1-.32-.19.439.439,0,0,1-.09-.27V16.26a.468.468,0,0,1,.09-.28.74.74,0,0,1,.32-.21,2.467,2.467,0,0,1,.6-.13,9.05,9.05,0,0,1,1.9,0,3.053,3.053,0,0,1,.6.13.74.74,0,0,1,.32.21.468.468,0,0,1,.09.28Z" fill="#ccc"/>
      <path id="Path_87" data-name="Path 87" d="M140.57,36.76a.388.388,0,0,1-.16.34,1.143,1.143,0,0,1-.49.18,6.252,6.252,0,0,1-.99.05,7.859,7.859,0,0,1-1.02-.05.953.953,0,0,1-.45-.18.438.438,0,0,1-.13-.34v-1.1a6.3,6.3,0,0,1-1.95,1.43,5.685,5.685,0,0,1-2.43.51,6.866,6.866,0,0,1-2.03-.29,4.482,4.482,0,0,1-1.6-.86,3.9,3.9,0,0,1-1.05-1.41,4.761,4.761,0,0,1-.37-1.96,4.528,4.528,0,0,1,.47-2.11,3.867,3.867,0,0,1,1.42-1.48,6.922,6.922,0,0,1,2.34-.86,16.465,16.465,0,0,1,3.25-.28h1.35v-.84a4.257,4.257,0,0,0-.13-1.14,1.858,1.858,0,0,0-.44-.82,1.772,1.772,0,0,0-.81-.48,4.419,4.419,0,0,0-1.25-.16,6.251,6.251,0,0,0-1.75.22,11.767,11.767,0,0,0-1.36.48q-.585.27-.99.48a1.544,1.544,0,0,1-.65.22.482.482,0,0,1-.3-.11.822.822,0,0,1-.22-.31,1.9,1.9,0,0,1-.13-.5,4.294,4.294,0,0,1-.05-.65,2.984,2.984,0,0,1,.08-.76,1.169,1.169,0,0,1,.3-.51,2.818,2.818,0,0,1,.76-.5,9.464,9.464,0,0,1,1.28-.51,11.581,11.581,0,0,1,1.59-.38,10.429,10.429,0,0,1,1.78-.15,10.706,10.706,0,0,1,2.79.32,4.629,4.629,0,0,1,1.9.98,3.819,3.819,0,0,1,1.09,1.7,7.883,7.883,0,0,1,.34,2.47v9.33Zm-3.84-5.94h-1.49a8.348,8.348,0,0,0-1.62.14,2.956,2.956,0,0,0-1.09.42,1.714,1.714,0,0,0-.61.68,2.059,2.059,0,0,0-.19.91,1.743,1.743,0,0,0,.55,1.37,2.219,2.219,0,0,0,1.53.5,2.9,2.9,0,0,0,1.52-.42,6.384,6.384,0,0,0,1.41-1.23V30.83Z" fill="#ccc"/>
      <path id="Path_88" data-name="Path 88" d="M153.38,24.13a8.169,8.169,0,0,1-.03.92,2.835,2.835,0,0,1-.09.56.557.557,0,0,1-.16.28.4.4,0,0,1-.26.08,1.037,1.037,0,0,1-.28-.05c-.1-.04-.22-.08-.35-.12s-.27-.08-.43-.12a2.1,2.1,0,0,0-.51-.05,1.64,1.64,0,0,0-.65.13,3.408,3.408,0,0,0-.68.41,4.029,4.029,0,0,0-.73.75,12.137,12.137,0,0,0-.82,1.15v8.65a.439.439,0,0,1-.09.27.647.647,0,0,1-.32.19,3.147,3.147,0,0,1-.6.12,11.3,11.3,0,0,1-1.9,0,2.523,2.523,0,0,1-.6-.12.73.73,0,0,1-.32-.19.439.439,0,0,1-.09-.27V22.85a.5.5,0,0,1,.08-.27.513.513,0,0,1,.28-.19,2.68,2.68,0,0,1,.52-.12,5.977,5.977,0,0,1,.8-.04,6.3,6.3,0,0,1,.82.04,1.919,1.919,0,0,1,.5.12.675.675,0,0,1,.26.19.5.5,0,0,1,.08.27v1.73a10.184,10.184,0,0,1,1.03-1.28,6.305,6.305,0,0,1,.92-.8,2.856,2.856,0,0,1,.87-.41,3.259,3.259,0,0,1,.87-.12,3.467,3.467,0,0,1,.44.02,4,4,0,0,1,.48.08c.17.04.31.08.44.12a1.079,1.079,0,0,1,.27.15.382.382,0,0,1,.12.17,1.054,1.054,0,0,1,.07.26,3.731,3.731,0,0,1,.05.49c.01.22.02.51.02.89Z" fill="#ccc"/>
    </g>
  </g>
</svg>
