<?xml version="1.0" encoding="UTF-8"?>
<svg id="Layer_2" data-name="Layer 2" xmlns="http://www.w3.org/2000/svg" viewBox="0 0 530 530">
  <defs>
    <style>
      .cls-1 {
        fill: #1f2f98;
      }

      .cls-1, .cls-2, .cls-3, .cls-4, .cls-5, .cls-6 {
        stroke-width: 0px;
      }

      .cls-2 {
        fill: none;
      }

      .cls-3 {
        fill: #b5e7f4;
      }

      .cls-4 {
        fill: #ee4392;
      }

      .cls-5 {
        fill: #fff;
      }

      .cls-6 {
        fill: #ff9dda;
      }
    </style>
  </defs>
  <g id="Layer_1-2" data-name="Layer 1">
    <g>
      <rect class="cls-2" width="530" height="530"/>
      <g>
        <path class="cls-3" d="m497.39,120.91L72.04,71.27c-18.18-2.12-34.63,10.89-36.76,29.07L3.54,372.33c-2.12,18.18,10.89,34.63,29.07,36.76l425.35,49.65c18.18,2.12,34.63-10.89,36.76-29.07l31.75-271.99c2.12-18.18-10.89-34.63-29.07-36.76Z"/>
        <path class="cls-4" d="m523.32,184.59l3.14-26.92c2.12-18.18-10.89-34.63-29.07-36.76L72.04,71.27c-18.18-2.12-34.63,10.89-36.76,29.07l-3.14,26.92,491.18,57.33Z"/>
        <path class="cls-1" d="m100.96,291.96l53.92-95c3.45-6.09,10.22-9.51,17.17-8.7h0c9.55,1.12,16.4,9.77,15.28,19.32l-11.22,96.09.48.06c6.62.77,11.36,6.77,10.59,13.39h0c-.77,6.62-6.77,11.36-13.39,10.59l-.48-.06-2.04,17.5c-.83,7.15-7.31,12.27-14.46,11.43h0c-7.15-.83-12.27-7.31-11.43-14.46l2.04-17.5-38.82-4.53c-6.63-.77-11.38-6.78-10.61-13.41l1.03-8.82c.24-2.08.9-4.09,1.93-5.9Zm49.44,7.11l6.96-59.59c.05-.41-.51-.59-.71-.23l-31.86,56.21c-.56.99.07,2.24,1.2,2.37l22.64,2.64c.87.1,1.67-.52,1.77-1.4Z"/>
        <path class="cls-1" d="m338.92,319.73l53.92-95c3.45-6.09,10.22-9.51,17.17-8.7h0c9.55,1.12,16.4,9.77,15.28,19.32l-11.22,96.09.48.06c6.62.77,11.36,6.77,10.59,13.39h0c-.77,6.62-6.77,11.36-13.39,10.59l-.48-.06-2.04,17.5c-.83,7.15-7.31,12.27-14.46,11.43h0c-7.15-.83-12.27-7.31-11.43-14.46l2.04-17.5-38.82-4.53c-6.63-.77-11.38-6.78-10.61-13.41l1.03-8.82c.24-2.08.9-4.09,1.93-5.9Zm49.44,7.11l6.96-59.59c.05-.41-.51-.59-.71-.23l-31.86,56.21c-.56.99.07,2.24,1.2,2.37l22.64,2.64c.87.1,1.67-.52,1.77-1.4Z"/>
        <path class="cls-1" d="m231.94,236.07c3.13-26.85,19.07-40.54,44.96-37.52,25.89,3.02,38.24,20.02,35.11,46.87l-10.19,87.26c-3.13,26.85-19.07,40.54-44.96,37.52-25.89-3.02-38.24-20.02-35.11-46.87l10.19-87.26Zm15.99,92.02c-1.4,11.99,3.34,17.16,11.73,18.14,8.39.98,14.2-2.96,15.6-14.95l10.58-90.62c1.4-11.99-3.34-17.16-11.73-18.14-8.39-.98-14.2,2.96-15.6,14.95l-10.58,90.62Z"/>
        <path class="cls-5" d="m82.28,108.85c-.57,4.89-4.99,8.38-9.88,7.81-4.88-.57-8.38-4.99-7.81-9.88.57-4.89,4.99-8.38,9.88-7.81s8.38,4.99,7.81,9.88Z"/>
        <path class="cls-6" d="m124.95,113.83c-.57,4.89-4.99,8.38-9.88,7.81-4.89-.57-8.38-4.99-7.81-9.88.57-4.89,4.99-8.38,9.88-7.81,4.89.57,8.38,4.99,7.81,9.88Z"/>
        <path class="cls-1" d="m169.18,119c-.57,4.89-4.99,8.38-9.88,7.81s-8.38-4.99-7.81-9.88c.57-4.88,4.99-8.38,9.88-7.81,4.88.57,8.38,4.99,7.81,9.88Z"/>
      </g>
    </g>
  </g>
</svg>