<?xml version="1.0" encoding="utf-8"?>
<!-- Generator: Adobe Illustrator 27.7.0, SVG Export Plug-In . SVG Version: 6.00 Build 0)  -->
<svg version="1.1" id="Group_222" xmlns="http://www.w3.org/2000/svg" xmlns:xlink="http://www.w3.org/1999/xlink" x="0px" y="0px"
	 viewBox="0 0 167 46" style="enable-background:new 0 0 167 46;" xml:space="preserve">
<style type="text/css">
	.st0{fill:#787FF6;}
	.st1{enable-background:new    ;}
	.st2{fill:#1F2F98;}
	.st3{fill:url(#Path_20_00000103237955709778819870000011580865706621215409_);}
</style>
<path id="Rectangle_23" class="st0" d="M29.1,12.1L29.1,12.1c9.4,0,16.9,7.6,16.9,16.9v0C46,38.4,38.4,46,29.1,46h0
	c-9.4,0-16.9-7.6-16.9-16.9v0C12.1,19.7,19.7,12.1,29.1,12.1z"/>
<g class="st1">
	<path class="st2" d="M58.9,31.7c-0.3,0-0.6-0.1-0.8-0.3c-0.2-0.2-0.3-0.5-0.3-0.8V20.3c0-0.3,0.1-0.6,0.3-0.8
		c0.2-0.2,0.5-0.3,0.8-0.3c0.3,0,0.6,0.1,0.8,0.3c0.2,0.2,0.3,0.5,0.3,0.8v1c0.2-0.3,0.5-0.6,0.9-1c0.3-0.3,0.8-0.6,1.3-0.9
		c0.5-0.2,1.2-0.4,1.9-0.4c1,0,1.7,0.3,2.4,0.8c0.6,0.5,1.1,1.1,1.3,1.7c0.2-0.3,0.5-0.6,0.8-1c0.4-0.4,0.8-0.7,1.4-1
		s1.3-0.4,2.2-0.4c0.9,0,1.7,0.2,2.3,0.7c0.6,0.5,1,1.1,1.3,1.8c0.3,0.7,0.4,1.4,0.4,2.1v6.9c0,0.3-0.1,0.6-0.3,0.8
		c-0.2,0.2-0.5,0.3-0.8,0.3c-0.3,0-0.6-0.1-0.8-0.3c-0.2-0.2-0.3-0.5-0.3-0.8v-6.5c0-1-0.2-1.8-0.5-2.3c-0.4-0.5-1-0.8-1.9-0.8
		c-0.6,0-1.1,0.1-1.6,0.3c-0.4,0.2-0.8,0.5-1.1,0.9c-0.3,0.4-0.6,0.7-0.8,1.1v7.2c0,0.3-0.1,0.6-0.3,0.8c-0.2,0.2-0.5,0.3-0.8,0.3
		c-0.3,0-0.6-0.1-0.8-0.3c-0.2-0.2-0.3-0.5-0.3-0.8v-6.5c0-1-0.2-1.8-0.5-2.3c-0.4-0.5-1-0.8-1.9-0.8c-0.6,0-1.1,0.1-1.6,0.3
		c-0.4,0.2-0.8,0.5-1.1,0.9c-0.3,0.4-0.6,0.7-0.8,1.1v7.2c0,0.3-0.1,0.6-0.3,0.8C59.5,31.6,59.2,31.7,58.9,31.7z"/>
	<path class="st2" d="M85.4,31.8c-2,0-3.5-0.6-4.6-1.7c-1.1-1.1-1.6-2.7-1.6-4.7c0-1.1,0.2-2.1,0.6-3.1c0.4-1,1-1.8,1.9-2.4
		c0.8-0.6,1.9-0.9,3.3-0.9c1.2,0,2.3,0.3,3.1,0.9c0.8,0.6,1.5,1.3,1.9,2.2s0.7,1.9,0.7,3c0,0.3-0.1,0.6-0.3,0.8s-0.5,0.3-0.8,0.3
		h-8.1c0.1,1.1,0.5,1.9,1.2,2.6c0.7,0.6,1.7,1,3,1c0.7,0,1.3-0.1,1.8-0.2s1-0.3,1.4-0.5c0.1-0.1,0.3-0.1,0.4-0.1
		c0.3,0,0.5,0.1,0.7,0.3c0.2,0.2,0.3,0.4,0.3,0.7c0,0.2-0.1,0.4-0.2,0.5c-0.1,0.2-0.3,0.3-0.4,0.4c-0.5,0.3-1.1,0.6-1.7,0.8
		C87.2,31.7,86.4,31.8,85.4,31.8z M81.3,24.4h7.1c0-0.8-0.3-1.5-0.6-2c-0.4-0.5-0.8-0.9-1.4-1.1c-0.5-0.2-1-0.4-1.6-0.4
		s-1,0.1-1.6,0.4c-0.5,0.2-1,0.6-1.3,1.1C81.6,22.9,81.4,23.6,81.3,24.4z"/>
	<path class="st2" d="M98.5,31.8c-1,0-1.9-0.2-2.8-0.7c-0.9-0.5-1.6-1.2-2.2-2.2c-0.6-0.9-0.9-2.1-0.9-3.5c0-1.4,0.3-2.5,0.9-3.5
		c0.6-0.9,1.3-1.7,2.2-2.2c0.9-0.5,1.8-0.7,2.8-0.7c0.8,0,1.6,0.2,2.3,0.5s1.3,0.8,1.8,1.3V15c0-0.3,0.1-0.6,0.3-0.8
		c0.2-0.2,0.5-0.3,0.8-0.3s0.6,0.1,0.8,0.3c0.2,0.2,0.3,0.5,0.3,0.8v15.6c0,0.3-0.1,0.6-0.3,0.8c-0.2,0.2-0.5,0.3-0.8,0.3
		s-0.6-0.1-0.8-0.3c-0.2-0.2-0.3-0.5-0.3-0.8V30c-0.5,0.6-1.2,1-1.8,1.3C100.1,31.6,99.4,31.8,98.5,31.8z M98.8,29.8
		c0.8,0,1.5-0.2,2.1-0.5c0.6-0.3,1.2-0.8,1.7-1.3v-5c-0.5-0.5-1-0.9-1.7-1.3s-1.4-0.5-2.1-0.5c-1.1,0-2.1,0.4-2.8,1.1
		c-0.7,0.7-1.1,1.8-1.1,3.2c0,1.4,0.4,2.5,1.1,3.2C96.8,29.4,97.7,29.8,98.8,29.8z"/>
	<path class="st2" d="M109.6,16.8c-0.3,0-0.6-0.1-0.9-0.4c-0.2-0.2-0.4-0.5-0.4-0.9v-0.1c0-0.3,0.1-0.6,0.4-0.9
		c0.2-0.2,0.5-0.4,0.9-0.4h0.1c0.3,0,0.6,0.1,0.9,0.4s0.4,0.5,0.4,0.9v0.1c0,0.3-0.1,0.6-0.4,0.9c-0.2,0.2-0.5,0.4-0.9,0.4H109.6z
		 M109.7,31.7c-0.3,0-0.6-0.1-0.8-0.3c-0.2-0.2-0.3-0.5-0.3-0.8V20.3c0-0.3,0.1-0.6,0.3-0.8c0.2-0.2,0.5-0.3,0.8-0.3
		c0.3,0,0.6,0.1,0.8,0.3s0.3,0.5,0.3,0.8v10.3c0,0.3-0.1,0.6-0.3,0.8C110.3,31.6,110,31.7,109.7,31.7z"/>
</g>
<g class="st1">
	<path class="st2" d="M116.1,31.5c-0.3,0-0.6-0.1-0.8-0.3c-0.2-0.2-0.3-0.5-0.3-0.8V15.9c0-0.3,0.1-0.6,0.3-0.8
		c0.2-0.2,0.5-0.3,0.8-0.3h4.8c1.4,0,2.7,0.2,3.7,0.7c1.1,0.5,1.9,1.1,2.6,1.9c0.7,0.8,1.2,1.7,1.6,2.7c0.3,1,0.5,2,0.5,3
		s-0.2,2-0.5,3c-0.3,1-0.9,1.9-1.6,2.7s-1.6,1.5-2.6,1.9c-1.1,0.5-2.3,0.7-3.7,0.7H116.1z M117.2,29.5h3.5c1.3,0,2.5-0.3,3.5-0.8
		c1-0.5,1.7-1.3,2.3-2.2c0.5-1,0.8-2.1,0.8-3.3s-0.3-2.3-0.8-3.3s-1.3-1.7-2.3-2.2c-1-0.5-2.1-0.8-3.5-0.8h-3.5V29.5z"/>
</g>
<g class="st1">
	<path class="st2" d="M137.6,31.8c-2,0-3.5-0.6-4.6-1.7s-1.6-2.7-1.6-4.7c0-1.1,0.2-2.1,0.6-3.1c0.4-1,1-1.8,1.9-2.4
		c0.8-0.6,1.9-0.9,3.3-0.9c1.2,0,2.3,0.3,3.1,0.9c0.8,0.6,1.5,1.3,1.9,2.2c0.4,0.9,0.7,1.9,0.7,3c0,0.3-0.1,0.6-0.3,0.8
		s-0.5,0.3-0.8,0.3h-8.1c0.1,1.1,0.5,1.9,1.2,2.6c0.7,0.6,1.7,1,3,1c0.7,0,1.3-0.1,1.8-0.2s1-0.3,1.4-0.5c0.1-0.1,0.3-0.1,0.4-0.1
		c0.3,0,0.5,0.1,0.7,0.3s0.3,0.4,0.3,0.7c0,0.2-0.1,0.4-0.2,0.5c-0.1,0.2-0.3,0.3-0.4,0.4c-0.5,0.3-1.1,0.6-1.7,0.8
		C139.5,31.7,138.6,31.8,137.6,31.8z M133.6,24.4h7.1c0-0.8-0.3-1.5-0.6-2c-0.4-0.5-0.8-0.9-1.4-1.1c-0.5-0.2-1-0.4-1.6-0.4
		c-0.5,0-1,0.1-1.6,0.4c-0.5,0.2-1,0.6-1.3,1.1C133.9,22.9,133.6,23.6,133.6,24.4z"/>
</g>
<g class="st1">
	<path class="st2" d="M146.8,31.7c-0.3,0-0.6-0.1-0.8-0.3c-0.2-0.2-0.3-0.5-0.3-0.8V20.3c0-0.3,0.1-0.6,0.3-0.8
		c0.2-0.2,0.5-0.3,0.8-0.3s0.6,0.1,0.8,0.3s0.3,0.5,0.3,0.8v1c0.5-0.6,1.1-1.1,1.8-1.5s1.6-0.7,2.7-0.7c0.9,0,1.7,0.2,2.3,0.6
		c0.6,0.4,1.1,1,1.5,1.7s0.5,1.5,0.5,2.4v6.8c0,0.3-0.1,0.6-0.3,0.8c-0.2,0.2-0.5,0.3-0.8,0.3s-0.6-0.1-0.8-0.3
		c-0.2-0.2-0.3-0.5-0.3-0.8V24c0-0.9-0.2-1.6-0.6-2.1c-0.4-0.5-1.1-0.8-2-0.8c-0.9,0-1.6,0.2-2.3,0.7s-1.2,1-1.7,1.6v7.2
		c0,0.3-0.1,0.6-0.3,0.8C147.4,31.6,147.1,31.7,146.8,31.7z"/>
</g>
<g class="st1">
	<path class="st2" d="M164.3,31.8c-0.3,0-0.6,0-1-0.1c-0.4-0.1-0.8-0.2-1.2-0.4c-0.4-0.2-0.7-0.5-0.9-0.9c-0.3-0.4-0.4-1-0.4-1.8
		v-7.4h-1.7c-0.3,0-0.5-0.2-0.5-0.5c0-0.2,0.1-0.3,0.2-0.4l3.3-3.2c0,0,0.1-0.1,0.2-0.1c0.1-0.1,0.2-0.1,0.3-0.1
		c0.1,0,0.2,0,0.3,0.1s0.1,0.2,0.1,0.3v1.9h2.7c0.3,0,0.5,0.1,0.7,0.3c0.2,0.2,0.3,0.4,0.3,0.7c0,0.3-0.1,0.5-0.3,0.7
		c-0.2,0.2-0.4,0.3-0.7,0.3H163v7.2c0,0.5,0.1,0.8,0.3,1c0.2,0.2,0.4,0.3,0.6,0.4c0.2,0,0.5,0.1,0.7,0.1c0.4,0,0.7,0,0.9-0.1
		c0.2-0.1,0.4-0.1,0.6-0.1c0.2,0,0.4,0.1,0.6,0.2c0.2,0.2,0.3,0.4,0.3,0.6c0,0.4-0.2,0.6-0.6,0.8c-0.3,0.1-0.6,0.2-0.9,0.3
		S164.7,31.8,164.3,31.8z"/>
</g>
<linearGradient id="Path_20_00000106830911184658917830000018061521429099542440_" gradientUnits="userSpaceOnUse" x1="-194.2865" y1="431.6294" x2="-194.2865" y2="432.6294" gradientTransform="matrix(11.138 0 0 -35.345 2181.6321 15291.2871)">
	<stop  offset="0" style="stop-color:#787FF6"/>
	<stop  offset="1" style="stop-color:#1F2F98"/>
</linearGradient>
<path id="Path_20" style="fill:url(#Path_20_00000106830911184658917830000018061521429099542440_);" d="M17.7,0L17.7,0
	c3.1,0,5.6,2.5,5.6,5.6v29.8h-5.6c-3.1,0-5.6-2.5-5.6-5.6V5.6C12.1,2.5,14.6,0,17.7,0z"/>
<path id="Path_21" class="st0" d="M35.3,17.7v5.6H5.6c-3.1,0-5.6-2.5-5.6-5.6l0,0c0-3.1,2.5-5.6,5.6-5.6h24.2
	C32.9,12.1,35.3,14.6,35.3,17.7z"/>
</svg>
