<?xml version="1.0" encoding="utf-8"?>
<!-- Generator: Adobe Illustrator 27.7.0, SVG Export Plug-In . SVG Version: 6.00 Build 0)  -->
<svg version="1.1" id="Layer_1" xmlns="http://www.w3.org/2000/svg" xmlns:xlink="http://www.w3.org/1999/xlink" x="0px" y="0px"
	 viewBox="0 0 366.5 100.9" style="enable-background:new 0 0 366.5 100.9;" xml:space="preserve">
<style type="text/css">
	.st0{enable-background:new    ;}
	.st1{fill:#EE4392;}
	.st2{fill:#1F2F98;}
	.st3{fill:url(#Path_28_00000057121794662639188940000000718675337488972201_);}
	.st4{fill:url(#Path_29_00000139988634094918604080000018055878003197025460_);}
</style>
<g id="Group_15" transform="translate(0)">
	<g class="st0">
		<path class="st1" d="M128.3,59.6c-0.6,0-1.1-0.2-1.5-0.6c-0.4-0.4-0.6-0.9-0.6-1.5V37.3c0-0.6,0.2-1.1,0.6-1.5
			c0.4-0.4,0.9-0.6,1.5-0.6c0.6,0,1.1,0.2,1.5,0.6s0.6,0.9,0.6,1.5v1.9c0.4-0.6,1-1.3,1.7-1.9c0.7-0.7,1.5-1.2,2.6-1.7
			c1-0.5,2.3-0.7,3.8-0.7c1.9,0,3.4,0.5,4.6,1.5c1.2,1,2.1,2.1,2.6,3.3c0.4-0.6,0.9-1.3,1.6-2c0.7-0.8,1.6-1.4,2.7-2
			c1.1-0.6,2.6-0.8,4.3-0.8c1.8,0,3.4,0.5,4.5,1.4c1.2,0.9,2,2.1,2.5,3.5c0.5,1.4,0.8,2.8,0.8,4.2v13.5c0,0.6-0.2,1.1-0.6,1.5
			c-0.4,0.4-0.9,0.6-1.5,0.6s-1.1-0.2-1.5-0.6c-0.4-0.4-0.6-0.9-0.6-1.5V44.8c0-2-0.4-3.5-1.1-4.4c-0.7-1-2-1.5-3.7-1.5
			c-1.2,0-2.2,0.2-3.1,0.7c-0.8,0.5-1.6,1-2.2,1.7c-0.6,0.7-1.1,1.4-1.6,2.1v14.1c0,0.6-0.2,1.1-0.6,1.5c-0.4,0.4-0.9,0.6-1.5,0.6
			c-0.6,0-1.1-0.2-1.5-0.6c-0.4-0.4-0.6-0.9-0.6-1.5V44.8c0-2-0.4-3.5-1.1-4.4c-0.7-1-2-1.5-3.7-1.5c-1.2,0-2.2,0.2-3.1,0.7
			c-0.8,0.5-1.6,1-2.2,1.7c-0.6,0.7-1.1,1.4-1.6,2.1v14.1c0,0.6-0.2,1.1-0.6,1.5S128.9,59.6,128.3,59.6z"/>
		<path class="st1" d="M180.1,59.8c-3.8,0-6.8-1.1-9-3.3c-2.1-2.2-3.2-5.2-3.2-9.2c0-2.1,0.4-4.1,1.2-6c0.8-1.9,2-3.4,3.7-4.6
			c1.7-1.2,3.8-1.8,6.4-1.8c2.4,0,4.4,0.6,6.1,1.7c1.7,1.1,2.9,2.6,3.8,4.3c0.9,1.8,1.3,3.7,1.3,5.8c0,0.6-0.2,1.1-0.6,1.5
			c-0.4,0.4-0.9,0.6-1.6,0.6h-15.9c0.3,2.1,1,3.8,2.4,5.1c1.3,1.3,3.3,1.9,5.8,1.9c1.4,0,2.6-0.1,3.6-0.4c1-0.3,1.9-0.6,2.8-1.1
			c0.2-0.1,0.5-0.2,0.8-0.2c0.5,0,0.9,0.2,1.3,0.5c0.4,0.3,0.6,0.8,0.6,1.3c0,0.4-0.1,0.7-0.4,1c-0.2,0.3-0.5,0.5-0.9,0.7
			c-1,0.6-2.2,1.1-3.4,1.5C183.7,59.6,182.1,59.8,180.1,59.8z M172.2,45.4h13.9c-0.1-1.6-0.5-2.9-1.2-3.9c-0.7-1-1.6-1.7-2.7-2.2
			s-2.1-0.7-3.1-0.7c-1,0-2,0.2-3.1,0.7c-1,0.5-1.9,1.2-2.6,2.2C172.7,42.4,172.3,43.7,172.2,45.4z"/>
		<path class="st1" d="M205.9,59.8c-1.9,0-3.7-0.5-5.4-1.5c-1.7-1-3.2-2.4-4.3-4.2c-1.1-1.8-1.7-4.1-1.7-6.8c0-2.7,0.6-4.9,1.7-6.8
			c1.1-1.8,2.5-3.3,4.3-4.2c1.7-1,3.5-1.5,5.4-1.5c1.7,0,3.1,0.3,4.5,0.9c1.3,0.6,2.5,1.5,3.6,2.6V27c0-0.6,0.2-1.1,0.6-1.6
			s0.9-0.6,1.5-0.6c0.6,0,1.1,0.2,1.5,0.6s0.6,0.9,0.6,1.6v30.5c0,0.6-0.2,1.1-0.6,1.5s-0.9,0.6-1.5,0.6c-0.6,0-1.1-0.2-1.5-0.6
			s-0.6-0.9-0.6-1.5v-1.2c-1.1,1.1-2.3,2-3.6,2.6C209,59.5,207.5,59.8,205.9,59.8z M206.5,55.8c1.5,0,2.9-0.3,4.2-1s2.3-1.5,3.2-2.5
			v-9.9c-0.9-1-2-1.8-3.2-2.5s-2.6-1-4.2-1c-2.2,0-4.1,0.7-5.5,2.1c-1.5,1.4-2.2,3.5-2.2,6.3c0,2.8,0.7,4.9,2.2,6.3
			S204.3,55.8,206.5,55.8z"/>
		<path class="st1" d="M227.6,30.5c-0.7,0-1.2-0.2-1.7-0.7c-0.5-0.5-0.7-1-0.7-1.7v-0.2c0-0.7,0.2-1.2,0.7-1.7
			c0.5-0.5,1-0.7,1.7-0.7h0.3c0.7,0,1.2,0.2,1.7,0.7c0.5,0.5,0.7,1,0.7,1.7v0.2c0,0.7-0.2,1.2-0.7,1.7c-0.5,0.5-1,0.7-1.7,0.7H227.6
			z M227.7,59.6c-0.6,0-1.1-0.2-1.5-0.6c-0.4-0.4-0.6-0.9-0.6-1.5V37.3c0-0.6,0.2-1.1,0.6-1.6c0.4-0.4,0.9-0.6,1.5-0.6
			c0.6,0,1.1,0.2,1.6,0.6c0.4,0.4,0.6,0.9,0.6,1.6v20.2c0,0.6-0.2,1.1-0.6,1.5C228.9,59.4,228.3,59.6,227.7,59.6z"/>
	</g>
	<g class="st0">
		<path class="st2" d="M240.3,59.6c-0.6,0-1.1-0.2-1.5-0.6c-0.4-0.4-0.6-0.9-0.6-1.5v-29c0-0.6,0.2-1.1,0.6-1.5
			c0.4-0.4,0.9-0.6,1.5-0.6c0.6,0,1.1,0.2,1.5,0.6s0.6,0.9,0.6,1.5V41h17.8V28.5c0-0.6,0.2-1.1,0.6-1.5s0.9-0.6,1.5-0.6
			c0.6,0,1.1,0.2,1.5,0.6s0.6,0.9,0.6,1.5v29c0,0.6-0.2,1.1-0.6,1.5s-0.9,0.6-1.5,0.6c-0.6,0-1.1-0.2-1.5-0.6s-0.6-0.9-0.6-1.5V45
			h-17.8v12.5c0,0.6-0.2,1.1-0.6,1.5S240.9,59.6,240.3,59.6z"/>
	</g>
	<g class="st0">
		<path class="st2" d="M282.9,59.8c-2.4,0-4.5-0.5-6.3-1.6c-1.8-1-3.2-2.5-4.2-4.4c-1-1.9-1.5-4-1.5-6.5c0-2.5,0.5-4.6,1.5-6.5
			c1-1.9,2.4-3.3,4.2-4.4c1.8-1,3.9-1.6,6.3-1.6c2.4,0,4.5,0.5,6.3,1.6s3.2,2.5,4.2,4.4c1,1.9,1.5,4,1.5,6.5c0,2.5-0.5,4.6-1.5,6.5
			c-1,1.9-2.4,3.3-4.2,4.4S285.3,59.8,282.9,59.8z M282.9,55.9c1.2,0,2.4-0.3,3.6-0.8c1.2-0.6,2.2-1.5,3-2.7c0.8-1.3,1.2-2.9,1.2-5
			c0-2.1-0.4-3.7-1.2-5s-1.8-2.2-3-2.7c-1.2-0.5-2.4-0.8-3.6-0.8c-1.2,0-2.4,0.3-3.6,0.8c-1.2,0.5-2.2,1.5-3,2.7s-1.2,2.9-1.2,5
			c0,2.1,0.4,3.7,1.2,5c0.8,1.3,1.8,2.2,3,2.7C280.5,55.6,281.7,55.9,282.9,55.9z"/>
		<path class="st2" d="M303,59.6c-0.6,0-1.1-0.2-1.5-0.6s-0.6-0.9-0.6-1.5V37.3c0-0.6,0.2-1.1,0.6-1.5s0.9-0.6,1.5-0.6
			c0.6,0,1.1,0.2,1.5,0.6s0.6,0.9,0.6,1.5v1.9c0.4-0.6,1-1.3,1.7-1.9c0.7-0.7,1.5-1.2,2.6-1.7c1-0.5,2.3-0.7,3.8-0.7
			c1.9,0,3.4,0.5,4.6,1.5s2.1,2.1,2.6,3.3c0.4-0.6,0.9-1.3,1.6-2c0.7-0.8,1.6-1.4,2.7-2c1.1-0.6,2.6-0.8,4.3-0.8
			c1.8,0,3.4,0.5,4.5,1.4c1.2,0.9,2,2.1,2.5,3.5c0.5,1.4,0.8,2.8,0.8,4.2v13.5c0,0.6-0.2,1.1-0.6,1.5c-0.4,0.4-0.9,0.6-1.5,0.6
			c-0.6,0-1.1-0.2-1.5-0.6s-0.6-0.9-0.6-1.5V44.8c0-2-0.4-3.5-1.1-4.4c-0.7-1-2-1.5-3.7-1.5c-1.2,0-2.2,0.2-3.1,0.7
			c-0.8,0.5-1.6,1-2.2,1.7c-0.6,0.7-1.1,1.4-1.6,2.1v14.1c0,0.6-0.2,1.1-0.6,1.5c-0.4,0.4-0.9,0.6-1.5,0.6c-0.6,0-1.1-0.2-1.5-0.6
			s-0.6-0.9-0.6-1.5V44.8c0-2-0.4-3.5-1.1-4.4c-0.7-1-2-1.5-3.7-1.5c-1.2,0-2.2,0.2-3.1,0.7c-0.8,0.5-1.6,1-2.2,1.7
			c-0.6,0.7-1.1,1.4-1.6,2.1v14.1c0,0.6-0.2,1.1-0.6,1.5S303.6,59.6,303,59.6z"/>
		<path class="st2" d="M354.8,59.8c-3.8,0-6.8-1.1-9-3.3c-2.1-2.2-3.2-5.2-3.2-9.2c0-2.1,0.4-4.1,1.2-6c0.8-1.9,2-3.4,3.7-4.6
			c1.7-1.2,3.8-1.8,6.4-1.8c2.4,0,4.4,0.6,6.1,1.7c1.7,1.1,2.9,2.6,3.8,4.3c0.9,1.8,1.3,3.7,1.3,5.8c0,0.6-0.2,1.1-0.6,1.5
			s-0.9,0.6-1.6,0.6h-15.9c0.2,2.1,1,3.8,2.4,5.1c1.3,1.3,3.3,1.9,5.8,1.9c1.4,0,2.6-0.1,3.6-0.4c1-0.3,1.9-0.6,2.8-1.1
			c0.3-0.1,0.5-0.2,0.8-0.2c0.5,0,0.9,0.2,1.3,0.5c0.4,0.3,0.6,0.8,0.6,1.3c0,0.4-0.1,0.7-0.4,1c-0.2,0.3-0.5,0.5-0.9,0.7
			c-1,0.6-2.2,1.1-3.4,1.5C358.4,59.6,356.8,59.8,354.8,59.8z M346.9,45.4h13.9c-0.1-1.6-0.5-2.9-1.2-3.9c-0.7-1-1.6-1.7-2.7-2.2
			s-2.1-0.7-3.1-0.7s-2,0.2-3.1,0.7s-1.9,1.2-2.6,2.2C347.4,42.4,347,43.7,346.9,45.4z"/>
	</g>
	<path id="Rectangle_28" class="st2" d="M63.5,26.5h0.3c20.4,0,37,16.6,37,37v0.3c0,20.4-16.6,37-37,37h-0.3c-20.4,0-37-16.6-37-37
		v-0.3C26.5,43.1,43.1,26.5,63.5,26.5z"/>
	
		<linearGradient id="Path_28_00000155138457645562129160000009038788407274612128_" gradientUnits="userSpaceOnUse" x1="-108.8323" y1="466.1156" x2="-108.8323" y2="467.1156" gradientTransform="matrix(24.423 0 0 -77.5 2696.7607 36201.4609)">
		<stop  offset="0" style="stop-color:#1F2F98"/>
		<stop  offset="1" style="stop-color:#EE4392"/>
	</linearGradient>
	<path id="Path_28" style="fill:url(#Path_28_00000155138457645562129160000009038788407274612128_);" d="M38.7,0L38.7,0
		C45.5,0,51,5.5,51,12.2v62c0,1.8-1.5,3.3-3.2,3.3c0,0,0,0,0,0h-9c-6.7,0-12.2-5.5-12.2-12.2V12.2C26.5,5.5,32,0,38.7,0z"/>
	
		<linearGradient id="Path_29_00000119106773246480002430000005933065171199586974_" gradientUnits="userSpaceOnUse" x1="-98.3503" y1="472.3608" x2="-98.3503" y2="473.2298" gradientTransform="matrix(1.495478e-15 24.423 77.5 -4.745507e-15 -36607.9609 2440.761)">
		<stop  offset="0" style="stop-color:#EE4392"/>
		<stop  offset="0.1" style="stop-color:#E54292"/>
		<stop  offset="0.26" style="stop-color:#CC3F92"/>
		<stop  offset="0.46" style="stop-color:#A53B94"/>
		<stop  offset="0.7" style="stop-color:#6E3695"/>
		<stop  offset="0.96" style="stop-color:#292F97"/>
		<stop  offset="1" style="stop-color:#1F2F98"/>
	</linearGradient>
	<path id="Path_29" style="fill:url(#Path_29_00000119106773246480002430000005933065171199586974_);" d="M77.5,38.8v9
		c0,1.8-1.5,3.3-3.2,3.3c0,0,0,0,0,0h-62C5.5,51,0,45.5,0,38.8l0,0C0,32,5.5,26.5,12.2,26.5h53.1C72,26.5,77.5,32,77.5,38.8z"/>
</g>
</svg>
