<svg id="Layer_1" data-name="Layer 1" xmlns="http://www.w3.org/2000/svg" xmlns:xlink="http://www.w3.org/1999/xlink" width="206.586" height="54.827" viewBox="0 0 206.586 54.827">
  <defs>
    <linearGradient id="linear-gradient" x1="0.5" y1="1" x2="0.5" gradientUnits="objectBoundingBox">
      <stop offset="0" stop-color="#1f2f98"/>
      <stop offset="1" stop-color="#ee4392"/>
    </linearGradient>
    <linearGradient id="linear-gradient-2" x1="0.5" y1="1" x2="0.5" y2="0.131" gradientUnits="objectBoundingBox">
      <stop offset="0" stop-color="#ee4392"/>
      <stop offset="0.1" stop-color="#e54292"/>
      <stop offset="0.26" stop-color="#cc3f92"/>
      <stop offset="0.46" stop-color="#a53b94"/>
      <stop offset="0.7" stop-color="#6e3695"/>
      <stop offset="0.96" stop-color="#292f97"/>
      <stop offset="1" stop-color="#1f2f98"/>
    </linearGradient>
  </defs>
  <g id="Group_15" data-name="Group 15" transform="translate(0)">
    <text id="mediHome" transform="translate(66.586 33.881)" fill="#ee4392" font-size="27" font-family="VarelaRound-Regular, Varela Round"><tspan x="0" y="0">medi</tspan><tspan y="0" fill="#1f2f98" letter-spacing="-0.01em">H</tspan><tspan y="0" fill="#1f2f98">ome</tspan></text>
    <rect id="Rectangle_28" data-name="Rectangle 28" width="40.4" height="40.4" rx="20.2" transform="translate(14.426 14.426)" fill="#1f2f98"/>
    <path id="Path_28" data-name="Path 28" d="M24.328,0h0a6.644,6.644,0,0,1,6.638,6.638V40.36a1.768,1.768,0,0,1-1.77,1.77H24.328a6.644,6.644,0,0,1-6.638-6.638V6.638A6.644,6.644,0,0,1,24.328,0Z" transform="translate(-3.264)" fill="url(#linear-gradient)"/>
    <path id="Path_29" data-name="Path 29" d="M6.638,0h4.869a1.768,1.768,0,0,1,1.77,1.77V35.491a6.644,6.644,0,0,1-6.638,6.638h0A6.644,6.644,0,0,1,0,35.491V6.638A6.644,6.644,0,0,1,6.638,0Z" transform="translate(42.129 14.426) rotate(90)" fill="url(#linear-gradient-2)"/>
  </g>
</svg>
