<?xml version="1.0" encoding="utf-8"?>
<!-- Generator: Adobe Illustrator 27.7.0, SVG Export Plug-In . SVG Version: 6.00 Build 0)  -->
<svg version="1.1" id="Layer_1" xmlns="http://www.w3.org/2000/svg" xmlns:xlink="http://www.w3.org/1999/xlink" x="0px" y="0px"
	 viewBox="0 0 206.6 54.8" style="enable-background:new 0 0 206.6 54.8;" xml:space="preserve">
<style type="text/css">
	.st0{enable-background:new    ;}
	.st1{fill:#FFFFFF;}
</style>
<g id="Group_15" transform="translate(0)">
	<g class="st0">
		<path class="st1" d="M69.9,34c-0.3,0-0.6-0.1-0.9-0.4c-0.2-0.2-0.4-0.5-0.4-0.9V21.2c0-0.3,0.1-0.6,0.4-0.9
			c0.2-0.2,0.5-0.4,0.9-0.4c0.3,0,0.6,0.1,0.9,0.4c0.2,0.2,0.4,0.5,0.4,0.9v1.1c0.3-0.4,0.6-0.7,1-1.1s0.9-0.7,1.5-1
			c0.6-0.3,1.3-0.4,2.2-0.4c1.1,0,2,0.3,2.7,0.9s1.2,1.2,1.5,1.9c0.2-0.3,0.5-0.7,0.9-1.2c0.4-0.4,0.9-0.8,1.6-1.1
			c0.7-0.3,1.5-0.5,2.5-0.5c1.1,0,1.9,0.3,2.6,0.8c0.7,0.5,1.2,1.2,1.5,2c0.3,0.8,0.5,1.6,0.5,2.4v7.8c0,0.3-0.1,0.6-0.4,0.9
			c-0.2,0.2-0.5,0.4-0.9,0.4s-0.6-0.1-0.9-0.4c-0.2-0.2-0.4-0.5-0.4-0.9v-7.3c0-1.1-0.2-2-0.6-2.6c-0.4-0.6-1.1-0.9-2.1-0.9
			c-0.7,0-1.3,0.1-1.8,0.4c-0.5,0.3-0.9,0.6-1.2,1c-0.3,0.4-0.6,0.8-0.9,1.2v8.1c0,0.3-0.1,0.6-0.4,0.9C79.7,33.9,79.4,34,79,34
			s-0.6-0.1-0.9-0.4c-0.2-0.2-0.4-0.5-0.4-0.9v-7.3c0-1.1-0.2-2-0.6-2.6c-0.4-0.6-1.1-0.9-2.1-0.9c-0.7,0-1.3,0.1-1.8,0.4
			c-0.5,0.3-0.9,0.6-1.2,1c-0.3,0.4-0.6,0.8-0.9,1.2v8.1c0,0.3-0.1,0.6-0.4,0.9C70.6,33.9,70.3,34,69.9,34z"/>
		<path class="st1" d="M99.7,34.2c-2.2,0-3.9-0.6-5.1-1.9s-1.8-3-1.8-5.3c0-1.2,0.2-2.4,0.7-3.5c0.4-1.1,1.2-2,2.1-2.7
			c1-0.7,2.2-1,3.7-1c1.4,0,2.6,0.3,3.5,1c1,0.6,1.7,1.5,2.2,2.5s0.7,2.1,0.7,3.3c0,0.3-0.1,0.6-0.3,0.9c-0.2,0.2-0.5,0.4-0.9,0.4
			h-9.2c0.1,1.2,0.6,2.2,1.4,2.9c0.8,0.7,1.9,1.1,3.3,1.1c0.8,0,1.5-0.1,2.1-0.2c0.6-0.2,1.1-0.4,1.6-0.6c0.1-0.1,0.3-0.1,0.5-0.1
			c0.3,0,0.5,0.1,0.8,0.3c0.2,0.2,0.3,0.5,0.3,0.8c0,0.2-0.1,0.4-0.2,0.6c-0.1,0.2-0.3,0.3-0.5,0.4c-0.6,0.3-1.2,0.6-1.9,0.9
			C101.8,34,100.8,34.2,99.7,34.2z M95.2,25.9h8c-0.1-0.9-0.3-1.7-0.7-2.3s-0.9-1-1.5-1.3c-0.6-0.3-1.2-0.4-1.8-0.4
			c-0.6,0-1.2,0.1-1.8,0.4c-0.6,0.3-1.1,0.7-1.5,1.3S95.2,24.9,95.2,25.9z"/>
		<path class="st1" d="M114.5,34.2c-1.1,0-2.1-0.3-3.1-0.8c-1-0.6-1.8-1.4-2.5-2.4c-0.6-1.1-1-2.4-1-3.9s0.3-2.8,1-3.9
			c0.6-1.1,1.5-1.9,2.5-2.4c1-0.6,2-0.8,3.1-0.8c1,0,1.8,0.2,2.6,0.5c0.8,0.4,1.4,0.9,2.1,1.5v-6.6c0-0.4,0.1-0.7,0.4-0.9
			c0.2-0.2,0.5-0.4,0.9-0.4s0.6,0.1,0.9,0.4c0.2,0.2,0.4,0.5,0.4,0.9v17.5c0,0.3-0.1,0.6-0.4,0.9c-0.2,0.2-0.5,0.4-0.9,0.4
			s-0.6-0.1-0.9-0.4c-0.2-0.2-0.4-0.5-0.4-0.9v-0.7c-0.6,0.6-1.3,1.2-2.1,1.5C116.3,34,115.4,34.2,114.5,34.2z M114.8,31.9
			c0.9,0,1.7-0.2,2.4-0.6c0.7-0.4,1.3-0.9,1.9-1.4v-5.7c-0.5-0.6-1.1-1.1-1.9-1.4c-0.7-0.4-1.5-0.6-2.4-0.6c-1.3,0-2.3,0.4-3.2,1.2
			c-0.8,0.8-1.3,2-1.3,3.6c0,1.6,0.4,2.8,1.3,3.6C112.5,31.4,113.6,31.9,114.8,31.9z"/>
		<path class="st1" d="M127,17.3c-0.4,0-0.7-0.1-1-0.4c-0.3-0.3-0.4-0.6-0.4-1v-0.1c0-0.4,0.1-0.7,0.4-1c0.3-0.3,0.6-0.4,1-0.4h0.2
			c0.4,0,0.7,0.1,1,0.4c0.3,0.3,0.4,0.6,0.4,1v0.1c0,0.4-0.1,0.7-0.4,1c-0.3,0.3-0.6,0.4-1,0.4H127z M127,34c-0.3,0-0.6-0.1-0.9-0.4
			c-0.2-0.2-0.4-0.5-0.4-0.9V21.2c0-0.4,0.1-0.7,0.4-0.9c0.2-0.2,0.5-0.4,0.9-0.4c0.4,0,0.7,0.1,0.9,0.4c0.2,0.2,0.4,0.5,0.4,0.9
			v11.6c0,0.3-0.1,0.6-0.4,0.9C127.7,33.9,127.4,34,127,34z"/>
	</g>
	<g class="st0">
		<path class="st1" d="M134.2,34c-0.3,0-0.6-0.1-0.9-0.4c-0.2-0.2-0.4-0.5-0.4-0.9V16.1c0-0.3,0.1-0.6,0.4-0.9
			c0.2-0.2,0.5-0.4,0.9-0.4s0.6,0.1,0.9,0.4s0.4,0.5,0.4,0.9v7.2h10.2v-7.2c0-0.3,0.1-0.6,0.4-0.9c0.2-0.2,0.5-0.4,0.9-0.4
			c0.3,0,0.6,0.1,0.9,0.4c0.2,0.2,0.4,0.5,0.4,0.9v16.7c0,0.3-0.1,0.6-0.4,0.9c-0.2,0.2-0.5,0.4-0.9,0.4c-0.3,0-0.6-0.1-0.9-0.4
			c-0.2-0.2-0.4-0.5-0.4-0.9v-7.2h-10.2v7.2c0,0.3-0.1,0.6-0.4,0.9C134.9,33.9,134.6,34,134.2,34z"/>
	</g>
	<g class="st0">
		<path class="st1" d="M158.7,34.2c-1.4,0-2.6-0.3-3.6-0.9c-1-0.6-1.8-1.4-2.4-2.5c-0.6-1.1-0.9-2.3-0.9-3.7s0.3-2.7,0.9-3.7
			c0.6-1.1,1.4-1.9,2.4-2.5c1-0.6,2.3-0.9,3.6-0.9c1.4,0,2.6,0.3,3.6,0.9c1,0.6,1.8,1.4,2.4,2.5c0.6,1.1,0.9,2.3,0.9,3.7
			s-0.3,2.7-0.9,3.7c-0.6,1.1-1.4,1.9-2.4,2.5C161.3,33.8,160.1,34.2,158.7,34.2z M158.7,31.9c0.7,0,1.4-0.2,2.1-0.5
			c0.7-0.3,1.3-0.9,1.7-1.6c0.5-0.7,0.7-1.7,0.7-2.9c0-1.2-0.2-2.1-0.7-2.9c-0.5-0.7-1-1.2-1.7-1.6c-0.7-0.3-1.4-0.5-2.1-0.5
			c-0.7,0-1.4,0.2-2.1,0.5c-0.7,0.3-1.3,0.8-1.7,1.6c-0.5,0.7-0.7,1.7-0.7,2.9c0,1.2,0.2,2.1,0.7,2.9c0.5,0.7,1,1.3,1.7,1.6
			C157.4,31.7,158.1,31.9,158.7,31.9z"/>
		<path class="st1" d="M170.3,34c-0.3,0-0.6-0.1-0.9-0.4c-0.2-0.2-0.4-0.5-0.4-0.9V21.2c0-0.3,0.1-0.6,0.4-0.9
			c0.2-0.2,0.5-0.4,0.9-0.4c0.3,0,0.6,0.1,0.9,0.4c0.2,0.2,0.4,0.5,0.4,0.9v1.1c0.3-0.4,0.6-0.7,1-1.1c0.4-0.4,0.9-0.7,1.5-1
			c0.6-0.3,1.3-0.4,2.2-0.4c1.1,0,2,0.3,2.7,0.9c0.7,0.6,1.2,1.2,1.5,1.9c0.2-0.3,0.5-0.7,0.9-1.2c0.4-0.4,0.9-0.8,1.6-1.1
			c0.7-0.3,1.5-0.5,2.5-0.5c1.1,0,1.9,0.3,2.6,0.8s1.2,1.2,1.5,2s0.5,1.6,0.5,2.4v7.8c0,0.3-0.1,0.6-0.4,0.9
			c-0.2,0.2-0.5,0.4-0.9,0.4s-0.6-0.1-0.9-0.4c-0.2-0.2-0.4-0.5-0.4-0.9v-7.3c0-1.1-0.2-2-0.6-2.6c-0.4-0.6-1.1-0.9-2.1-0.9
			c-0.7,0-1.3,0.1-1.8,0.4c-0.5,0.3-0.9,0.6-1.2,1c-0.3,0.4-0.6,0.8-0.9,1.2v8.1c0,0.3-0.1,0.6-0.4,0.9c-0.2,0.2-0.5,0.4-0.9,0.4
			s-0.6-0.1-0.9-0.4c-0.2-0.2-0.4-0.5-0.4-0.9v-7.3c0-1.1-0.2-2-0.6-2.6c-0.4-0.6-1.1-0.9-2.1-0.9c-0.7,0-1.3,0.1-1.8,0.4
			c-0.5,0.3-0.9,0.6-1.2,1c-0.3,0.4-0.6,0.8-0.9,1.2v8.1c0,0.3-0.1,0.6-0.4,0.9C170.9,33.9,170.6,34,170.3,34z"/>
		<path class="st1" d="M200,34.2c-2.2,0-3.9-0.6-5.1-1.9c-1.2-1.3-1.8-3-1.8-5.3c0-1.2,0.2-2.4,0.7-3.5c0.4-1.1,1.2-2,2.1-2.7
			c1-0.7,2.2-1,3.7-1c1.4,0,2.6,0.3,3.5,1c1,0.6,1.7,1.5,2.2,2.5s0.7,2.1,0.7,3.3c0,0.3-0.1,0.6-0.3,0.9c-0.2,0.2-0.5,0.4-0.9,0.4
			h-9.2c0.1,1.2,0.6,2.2,1.4,2.9c0.8,0.7,1.9,1.1,3.3,1.1c0.8,0,1.5-0.1,2.1-0.2c0.6-0.2,1.1-0.4,1.6-0.6c0.1-0.1,0.3-0.1,0.5-0.1
			c0.3,0,0.5,0.1,0.8,0.3c0.2,0.2,0.3,0.5,0.3,0.8c0,0.2-0.1,0.4-0.2,0.6c-0.1,0.2-0.3,0.3-0.5,0.4c-0.6,0.3-1.2,0.6-1.9,0.9
			C202.1,34,201.2,34.2,200,34.2z M195.5,25.9h8c-0.1-0.9-0.3-1.7-0.7-2.3s-0.9-1-1.5-1.3c-0.6-0.3-1.2-0.4-1.8-0.4
			s-1.2,0.1-1.8,0.4c-0.6,0.3-1.1,0.7-1.5,1.3S195.6,24.9,195.5,25.9z"/>
	</g>
	<path id="Rectangle_28" class="st1" d="M34.6,14.4L34.6,14.4c11.2,0,20.2,9,20.2,20.2l0,0c0,11.2-9,20.2-20.2,20.2l0,0
		c-11.2,0-20.2-9-20.2-20.2l0,0C14.4,23.5,23.5,14.4,34.6,14.4z"/>
	<path id="Path_28" class="st1" d="M21.1,0L21.1,0c3.7,0,6.6,3,6.6,6.6v33.7c0,1-0.8,1.8-1.8,1.8c0,0,0,0,0,0h-4.9
		c-3.7,0-6.6-3-6.6-6.6V6.6C14.4,3,17.4,0,21.1,0z"/>
	<path id="Path_29" class="st1" d="M42.1,21.1v4.9c0,1-0.8,1.8-1.8,1.8c0,0,0,0,0,0H6.6c-3.7,0-6.6-3-6.6-6.6l0,0
		c0-3.7,3-6.6,6.6-6.6h28.9C39.2,14.4,42.1,17.4,42.1,21.1z"/>
</g>
</svg>
