<?xml version="1.0" encoding="utf-8"?>
<!-- Generator: Adobe Illustrator 27.7.0, SVG Export Plug-In . SVG Version: 6.00 Build 0)  -->
<svg version="1.1" id="Group_221" xmlns="http://www.w3.org/2000/svg" xmlns:xlink="http://www.w3.org/1999/xlink" x="0px" y="0px"
	 viewBox="0 0 164.9 46" style="enable-background:new 0 0 164.9 46;" xml:space="preserve">
<style type="text/css">
	.st0{enable-background:new    ;}
	.st1{fill:#EE4392;}
	.st2{fill:#FF9DDA;}
	.st3{fill:url(#Path_22_00000021098265109146367420000006778640243521209008_);}
</style>
<g class="st0">
	<path class="st1" d="M58.9,31.7c-0.3,0-0.6-0.1-0.8-0.3c-0.2-0.2-0.3-0.5-0.3-0.8V20.3c0-0.3,0.1-0.6,0.3-0.8
		c0.2-0.2,0.5-0.3,0.8-0.3c0.3,0,0.6,0.1,0.8,0.3c0.2,0.2,0.3,0.5,0.3,0.8v1c0.2-0.3,0.5-0.6,0.9-1c0.3-0.3,0.8-0.6,1.3-0.9
		c0.5-0.2,1.2-0.4,1.9-0.4c1,0,1.7,0.3,2.4,0.8c0.6,0.5,1.1,1.1,1.3,1.7c0.2-0.3,0.5-0.6,0.8-1c0.4-0.4,0.8-0.7,1.4-1
		s1.3-0.4,2.2-0.4c0.9,0,1.7,0.2,2.3,0.7c0.6,0.5,1,1.1,1.3,1.8c0.3,0.7,0.4,1.4,0.4,2.1v6.9c0,0.3-0.1,0.6-0.3,0.8
		c-0.2,0.2-0.5,0.3-0.8,0.3c-0.3,0-0.6-0.1-0.8-0.3c-0.2-0.2-0.3-0.5-0.3-0.8v-6.5c0-1-0.2-1.8-0.5-2.3c-0.4-0.5-1-0.8-1.9-0.8
		c-0.6,0-1.1,0.1-1.6,0.3c-0.4,0.2-0.8,0.5-1.1,0.9c-0.3,0.4-0.6,0.7-0.8,1.1v7.2c0,0.3-0.1,0.6-0.3,0.8c-0.2,0.2-0.5,0.3-0.8,0.3
		c-0.3,0-0.6-0.1-0.8-0.3c-0.2-0.2-0.3-0.5-0.3-0.8v-6.5c0-1-0.2-1.8-0.5-2.3c-0.4-0.5-1-0.8-1.9-0.8c-0.6,0-1.1,0.1-1.6,0.3
		c-0.4,0.2-0.8,0.5-1.1,0.9c-0.3,0.4-0.6,0.7-0.8,1.1v7.2c0,0.3-0.1,0.6-0.3,0.8C59.4,31.6,59.2,31.7,58.9,31.7z"/>
	<path class="st1" d="M85.3,31.8c-2,0-3.5-0.6-4.6-1.7c-1.1-1.1-1.6-2.7-1.6-4.7c0-1.1,0.2-2.1,0.6-3.1c0.4-1,1-1.8,1.9-2.4
		c0.8-0.6,1.9-0.9,3.3-0.9c1.2,0,2.3,0.3,3.1,0.9c0.8,0.6,1.5,1.3,1.9,2.2s0.7,1.9,0.7,3c0,0.3-0.1,0.6-0.3,0.8s-0.5,0.3-0.8,0.3
		h-8.1c0.1,1.1,0.5,1.9,1.2,2.6c0.7,0.6,1.7,1,3,1c0.7,0,1.3-0.1,1.8-0.2s1-0.3,1.4-0.5c0.1-0.1,0.3-0.1,0.4-0.1
		c0.3,0,0.5,0.1,0.7,0.3c0.2,0.2,0.3,0.4,0.3,0.7c0,0.2-0.1,0.4-0.2,0.5c-0.1,0.2-0.3,0.3-0.4,0.4c-0.5,0.3-1.1,0.6-1.7,0.8
		C87.2,31.7,86.3,31.8,85.3,31.8z M81.3,24.4h7.1c0-0.8-0.3-1.5-0.6-2c-0.4-0.5-0.8-0.9-1.4-1.1c-0.5-0.2-1-0.4-1.6-0.4
		s-1,0.1-1.6,0.4c-0.5,0.2-1,0.6-1.3,1.1C81.6,22.9,81.3,23.6,81.3,24.4z"/>
	<path class="st1" d="M98.5,31.8c-1,0-1.9-0.2-2.8-0.7c-0.9-0.5-1.6-1.2-2.2-2.2c-0.6-0.9-0.9-2.1-0.9-3.5c0-1.4,0.3-2.5,0.9-3.5
		c0.6-0.9,1.3-1.7,2.2-2.2c0.9-0.5,1.8-0.7,2.8-0.7c0.8,0,1.6,0.2,2.3,0.5s1.3,0.8,1.8,1.3V15c0-0.3,0.1-0.6,0.3-0.8
		c0.2-0.2,0.5-0.3,0.8-0.3s0.6,0.1,0.8,0.3c0.2,0.2,0.3,0.5,0.3,0.8v15.6c0,0.3-0.1,0.6-0.3,0.8c-0.2,0.2-0.5,0.3-0.8,0.3
		s-0.6-0.1-0.8-0.3c-0.2-0.2-0.3-0.5-0.3-0.8V30c-0.5,0.6-1.2,1-1.8,1.3C100.1,31.6,99.3,31.8,98.5,31.8z M98.8,29.8
		c0.8,0,1.5-0.2,2.1-0.5c0.6-0.3,1.2-0.8,1.7-1.3v-5c-0.5-0.5-1-0.9-1.7-1.3s-1.4-0.5-2.1-0.5c-1.1,0-2.1,0.4-2.8,1.1
		c-0.7,0.7-1.1,1.8-1.1,3.2c0,1.4,0.4,2.5,1.1,3.2C96.7,29.4,97.7,29.8,98.8,29.8z"/>
	<path class="st1" d="M109.6,16.8c-0.3,0-0.6-0.1-0.9-0.4c-0.2-0.2-0.4-0.5-0.4-0.9v-0.1c0-0.3,0.1-0.6,0.4-0.9
		c0.2-0.2,0.5-0.4,0.9-0.4h0.1c0.3,0,0.6,0.1,0.9,0.4s0.4,0.5,0.4,0.9v0.1c0,0.3-0.1,0.6-0.4,0.9c-0.2,0.2-0.5,0.4-0.9,0.4H109.6z
		 M109.6,31.7c-0.3,0-0.6-0.1-0.8-0.3c-0.2-0.2-0.3-0.5-0.3-0.8V20.3c0-0.3,0.1-0.6,0.3-0.8c0.2-0.2,0.5-0.3,0.8-0.3
		c0.3,0,0.6,0.1,0.8,0.3s0.3,0.5,0.3,0.8v10.3c0,0.3-0.1,0.6-0.3,0.8C110.2,31.6,110,31.7,109.6,31.7z"/>
	<path class="st1" d="M122.1,31.8c-1.6,0-3-0.3-4.3-1c-1.3-0.7-2.3-1.7-3-3c-0.7-1.3-1.1-2.8-1.1-4.6c0-1.8,0.4-3.3,1.1-4.6
		c0.7-1.3,1.7-2.3,3-3c1.3-0.7,2.7-1,4.3-1c1.2,0,2.2,0.1,3.1,0.4c0.9,0.3,1.7,0.6,2.4,1.1c0.2,0.1,0.3,0.2,0.4,0.3s0.1,0.3,0.2,0.5
		c0,0.3-0.1,0.5-0.2,0.7c-0.2,0.2-0.4,0.3-0.7,0.3c-0.2,0-0.3,0-0.4-0.1c-0.6-0.3-1.3-0.6-2-0.8s-1.5-0.3-2.4-0.3
		c-1.4,0-2.6,0.3-3.6,0.9c-1,0.6-1.7,1.4-2.2,2.3c-0.5,1-0.7,2.1-0.7,3.3c0,1.2,0.2,2.3,0.7,3.3c0.5,1,1.2,1.8,2.2,2.3
		c1,0.6,2.1,0.9,3.6,0.9c0.9,0,1.8-0.1,2.4-0.3s1.3-0.5,2-0.8c0.1-0.1,0.3-0.1,0.4-0.1c0.3,0,0.5,0.1,0.7,0.3
		c0.2,0.2,0.3,0.4,0.2,0.7c0,0.2-0.1,0.4-0.2,0.5c-0.1,0.1-0.2,0.2-0.4,0.3c-0.7,0.4-1.5,0.8-2.4,1.1
		C124.3,31.6,123.3,31.8,122.1,31.8z"/>
	<path class="st1" d="M134.1,31.8c-0.7,0-1.3-0.1-1.9-0.4c-0.6-0.3-1.1-0.7-1.4-1.2c-0.4-0.5-0.5-1.2-0.5-1.9c0-1.1,0.5-2.1,1.4-2.8
		c0.9-0.7,2.3-1.1,4.2-1.1h2.9v-0.2c0-1.1-0.3-1.8-0.8-2.3c-0.5-0.5-1.3-0.7-2.4-0.7c-0.7,0-1.3,0.1-1.8,0.2s-1,0.3-1.4,0.4
		c-0.1,0-0.2,0-0.3,0c-0.2,0-0.4-0.1-0.6-0.3s-0.3-0.4-0.3-0.6c0-0.4,0.2-0.7,0.6-0.9c0.6-0.2,1.2-0.4,1.9-0.6
		c0.7-0.2,1.4-0.3,2.3-0.3c1.2,0,2.1,0.2,2.9,0.7c0.7,0.5,1.3,1.1,1.6,1.8s0.5,1.5,0.5,2.3v6.8c0,0.3-0.1,0.6-0.3,0.8
		c-0.2,0.2-0.5,0.3-0.8,0.3s-0.6-0.1-0.8-0.3c-0.2-0.2-0.3-0.5-0.3-0.8V30c-0.4,0.4-1,0.9-1.7,1.2S135.2,31.8,134.1,31.8z
		 M134.9,29.9c0.8,0,1.5-0.2,2.1-0.6c0.7-0.4,1.2-0.8,1.6-1.2v-2H136c-1.1,0-2,0.1-2.7,0.4c-0.6,0.3-1,0.8-1,1.5
		c0,0.5,0.2,1,0.5,1.3C133.3,29.7,133.9,29.9,134.9,29.9z"/>
</g>
<g class="st0">
	<path class="st1" d="M145.8,31.7c-0.3,0-0.6-0.1-0.8-0.3c-0.2-0.2-0.3-0.5-0.3-0.8V20.3c0-0.3,0.1-0.6,0.3-0.8
		c0.2-0.2,0.5-0.3,0.8-0.3s0.6,0.1,0.8,0.3s0.3,0.5,0.3,0.8v1c0.4-0.6,1-1.1,1.6-1.6c0.6-0.5,1.4-0.7,2.2-0.7h0.1
		c0.3,0,0.6,0.1,0.8,0.3s0.3,0.5,0.3,0.8c0,0.3-0.1,0.6-0.3,0.7c-0.2,0.2-0.5,0.3-0.8,0.3h-0.1c-0.8,0-1.5,0.2-2.1,0.6
		c-0.6,0.4-1.2,0.9-1.6,1.5v7.3c0,0.3-0.1,0.6-0.3,0.8C146.4,31.6,146.1,31.7,145.8,31.7z"/>
</g>
<g class="st0">
	<path class="st1" d="M159.1,31.8c-2,0-3.5-0.6-4.6-1.7c-1.1-1.1-1.6-2.7-1.6-4.7c0-1.1,0.2-2.1,0.6-3.1c0.4-1,1-1.8,1.9-2.4
		c0.8-0.6,1.9-0.9,3.3-0.9c1.2,0,2.3,0.3,3.1,0.9c0.8,0.6,1.5,1.3,1.9,2.2s0.7,1.9,0.7,3c0,0.3-0.1,0.6-0.3,0.8s-0.5,0.3-0.8,0.3
		h-8.1c0.1,1.1,0.5,1.9,1.2,2.6c0.7,0.6,1.7,1,3,1c0.7,0,1.3-0.1,1.8-0.2s1-0.3,1.4-0.5c0.1-0.1,0.3-0.1,0.4-0.1
		c0.3,0,0.5,0.1,0.7,0.3c0.2,0.2,0.3,0.4,0.3,0.7c0,0.2-0.1,0.4-0.2,0.5c-0.1,0.2-0.3,0.3-0.4,0.4c-0.5,0.3-1.1,0.6-1.7,0.8
		C161,31.7,160.2,31.8,159.1,31.8z M155.1,24.4h7.1c0-0.8-0.3-1.5-0.6-2c-0.4-0.5-0.8-0.9-1.4-1.1c-0.5-0.2-1-0.4-1.6-0.4
		s-1,0.1-1.6,0.4c-0.5,0.2-1,0.6-1.3,1.1C155.4,22.9,155.2,23.6,155.1,24.4z"/>
</g>
<g id="Group_11">
	<path id="Rectangle_24" class="st2" d="M29.1,12.1L29.1,12.1c9.4,0,16.9,7.6,16.9,16.9v0C46,38.4,38.4,46,29.1,46h0
		c-9.4,0-16.9-7.6-16.9-16.9v0C12.1,19.7,19.7,12.1,29.1,12.1z"/>
	
		<linearGradient id="Path_22_00000155130773041825914520000007509596394487527322_" gradientUnits="userSpaceOnUse" x1="-195.1967" y1="431.6294" x2="-195.1967" y2="432.6294" gradientTransform="matrix(11.138 0 0 -35.345 2191.77 15291.2871)">
		<stop  offset="0" style="stop-color:#FF9DDA"/>
		<stop  offset="1" style="stop-color:#EE4392"/>
	</linearGradient>
	<path id="Path_22" style="fill:url(#Path_22_00000155130773041825914520000007509596394487527322_);" d="M17.7,0L17.7,0
		c3.1,0,5.6,2.5,5.6,5.6v29.8h-5.6c-3.1,0-5.6-2.5-5.6-5.6V5.6C12.1,2.5,14.6,0,17.7,0z"/>
	<path id="Path_23" class="st2" d="M35.3,17.7v5.6H5.6c-3.1,0-5.6-2.5-5.6-5.6l0,0c0-3.1,2.5-5.6,5.6-5.6h24.2
		C32.9,12.1,35.3,14.6,35.3,17.7z"/>
</g>
</svg>
