<?xml version="1.0" encoding="utf-8"?>
<!-- Generator: Adobe Illustrator 27.7.0, SVG Export Plug-In . SVG Version: 6.00 Build 0)  -->
<svg version="1.1" id="Group_224" xmlns="http://www.w3.org/2000/svg" xmlns:xlink="http://www.w3.org/1999/xlink" x="0px" y="0px"
	 viewBox="0 0 227 46" style="enable-background:new 0 0 227 46;" xml:space="preserve">
<style type="text/css">
	.st0{enable-background:new    ;}
	.st1{fill:#0071BC;}
	.st2{fill:#1CA7EC;}
	.st3{fill:url(#Path_16_00000069382888580487649600000002923716284167953831_);}
	.st4{fill:url(#Path_17_00000108989584650980899970000011015693411596603582_);}
</style>
<g class="st0">
	<path class="st1" d="M58.9,31.7c-0.3,0-0.6-0.1-0.8-0.3c-0.2-0.2-0.3-0.5-0.3-0.8V20.3c0-0.3,0.1-0.6,0.3-0.8
		c0.2-0.2,0.5-0.3,0.8-0.3c0.3,0,0.6,0.1,0.8,0.3c0.2,0.2,0.3,0.5,0.3,0.8v1c0.2-0.3,0.5-0.6,0.9-1c0.3-0.3,0.8-0.6,1.3-0.9
		c0.5-0.2,1.2-0.4,1.9-0.4c1,0,1.7,0.3,2.4,0.8c0.6,0.5,1.1,1.1,1.3,1.7c0.2-0.3,0.5-0.6,0.8-1c0.4-0.4,0.8-0.7,1.4-1
		s1.3-0.4,2.2-0.4c0.9,0,1.7,0.2,2.3,0.7c0.6,0.5,1,1.1,1.3,1.8c0.3,0.7,0.4,1.4,0.4,2.1v6.9c0,0.3-0.1,0.6-0.3,0.8
		c-0.2,0.2-0.5,0.3-0.8,0.3c-0.3,0-0.6-0.1-0.8-0.3c-0.2-0.2-0.3-0.5-0.3-0.8v-6.5c0-1-0.2-1.8-0.5-2.3c-0.4-0.5-1-0.8-1.9-0.8
		c-0.6,0-1.1,0.1-1.6,0.3c-0.4,0.2-0.8,0.5-1.1,0.9c-0.3,0.4-0.6,0.7-0.8,1.1v7.2c0,0.3-0.1,0.6-0.3,0.8c-0.2,0.2-0.5,0.3-0.8,0.3
		c-0.3,0-0.6-0.1-0.8-0.3c-0.2-0.2-0.3-0.5-0.3-0.8v-6.5c0-1-0.2-1.8-0.5-2.3c-0.4-0.5-1-0.8-1.9-0.8c-0.6,0-1.1,0.1-1.6,0.3
		c-0.4,0.2-0.8,0.5-1.1,0.9c-0.3,0.4-0.6,0.7-0.8,1.1v7.2c0,0.3-0.1,0.6-0.3,0.8C59.5,31.6,59.2,31.7,58.9,31.7z"/>
	<path class="st1" d="M85.4,31.8c-2,0-3.5-0.6-4.6-1.7c-1.1-1.1-1.6-2.7-1.6-4.7c0-1.1,0.2-2.1,0.6-3.1c0.4-1,1-1.8,1.9-2.4
		c0.8-0.6,1.9-0.9,3.3-0.9c1.2,0,2.3,0.3,3.1,0.9c0.8,0.6,1.5,1.3,1.9,2.2c0.4,0.9,0.7,1.9,0.7,3c0,0.3-0.1,0.6-0.3,0.8
		s-0.5,0.3-0.8,0.3h-8.1c0.1,1.1,0.5,1.9,1.2,2.6c0.7,0.6,1.7,1,3,1c0.7,0,1.3-0.1,1.8-0.2s1-0.3,1.4-0.5c0.1-0.1,0.3-0.1,0.4-0.1
		c0.3,0,0.5,0.1,0.7,0.3c0.2,0.2,0.3,0.4,0.3,0.7c0,0.2-0.1,0.4-0.2,0.5c-0.1,0.2-0.3,0.3-0.4,0.4c-0.5,0.3-1.1,0.6-1.7,0.8
		C87.2,31.7,86.4,31.8,85.4,31.8z M81.3,24.4h7.1c0-0.8-0.3-1.5-0.6-2c-0.4-0.5-0.8-0.9-1.4-1.1c-0.5-0.2-1-0.4-1.6-0.4
		c-0.5,0-1,0.1-1.6,0.4c-0.5,0.2-1,0.6-1.3,1.1C81.6,22.9,81.4,23.6,81.3,24.4z"/>
	<path class="st1" d="M98.5,31.8c-1,0-1.9-0.2-2.8-0.7s-1.6-1.2-2.2-2.2c-0.6-0.9-0.9-2.1-0.9-3.5c0-1.4,0.3-2.5,0.9-3.5
		c0.6-0.9,1.3-1.7,2.2-2.2c0.9-0.5,1.8-0.7,2.8-0.7c0.8,0,1.6,0.2,2.3,0.5c0.7,0.3,1.3,0.8,1.8,1.3V15c0-0.3,0.1-0.6,0.3-0.8
		c0.2-0.2,0.5-0.3,0.8-0.3c0.3,0,0.6,0.1,0.8,0.3c0.2,0.2,0.3,0.5,0.3,0.8v15.6c0,0.3-0.1,0.6-0.3,0.8c-0.2,0.2-0.5,0.3-0.8,0.3
		c-0.3,0-0.6-0.1-0.8-0.3c-0.2-0.2-0.3-0.5-0.3-0.8V30c-0.5,0.6-1.2,1-1.8,1.3C100.1,31.6,99.4,31.8,98.5,31.8z M98.8,29.8
		c0.8,0,1.5-0.2,2.1-0.5c0.6-0.3,1.2-0.8,1.7-1.3v-5c-0.5-0.5-1-0.9-1.7-1.3c-0.6-0.3-1.4-0.5-2.1-0.5c-1.1,0-2.1,0.4-2.8,1.1
		c-0.7,0.7-1.1,1.8-1.1,3.2c0,1.4,0.4,2.5,1.1,3.2C96.8,29.4,97.7,29.8,98.8,29.8z"/>
	<path class="st1" d="M109.6,16.8c-0.3,0-0.6-0.1-0.9-0.4c-0.2-0.2-0.4-0.5-0.4-0.9v-0.1c0-0.3,0.1-0.6,0.4-0.9
		c0.2-0.2,0.5-0.4,0.9-0.4h0.1c0.3,0,0.6,0.1,0.9,0.4c0.2,0.2,0.4,0.5,0.4,0.9v0.1c0,0.3-0.1,0.6-0.4,0.9c-0.2,0.2-0.5,0.4-0.9,0.4
		H109.6z M109.7,31.7c-0.3,0-0.6-0.1-0.8-0.3c-0.2-0.2-0.3-0.5-0.3-0.8V20.3c0-0.3,0.1-0.6,0.3-0.8c0.2-0.2,0.5-0.3,0.8-0.3
		c0.3,0,0.6,0.1,0.8,0.3c0.2,0.2,0.3,0.5,0.3,0.8v10.3c0,0.3-0.1,0.6-0.3,0.8C110.3,31.6,110,31.7,109.7,31.7z"/>
	<path class="st1" d="M115.9,31.7c-0.3,0-0.6-0.1-0.8-0.3c-0.2-0.2-0.3-0.5-0.3-0.8V15.9c0-0.3,0.1-0.6,0.3-0.8
		c0.2-0.2,0.5-0.3,0.8-0.3h5.5c1.2,0,2.2,0.2,3.1,0.5c0.8,0.3,1.5,0.7,2,1.2c0.5,0.5,0.8,1.1,1.1,1.7c0.2,0.6,0.3,1.3,0.3,1.9
		s-0.1,1.3-0.3,1.9c-0.2,0.6-0.6,1.2-1.1,1.7c-0.5,0.5-1.1,0.9-2,1.2c-0.8,0.3-1.8,0.5-3.1,0.5H117v5.1c0,0.3-0.1,0.6-0.3,0.8
		C116.4,31.6,116.2,31.7,115.9,31.7z M117,23.4h4.2c1.2,0,2.1-0.2,2.8-0.5c0.6-0.3,1.1-0.7,1.3-1.2s0.4-1,0.4-1.5
		c0-0.5-0.1-1-0.4-1.5s-0.7-0.9-1.3-1.2c-0.6-0.3-1.6-0.5-2.8-0.5H117V23.4z"/>
	<path class="st1" d="M131.4,31.7c-0.3,0-0.6-0.1-0.8-0.3c-0.2-0.2-0.3-0.5-0.3-0.8V15c0-0.3,0.1-0.6,0.3-0.8
		c0.2-0.2,0.5-0.3,0.8-0.3s0.6,0.1,0.8,0.3s0.3,0.5,0.3,0.8v6.3c0.5-0.6,1.1-1.1,1.8-1.5s1.6-0.7,2.7-0.7c0.9,0,1.7,0.2,2.3,0.6
		c0.6,0.4,1.1,1,1.5,1.7s0.5,1.5,0.5,2.4v6.8c0,0.3-0.1,0.6-0.3,0.8c-0.2,0.2-0.5,0.3-0.8,0.3s-0.6-0.1-0.8-0.3
		c-0.2-0.2-0.3-0.5-0.3-0.8V24c0-0.9-0.2-1.6-0.6-2.1c-0.4-0.5-1.1-0.8-2-0.8c-0.9,0-1.6,0.2-2.3,0.7s-1.2,1-1.7,1.6v7.2
		c0,0.3-0.1,0.6-0.3,0.8C132,31.6,131.7,31.7,131.4,31.7z"/>
	<path class="st1" d="M148.1,31.8c-0.7,0-1.3-0.1-1.9-0.4c-0.6-0.3-1.1-0.7-1.4-1.2c-0.4-0.5-0.5-1.2-0.5-1.9c0-1.1,0.5-2.1,1.4-2.8
		c0.9-0.7,2.3-1.1,4.2-1.1h2.9v-0.2c0-1.1-0.3-1.8-0.8-2.3c-0.5-0.5-1.3-0.7-2.4-0.7c-0.7,0-1.3,0.1-1.8,0.2s-1,0.3-1.4,0.4
		c-0.1,0-0.2,0-0.3,0c-0.2,0-0.4-0.1-0.6-0.3s-0.3-0.4-0.3-0.6c0-0.4,0.2-0.7,0.6-0.9c0.6-0.2,1.2-0.4,1.9-0.6
		c0.7-0.2,1.4-0.3,2.3-0.3c1.2,0,2.1,0.2,2.9,0.7c0.7,0.5,1.3,1.1,1.6,1.8s0.5,1.5,0.5,2.3v6.8c0,0.3-0.1,0.6-0.3,0.8
		c-0.2,0.2-0.5,0.3-0.8,0.3s-0.6-0.1-0.8-0.3c-0.2-0.2-0.3-0.5-0.3-0.8V30c-0.4,0.4-1,0.9-1.7,1.2S149.2,31.8,148.1,31.8z
		 M148.9,29.9c0.8,0,1.5-0.2,2.1-0.6c0.7-0.4,1.2-0.8,1.6-1.2v-2H150c-1.1,0-2,0.1-2.7,0.4c-0.6,0.3-1,0.8-1,1.5
		c0,0.5,0.2,1,0.5,1.3C147.2,29.7,147.9,29.9,148.9,29.9z"/>
	<path class="st1" d="M159.5,31.7c-0.3,0-0.6-0.1-0.8-0.3c-0.2-0.2-0.3-0.5-0.3-0.8V20.3c0-0.3,0.1-0.6,0.3-0.8s0.5-0.3,0.8-0.3
		c0.3,0,0.6,0.1,0.8,0.3c0.2,0.2,0.3,0.5,0.3,0.8v1c0.4-0.6,1-1.1,1.6-1.6c0.6-0.5,1.4-0.7,2.2-0.7h0.1c0.3,0,0.6,0.1,0.8,0.3
		c0.2,0.2,0.3,0.5,0.3,0.8c0,0.3-0.1,0.6-0.3,0.7c-0.2,0.2-0.5,0.3-0.8,0.3h-0.1c-0.8,0-1.5,0.2-2.1,0.6c-0.6,0.4-1.2,0.9-1.6,1.5
		v7.3c0,0.3-0.1,0.6-0.3,0.8C160.1,31.6,159.8,31.7,159.5,31.7z"/>
	<path class="st1" d="M168.7,31.7c-0.3,0-0.6-0.1-0.8-0.3c-0.2-0.2-0.3-0.5-0.3-0.8V20.3c0-0.3,0.1-0.6,0.3-0.8
		c0.2-0.2,0.5-0.3,0.8-0.3s0.6,0.1,0.8,0.3s0.3,0.5,0.3,0.8v1c0.2-0.3,0.5-0.6,0.9-1s0.8-0.6,1.3-0.9c0.5-0.2,1.2-0.4,1.9-0.4
		c1,0,1.7,0.3,2.4,0.8s1.1,1.1,1.3,1.7c0.2-0.3,0.5-0.6,0.8-1s0.8-0.7,1.4-1s1.3-0.4,2.2-0.4c0.9,0,1.7,0.2,2.3,0.7
		c0.6,0.5,1,1.1,1.3,1.8s0.4,1.4,0.4,2.1v6.9c0,0.3-0.1,0.6-0.3,0.8c-0.2,0.2-0.5,0.3-0.8,0.3s-0.6-0.1-0.8-0.3
		c-0.2-0.2-0.3-0.5-0.3-0.8v-6.5c0-1-0.2-1.8-0.5-2.3c-0.4-0.5-1-0.8-1.9-0.8c-0.6,0-1.1,0.1-1.6,0.3c-0.4,0.2-0.8,0.5-1.1,0.9
		c-0.3,0.4-0.6,0.7-0.8,1.1v7.2c0,0.3-0.1,0.6-0.3,0.8c-0.2,0.2-0.5,0.3-0.8,0.3s-0.6-0.1-0.8-0.3c-0.2-0.2-0.3-0.5-0.3-0.8v-6.5
		c0-1-0.2-1.8-0.5-2.3c-0.4-0.5-1-0.8-1.9-0.8c-0.6,0-1.1,0.1-1.6,0.3c-0.4,0.2-0.8,0.5-1.1,0.9c-0.3,0.4-0.6,0.7-0.8,1.1v7.2
		c0,0.3-0.1,0.6-0.3,0.8C169.3,31.6,169,31.7,168.7,31.7z"/>
	<path class="st1" d="M192.8,31.8c-0.7,0-1.3-0.1-1.9-0.4c-0.6-0.3-1.1-0.7-1.4-1.2c-0.4-0.5-0.5-1.2-0.5-1.9c0-1.1,0.5-2.1,1.4-2.8
		c0.9-0.7,2.3-1.1,4.2-1.1h2.9v-0.2c0-1.1-0.3-1.8-0.8-2.3c-0.5-0.5-1.3-0.7-2.4-0.7c-0.7,0-1.3,0.1-1.8,0.2s-1,0.3-1.4,0.4
		c-0.1,0-0.2,0-0.3,0c-0.2,0-0.4-0.1-0.6-0.3s-0.3-0.4-0.3-0.6c0-0.4,0.2-0.7,0.6-0.9c0.6-0.2,1.2-0.4,1.9-0.6
		c0.7-0.2,1.4-0.3,2.3-0.3c1.2,0,2.1,0.2,2.9,0.7c0.7,0.5,1.3,1.1,1.6,1.8s0.5,1.5,0.5,2.3v6.8c0,0.3-0.1,0.6-0.3,0.8
		c-0.2,0.2-0.5,0.3-0.8,0.3s-0.6-0.1-0.8-0.3c-0.2-0.2-0.3-0.5-0.3-0.8V30c-0.4,0.4-1,0.9-1.7,1.2S193.9,31.8,192.8,31.8z
		 M193.6,29.9c0.8,0,1.5-0.2,2.1-0.6c0.7-0.4,1.2-0.8,1.6-1.2v-2h-2.6c-1.1,0-2,0.1-2.7,0.4c-0.6,0.3-1,0.8-1,1.5
		c0,0.5,0.2,1,0.5,1.3C192,29.7,192.6,29.9,193.6,29.9z"/>
	<path class="st1" d="M208.8,31.8c-1.1,0-2.2-0.3-3.2-0.8c-1-0.5-1.8-1.2-2.4-2.2c-0.6-1-0.9-2.1-0.9-3.4c0-1.3,0.3-2.5,0.9-3.4
		s1.4-1.7,2.4-2.2c1-0.5,2-0.8,3.2-0.8c0.9,0,1.7,0.1,2.4,0.4c0.6,0.2,1.1,0.5,1.5,0.8c0.3,0.2,0.5,0.5,0.5,0.8
		c0,0.2-0.1,0.4-0.3,0.6c-0.2,0.2-0.4,0.3-0.6,0.3c-0.2,0-0.4,0-0.5-0.1c-0.4-0.2-0.8-0.4-1.2-0.6c-0.4-0.1-0.9-0.2-1.5-0.2
		c-1.4,0-2.5,0.4-3.3,1.2c-0.8,0.8-1.2,1.8-1.2,3.1c0,1.3,0.4,2.3,1.2,3.1s1.9,1.2,3.3,1.2c0.6,0,1.1-0.1,1.5-0.2
		c0.4-0.2,0.8-0.3,1.2-0.5c0.2-0.1,0.4-0.1,0.5-0.1c0.3,0,0.5,0.1,0.6,0.3c0.2,0.2,0.3,0.4,0.3,0.6c0,0.4-0.2,0.6-0.5,0.8
		c-0.4,0.3-0.9,0.5-1.5,0.8C210.5,31.7,209.8,31.8,208.8,31.8z"/>
	<path class="st1" d="M218.7,37.2c-0.3,0-0.5-0.1-0.7-0.3s-0.3-0.5-0.3-0.7c0-0.1,0-0.3,0.1-0.4l1.6-4l-4.5-11c0-0.1,0-0.1-0.1-0.2
		c0-0.1,0-0.2,0-0.2c0-0.3,0.1-0.6,0.3-0.8s0.5-0.3,0.8-0.3c0.2,0,0.4,0.1,0.6,0.2s0.3,0.3,0.4,0.5l3.7,9.2l3.8-9.1
		c0.1-0.2,0.2-0.4,0.4-0.5c0.2-0.1,0.4-0.2,0.6-0.2c0.3,0,0.6,0.1,0.8,0.3c0.2,0.2,0.3,0.5,0.3,0.8c0,0.1,0,0.3-0.1,0.4l-6.6,15.7
		c-0.1,0.2-0.2,0.4-0.4,0.5C219.1,37.1,218.9,37.2,218.7,37.2z"/>
</g>
<path id="Rectangle_21" class="st2" d="M29.1,12.1L29.1,12.1c9.4,0,16.9,7.6,16.9,16.9v0C46,38.4,38.4,46,29.1,46h0
	c-9.4,0-16.9-7.6-16.9-16.9v0C12.1,19.7,19.7,12.1,29.1,12.1z"/>
<linearGradient id="Path_16_00000035496653194686222360000003313655645484076215_" gradientUnits="userSpaceOnUse" x1="-166.98" y1="431.6294" x2="-166.98" y2="432.6294" gradientTransform="matrix(11.138 0 0 -35.345 1877.4921 15291.2871)">
	<stop  offset="0" style="stop-color:#1CA7EC"/>
	<stop  offset="0.26" style="stop-color:#179FE4"/>
	<stop  offset="0.65" style="stop-color:#0C89D1"/>
	<stop  offset="1" style="stop-color:#0071BC"/>
</linearGradient>
<path id="Path_16" style="fill:url(#Path_16_00000035496653194686222360000003313655645484076215_);" d="M17.7,0L17.7,0
	c3.1,0,5.6,2.5,5.6,5.6v29.8h-5.6c-3.1,0-5.6-2.5-5.6-5.6V5.6C12.1,2.5,14.6,0,17.7,0z"/>
<linearGradient id="Path_17_00000097462345557935742610000009487696478025121981_" gradientUnits="userSpaceOnUse" x1="-147.7665" y1="448.1185" x2="-147.7665" y2="448.8815" gradientTransform="matrix(6.820058e-16 11.138 35.346 -2.164318e-15 -15838.3857 1663.4989)">
	<stop  offset="0" style="stop-color:#0071BC"/>
	<stop  offset="0.13" style="stop-color:#0479C3"/>
	<stop  offset="0.69" style="stop-color:#159AE0"/>
	<stop  offset="1" style="stop-color:#1CA7EC"/>
</linearGradient>
<path id="Path_17" style="fill:url(#Path_17_00000097462345557935742610000009487696478025121981_);" d="M35.3,17.7v5.6H5.6
	c-3.1,0-5.6-2.5-5.6-5.6l0,0c0-3.1,2.5-5.6,5.6-5.6h24.2C32.9,12.1,35.3,14.6,35.3,17.7z"/>
</svg>
