<svg id="Layer_1" data-name="Layer 1" xmlns="http://www.w3.org/2000/svg" width="206.586" height="54.827" viewBox="0 0 206.586 54.827">
  <g id="Group_15" data-name="Group 15" transform="translate(0)">
    <text id="mediHome" transform="translate(66.586 33.881)" fill="#fff" font-size="27" font-family="VarelaRound-Regular, Varela Round"><tspan x="0" y="0">medi</tspan><tspan y="0" letter-spacing="-0.01em">H</tspan><tspan y="0">ome</tspan></text>
    <rect id="Rectangle_28" data-name="Rectangle 28" width="40.4" height="40.4" rx="20.2" transform="translate(14.426 14.426)" fill="#fff"/>
    <path id="Path_28" data-name="Path 28" d="M24.328,0h0a6.644,6.644,0,0,1,6.638,6.638V40.36a1.768,1.768,0,0,1-1.77,1.77H24.328a6.644,6.644,0,0,1-6.638-6.638V6.638A6.644,6.644,0,0,1,24.328,0Z" transform="translate(-3.264)" fill="#fff"/>
    <path id="Path_29" data-name="Path 29" d="M6.638,0h4.869a1.768,1.768,0,0,1,1.77,1.77V35.491a6.644,6.644,0,0,1-6.638,6.638h0A6.644,6.644,0,0,1,0,35.491V6.638A6.644,6.644,0,0,1,6.638,0Z" transform="translate(42.129 14.426) rotate(90)" fill="#fff"/>
  </g>
</svg>
