<?xml version="1.0" encoding="utf-8"?>
<!-- Generator: Adobe Illustrator 27.7.0, SVG Export Plug-In . SVG Version: 6.00 Build 0)  -->
<svg version="1.1" id="Group_223" xmlns="http://www.w3.org/2000/svg" xmlns:xlink="http://www.w3.org/1999/xlink" x="0px" y="0px"
	 viewBox="0 0 206 46" style="enable-background:new 0 0 206 46;" xml:space="preserve">
<style type="text/css">
	.st0{enable-background:new    ;}
	.st1{fill:#00D1C1;}
	.st2{fill:#0071BC;}
	.st3{fill:url(#Path_24_00000081609309860739467180000007357162628636344458_);}
	.st4{fill:url(#Path_25_00000011016772963625920080000005295556584272991928_);}
</style>
<g class="st0">
	<path class="st1" d="M58.9,31.7c-0.3,0-0.6-0.1-0.8-0.3c-0.2-0.2-0.3-0.5-0.3-0.8V20.3c0-0.3,0.1-0.6,0.3-0.8
		c0.2-0.2,0.5-0.3,0.8-0.3c0.3,0,0.6,0.1,0.8,0.3c0.2,0.2,0.3,0.5,0.3,0.8v1c0.2-0.3,0.5-0.6,0.9-1c0.3-0.3,0.8-0.6,1.3-0.9
		c0.5-0.2,1.2-0.4,1.9-0.4c1,0,1.7,0.3,2.4,0.8c0.6,0.5,1.1,1.1,1.3,1.7c0.2-0.3,0.5-0.6,0.8-1c0.4-0.4,0.8-0.7,1.4-1
		s1.3-0.4,2.2-0.4c0.9,0,1.7,0.2,2.3,0.7c0.6,0.5,1,1.1,1.3,1.8c0.3,0.7,0.4,1.4,0.4,2.1v6.9c0,0.3-0.1,0.6-0.3,0.8
		c-0.2,0.2-0.5,0.3-0.8,0.3c-0.3,0-0.6-0.1-0.8-0.3c-0.2-0.2-0.3-0.5-0.3-0.8v-6.5c0-1-0.2-1.8-0.5-2.3c-0.4-0.5-1-0.8-1.9-0.8
		c-0.6,0-1.1,0.1-1.6,0.3c-0.4,0.2-0.8,0.5-1.1,0.9c-0.3,0.4-0.6,0.7-0.8,1.1v7.2c0,0.3-0.1,0.6-0.3,0.8c-0.2,0.2-0.5,0.3-0.8,0.3
		c-0.3,0-0.6-0.1-0.8-0.3c-0.2-0.2-0.3-0.5-0.3-0.8v-6.5c0-1-0.2-1.8-0.5-2.3c-0.4-0.5-1-0.8-1.9-0.8c-0.6,0-1.1,0.1-1.6,0.3
		c-0.4,0.2-0.8,0.5-1.1,0.9c-0.3,0.4-0.6,0.7-0.8,1.1v7.2c0,0.3-0.1,0.6-0.3,0.8C59.5,31.6,59.2,31.7,58.9,31.7z"/>
	<path class="st1" d="M85.4,31.8c-2,0-3.5-0.6-4.6-1.7c-1.1-1.1-1.6-2.7-1.6-4.7c0-1.1,0.2-2.1,0.6-3.1c0.4-1,1-1.8,1.9-2.4
		c0.8-0.6,1.9-0.9,3.3-0.9c1.2,0,2.3,0.3,3.1,0.9c0.8,0.6,1.5,1.3,1.9,2.2c0.4,0.9,0.7,1.9,0.7,3c0,0.3-0.1,0.6-0.3,0.8
		s-0.5,0.3-0.8,0.3h-8.1c0.1,1.1,0.5,1.9,1.2,2.6c0.7,0.6,1.7,1,3,1c0.7,0,1.3-0.1,1.8-0.2s1-0.3,1.4-0.5c0.1-0.1,0.3-0.1,0.4-0.1
		c0.3,0,0.5,0.1,0.7,0.3c0.2,0.2,0.3,0.4,0.3,0.7c0,0.2-0.1,0.4-0.2,0.5c-0.1,0.2-0.3,0.3-0.4,0.4c-0.5,0.3-1.1,0.6-1.7,0.8
		C87.2,31.7,86.4,31.8,85.4,31.8z M81.3,24.4h7.1c0-0.8-0.3-1.5-0.6-2c-0.4-0.5-0.8-0.9-1.4-1.1c-0.5-0.2-1-0.4-1.6-0.4
		c-0.5,0-1,0.1-1.6,0.4c-0.5,0.2-1,0.6-1.3,1.1C81.6,22.9,81.4,23.6,81.3,24.4z"/>
	<path class="st1" d="M98.5,31.8c-1,0-1.9-0.2-2.8-0.7s-1.6-1.2-2.2-2.2c-0.6-0.9-0.9-2.1-0.9-3.5c0-1.4,0.3-2.5,0.9-3.5
		c0.6-0.9,1.3-1.7,2.2-2.2c0.9-0.5,1.8-0.7,2.8-0.7c0.8,0,1.6,0.2,2.3,0.5c0.7,0.3,1.3,0.8,1.8,1.3V15c0-0.3,0.1-0.6,0.3-0.8
		c0.2-0.2,0.5-0.3,0.8-0.3c0.3,0,0.6,0.1,0.8,0.3c0.2,0.2,0.3,0.5,0.3,0.8v15.6c0,0.3-0.1,0.6-0.3,0.8c-0.2,0.2-0.5,0.3-0.8,0.3
		c-0.3,0-0.6-0.1-0.8-0.3c-0.2-0.2-0.3-0.5-0.3-0.8V30c-0.5,0.6-1.2,1-1.8,1.3C100.1,31.6,99.4,31.8,98.5,31.8z M98.8,29.8
		c0.8,0,1.5-0.2,2.1-0.5c0.6-0.3,1.2-0.8,1.7-1.3v-5c-0.5-0.5-1-0.9-1.7-1.3c-0.6-0.3-1.4-0.5-2.1-0.5c-1.1,0-2.1,0.4-2.8,1.1
		c-0.7,0.7-1.1,1.8-1.1,3.2c0,1.4,0.4,2.5,1.1,3.2C96.8,29.4,97.7,29.8,98.8,29.8z"/>
	<path class="st1" d="M109.6,16.8c-0.3,0-0.6-0.1-0.9-0.4c-0.2-0.2-0.4-0.5-0.4-0.9v-0.1c0-0.3,0.1-0.6,0.4-0.9
		c0.2-0.2,0.5-0.4,0.9-0.4h0.1c0.3,0,0.6,0.1,0.9,0.4s0.4,0.5,0.4,0.9v0.1c0,0.3-0.1,0.6-0.4,0.9c-0.2,0.2-0.5,0.4-0.9,0.4H109.6z
		 M109.7,31.7c-0.3,0-0.6-0.1-0.8-0.3c-0.2-0.2-0.3-0.5-0.3-0.8V20.3c0-0.3,0.1-0.6,0.3-0.8c0.2-0.2,0.5-0.3,0.8-0.3
		c0.3,0,0.6,0.1,0.8,0.3s0.3,0.5,0.3,0.8v10.3c0,0.3-0.1,0.6-0.3,0.8C110.3,31.6,110,31.7,109.7,31.7z"/>
</g>
<g class="st0">
	<path class="st1" d="M116.1,31.7c-0.3,0-0.6-0.1-0.8-0.3c-0.2-0.2-0.3-0.5-0.3-0.8V15.8c0-0.3,0.1-0.6,0.3-0.8
		c0.2-0.2,0.5-0.3,0.8-0.3s0.6,0.1,0.8,0.3s0.3,0.5,0.3,0.8v6.4h9.1v-6.4c0-0.3,0.1-0.6,0.3-0.8s0.5-0.3,0.8-0.3
		c0.3,0,0.6,0.1,0.8,0.3c0.2,0.2,0.3,0.5,0.3,0.8v14.8c0,0.3-0.1,0.6-0.3,0.8c-0.2,0.2-0.5,0.3-0.8,0.3c-0.3,0-0.6-0.1-0.8-0.3
		c-0.2-0.2-0.3-0.5-0.3-0.8v-6.4h-9.1v6.4c0,0.3-0.1,0.6-0.3,0.8C116.7,31.6,116.4,31.7,116.1,31.7z"/>
</g>
<g class="st0">
	<path class="st1" d="M137.9,31.8c-1.2,0-2.3-0.3-3.2-0.8c-0.9-0.5-1.6-1.3-2.1-2.2s-0.8-2.1-0.8-3.3c0-1.3,0.3-2.4,0.8-3.3
		c0.5-1,1.2-1.7,2.1-2.2c0.9-0.5,2-0.8,3.2-0.8c1.2,0,2.3,0.3,3.2,0.8c0.9,0.5,1.6,1.3,2.1,2.2c0.5,1,0.8,2.1,0.8,3.3
		c0,1.3-0.3,2.4-0.8,3.3c-0.5,1-1.2,1.7-2.1,2.2C140.2,31.5,139.1,31.8,137.9,31.8z M137.9,29.8c0.6,0,1.2-0.1,1.8-0.4
		c0.6-0.3,1.1-0.8,1.5-1.4c0.4-0.6,0.6-1.5,0.6-2.6c0-1.1-0.2-1.9-0.6-2.5c-0.4-0.6-0.9-1.1-1.5-1.4c-0.6-0.3-1.2-0.4-1.8-0.4
		c-0.6,0-1.2,0.1-1.8,0.4c-0.6,0.3-1.1,0.7-1.5,1.4c-0.4,0.6-0.6,1.5-0.6,2.5c0,1.1,0.2,1.9,0.6,2.6c0.4,0.6,0.9,1.1,1.5,1.4
		C136.6,29.7,137.3,29.8,137.9,29.8z"/>
	<path class="st1" d="M151,31.8c-0.9,0-1.7-0.1-2.4-0.3c-0.7-0.2-1.4-0.5-2-0.8c-0.3-0.2-0.4-0.5-0.4-0.8c0-0.2,0.1-0.5,0.3-0.7
		c0.2-0.2,0.4-0.3,0.7-0.3c0.1,0,0.3,0,0.4,0.1c0.4,0.2,0.9,0.4,1.4,0.5c0.5,0.1,1.1,0.2,1.8,0.2c0.9,0,1.6-0.1,2-0.4
		s0.6-0.7,0.6-1.3c0-0.4-0.2-0.6-0.5-0.8c-0.3-0.2-0.8-0.4-1.3-0.5c-0.6-0.1-1.1-0.3-1.7-0.4c-0.6-0.2-1.2-0.4-1.7-0.6
		c-0.6-0.3-1-0.6-1.3-1.1c-0.3-0.5-0.5-1-0.5-1.8c0-1.1,0.4-2,1.2-2.7c0.8-0.7,2-1.1,3.5-1.1c0.7,0,1.3,0.1,1.9,0.2
		c0.6,0.1,1.1,0.3,1.6,0.4c0.2,0.1,0.4,0.2,0.5,0.4s0.2,0.4,0.2,0.5c0,0.3-0.1,0.5-0.3,0.7c-0.2,0.2-0.4,0.3-0.7,0.3
		c-0.1,0-0.1,0-0.2,0c0,0-0.1,0-0.1,0c-0.4-0.1-0.8-0.2-1.3-0.3s-0.9-0.1-1.5-0.1c-0.9,0-1.6,0.2-2,0.5c-0.5,0.3-0.7,0.7-0.7,1.2
		c0,0.4,0.2,0.7,0.5,1c0.3,0.2,0.8,0.4,1.3,0.5s1.1,0.3,1.8,0.4c0.6,0.1,1.2,0.3,1.8,0.6c0.6,0.3,1,0.6,1.3,1.1
		c0.3,0.5,0.5,1.1,0.5,1.9c0,1-0.4,1.8-1.2,2.5C153.7,31.4,152.6,31.8,151,31.8z"/>
	<path class="st1" d="M159.7,37.2c-0.3,0-0.6-0.1-0.8-0.3c-0.2-0.2-0.3-0.5-0.3-0.8V20.3c0-0.3,0.1-0.6,0.3-0.8s0.5-0.3,0.8-0.3
		c0.3,0,0.6,0.1,0.8,0.3c0.2,0.2,0.3,0.5,0.3,0.8v0.6c0.6-0.6,1.2-1,1.8-1.3c0.7-0.3,1.4-0.5,2.3-0.5c1,0,1.9,0.2,2.8,0.7
		c0.9,0.5,1.6,1.2,2.2,2.2c0.6,0.9,0.9,2.1,0.9,3.5c0,1.4-0.3,2.5-0.9,3.5c-0.6,0.9-1.3,1.7-2.2,2.2s-1.8,0.7-2.8,0.7
		c-0.8,0-1.6-0.2-2.3-0.5c-0.7-0.3-1.3-0.8-1.8-1.3v6.1c0,0.3-0.1,0.6-0.3,0.8C160.2,37.1,160,37.2,159.7,37.2z M164.6,29.8
		c1.1,0,2.1-0.4,2.8-1.1c0.7-0.7,1.1-1.8,1.1-3.2c0-1.4-0.4-2.5-1.1-3.2c-0.7-0.7-1.7-1.1-2.8-1.1c-0.8,0-1.5,0.2-2.1,0.5
		c-0.6,0.3-1.2,0.8-1.7,1.3v5c0.5,0.5,1,0.9,1.7,1.3C163.1,29.6,163.8,29.8,164.6,29.8z"/>
	<path class="st1" d="M174.8,16.8c-0.3,0-0.6-0.1-0.9-0.4c-0.2-0.2-0.4-0.5-0.4-0.9v-0.1c0-0.3,0.1-0.6,0.4-0.9
		c0.2-0.2,0.5-0.4,0.9-0.4h0.1c0.3,0,0.6,0.1,0.9,0.4s0.4,0.5,0.4,0.9v0.1c0,0.3-0.1,0.6-0.4,0.9c-0.2,0.2-0.5,0.4-0.9,0.4H174.8z
		 M174.8,31.7c-0.3,0-0.6-0.1-0.8-0.3c-0.2-0.2-0.3-0.5-0.3-0.8V20.3c0-0.3,0.1-0.6,0.3-0.8c0.2-0.2,0.5-0.3,0.8-0.3
		c0.3,0,0.6,0.1,0.8,0.3s0.3,0.5,0.3,0.8v10.3c0,0.3-0.1,0.6-0.3,0.8C175.4,31.6,175.1,31.7,174.8,31.7z"/>
	<path class="st1" d="M183.9,31.8c-0.3,0-0.6,0-1-0.1c-0.4-0.1-0.8-0.2-1.2-0.4s-0.7-0.5-0.9-0.9c-0.3-0.4-0.4-1-0.4-1.8v-7.4h-1.7
		c-0.3,0-0.5-0.2-0.5-0.5c0-0.2,0.1-0.3,0.2-0.4l3.3-3.2c0,0,0.1-0.1,0.2-0.1c0.1-0.1,0.2-0.1,0.3-0.1c0.1,0,0.2,0,0.3,0.1
		s0.1,0.2,0.1,0.3v1.9h2.7c0.3,0,0.5,0.1,0.7,0.3c0.2,0.2,0.3,0.4,0.3,0.7c0,0.3-0.1,0.5-0.3,0.7c-0.2,0.2-0.4,0.3-0.7,0.3h-2.7v7.2
		c0,0.5,0.1,0.8,0.3,1c0.2,0.2,0.4,0.3,0.6,0.4c0.2,0,0.5,0.1,0.7,0.1c0.4,0,0.7,0,0.9-0.1s0.4-0.1,0.6-0.1c0.2,0,0.4,0.1,0.6,0.2
		c0.2,0.2,0.3,0.4,0.3,0.6c0,0.4-0.2,0.6-0.6,0.8c-0.3,0.1-0.6,0.2-0.9,0.3C184.7,31.8,184.3,31.8,183.9,31.8z"/>
	<path class="st1" d="M192,31.8c-0.7,0-1.3-0.1-1.9-0.4c-0.6-0.3-1.1-0.7-1.4-1.2c-0.4-0.5-0.5-1.2-0.5-1.9c0-1.1,0.5-2.1,1.4-2.8
		c0.9-0.7,2.3-1.1,4.2-1.1h2.9v-0.2c0-1.1-0.3-1.8-0.8-2.3c-0.5-0.5-1.3-0.7-2.4-0.7c-0.7,0-1.3,0.1-1.8,0.2s-1,0.3-1.4,0.4
		c-0.1,0-0.2,0-0.3,0c-0.2,0-0.4-0.1-0.6-0.3s-0.3-0.4-0.3-0.6c0-0.4,0.2-0.7,0.6-0.9c0.6-0.2,1.2-0.4,1.9-0.6
		c0.7-0.2,1.4-0.3,2.3-0.3c1.2,0,2.1,0.2,2.9,0.7c0.7,0.5,1.3,1.1,1.6,1.8s0.5,1.5,0.5,2.3v6.8c0,0.3-0.1,0.6-0.3,0.8
		c-0.2,0.2-0.5,0.3-0.8,0.3s-0.6-0.1-0.8-0.3c-0.2-0.2-0.3-0.5-0.3-0.8V30c-0.4,0.4-1,0.9-1.7,1.2S193.1,31.8,192,31.8z M192.8,29.9
		c0.8,0,1.5-0.2,2.1-0.6c0.7-0.4,1.2-0.8,1.6-1.2v-2h-2.6c-1.1,0-2,0.1-2.7,0.4c-0.6,0.3-1,0.8-1,1.5c0,0.5,0.2,1,0.5,1.3
		C191.2,29.7,191.8,29.9,192.8,29.9z"/>
	<path class="st1" d="M203.4,31.7c-0.3,0-0.6-0.1-0.8-0.3c-0.2-0.2-0.3-0.5-0.3-0.8V15c0-0.3,0.1-0.6,0.3-0.8s0.5-0.3,0.8-0.3
		c0.3,0,0.6,0.1,0.8,0.3c0.2,0.2,0.3,0.5,0.3,0.8v15.6c0,0.3-0.1,0.6-0.3,0.8C204,31.6,203.8,31.7,203.4,31.7z"/>
</g>
<path id="Rectangle_25" class="st2" d="M29.1,12.1L29.1,12.1c9.4,0,16.9,7.6,16.9,16.9v0C46,38.4,38.4,46,29.1,46h0
	c-9.4,0-16.9-7.6-16.9-16.9v0C12.1,19.7,19.7,12.1,29.1,12.1z"/>
<linearGradient id="Path_24_00000109003799821836217890000006857448540283661482_" gradientUnits="userSpaceOnUse" x1="-176.0822" y1="431.6294" x2="-176.0822" y2="432.6294" gradientTransform="matrix(11.138 0 0 -35.345 1978.8721 15291.2871)">
	<stop  offset="0" style="stop-color:#0071BC"/>
	<stop  offset="0.16" style="stop-color:#0578BE"/>
	<stop  offset="0.4" style="stop-color:#148EC5"/>
	<stop  offset="0.7" style="stop-color:#2CB2D0"/>
	<stop  offset="1" style="stop-color:#4ADEDE"/>
</linearGradient>
<path id="Path_24" style="fill:url(#Path_24_00000109003799821836217890000006857448540283661482_);" d="M17.7,0L17.7,0
	c3.1,0,5.6,2.5,5.6,5.6v29.8h-5.6c-3.1,0-5.6-2.5-5.6-5.6V5.6C12.1,2.5,14.6,0,17.7,0z"/>
<linearGradient id="Path_25_00000178898669555772174370000009228420404368210058_" gradientUnits="userSpaceOnUse" x1="-157.7665" y1="448.4054" x2="-157.7665" y2="449.2644" gradientTransform="matrix(6.820058e-16 11.138 35.346 -2.164318e-15 -15848.3857 1774.8789)">
	<stop  offset="0" style="stop-color:#4ADEDE"/>
	<stop  offset="3.000000e-02" style="stop-color:#45D7DC"/>
	<stop  offset="0.23" style="stop-color:#2CB3D0"/>
	<stop  offset="0.42" style="stop-color:#1996C7"/>
	<stop  offset="0.62" style="stop-color:#0B81C1"/>
	<stop  offset="0.81" style="stop-color:#0275BD"/>
	<stop  offset="1" style="stop-color:#0071BC"/>
</linearGradient>
<path id="Path_25" style="fill:url(#Path_25_00000178898669555772174370000009228420404368210058_);" d="M35.3,17.7v5.6H5.6
	c-3.1,0-5.6-2.5-5.6-5.6l0,0c0-3.1,2.5-5.6,5.6-5.6h24.2C32.9,12.1,35.3,14.6,35.3,17.7z"/>
</svg>
